<?xml version="1.0" encoding="utf-8"?>
<!-- Generator: Adobe Illustrator 21.1.0, SVG Export Plug-In . SVG Version: 6.00 Build 0)  -->
<svg version="1.1" id="Layer_1" xmlns="http://www.w3.org/2000/svg" xmlns:xlink="http://www.w3.org/1999/xlink" x="0px" y="0px"
	 viewBox="0 0 78 78" style="enable-background:new 0 0 78 78;" xml:space="preserve">
<style type="text/css">
	.st0{fill:none;stroke:#58595B;stroke-linecap:round;stroke-linejoin:round;stroke-miterlimit:10;}
</style>
<path class="st0" d="M55.7,39c0-2.1,1.7-3.9,3.8-4.1c-0.6-2.7-1.6-5.2-3.1-7.4c-1.7,1.4-4.1,1.3-5.6-0.3c-1.6-1.6-1.6-3.9-0.3-5.6
	c-2.2-1.5-4.7-2.5-7.4-3.1c-0.2,2.1-1.9,3.8-4.1,3.8s-3.9-1.7-4.1-3.8c-2.7,0.6-5.2,1.6-7.4,3.1c1.4,1.7,1.3,4.1-0.3,5.6
	c-1.6,1.6-3.9,1.6-5.6,0.3c-1.5,2.2-2.5,4.7-3.1,7.4c2.1,0.2,3.8,1.9,3.8,4.1s-1.7,3.9-3.8,4.1c0.6,2.7,1.6,5.2,3.1,7.4
	c1.7-1.4,4.1-1.3,5.6,0.3c1.6,1.6,1.6,3.9,0.3,5.6c2.2,1.5,4.7,2.5,7.4,3.1c0.2-2.1,1.9-3.8,4.1-3.8s3.9,1.7,4.1,3.8
	c2.7-0.6,5.2-1.6,7.4-3.1c-1.4-1.7-1.3-4.1,0.3-5.6c1.6-1.6,3.9-1.6,5.6-0.3c1.5-2.2,2.5-4.7,3.1-7.4C57.3,42.9,55.7,41.1,55.7,39z
	 M39,49.4c-5.7,0-10.4-4.7-10.4-10.4S33.3,28.6,39,28.6S49.4,33.3,49.4,39S44.7,49.4,39,49.4z"/>
</svg>
