<?xml version="1.0" encoding="utf-8"?>
<!-- Generator: Adobe Illustrator 21.0.2, SVG Export Plug-In . SVG Version: 6.00 Build 0)  -->
<svg version="1.1" id="Layer_1" xmlns="http://www.w3.org/2000/svg" xmlns:xlink="http://www.w3.org/1999/xlink" x="0px" y="0px"
	 viewBox="0 0 100 51.5" style="enable-background:new 0 0 100 51.5;" xml:space="preserve">
<style type="text/css">
	.st0{fill-rule:evenodd;clip-rule:evenodd;fill:#FFFFFF;}
</style>
<g>
	<path class="st0" d="M99.9,26.6c-0.7,0.1-1.5,0.2-2.1-0.2c0,0-0.1,0-0.1,0c-0.8,0.4-1.5-0.1-2.2-0.2c-0.2,0-0.3,0-0.5,0
		c-1.3,0.1-2.7,0.1-4,0.2c-1.3,0.1-2.6,0.1-3.9,0.3c-1.7,0.2-3.5,0.5-5.2,0.8c-1.5,0.2-3.1,0.4-4.6,0.6c-2,0.4-4,0.8-6,1.2
		c-1,0.2-2,0.6-3,0.8c-2.6,0.5-5.2,0.9-7.7,1.4c-1.2,0.2-2.3,0.5-3.5,0.6c-1.4,0.2-2.8,0.4-4.1,1c-0.9,0.4-1.9,0.5-2.9,0.3
		c0.1-0.1,0.1-0.3,0.1-0.3c1-1,1.9-2.1,2.9-3.1c1-1,1.4-2.2,1.3-3.5c0-0.6-0.3-1.3-0.6-1.7c-0.9-1.1-1.9-2.1-3.4-2.5
		c-0.1,0-0.2-0.1-0.3-0.2c0-0.1,0-0.3,0.1-0.3c1-0.9,1.9-1.8,2.9-2.6c0.4-0.4,0.9-0.8,1.3-1.2c0.2-0.1,0.3-0.4,0.5-0.4
		c0.7,0,0.9-0.4,1.2-1c0.1-0.3,0.4-0.5,0.6-0.7c0.3-0.3,0.7-0.6,1-1c0.7-0.8,1.3-1.5,1.5-2.6c0.2-1-0.2-1.8-1.2-2.1
		c-0.3-0.1-0.7-0.2-1-0.3c-0.5-0.1-0.9-0.2-1.1,0.2c-0.8-0.5-1.6-1-2.4-1.3c-0.9-0.3-1.8-0.5-2.8-0.7c0.1-0.2,0.2-0.5,0.3-0.6
		c0.8-1.2,1.6-2.4,2.5-3.6C53.8,3.5,54,3,53.8,2.5c-0.2-0.7-0.1-1.3,0.2-1.9c0.1-0.1,0-0.3,0.1-0.5c-0.6-0.3-0.9,0.1-1.2,0.4
		c-1.1,1.5-2.1,3.1-3.1,4.6c-0.6,0.9-1.2,1.9-1.9,2.8c-0.3,0.4-0.9,0.8-1.4,1c-0.7,0.3-1.4,0.5-2.2,0.7c-1,0.3-1.9,0.6-2.9,0.8
		c-1.2-0.6-1.7,0.7-2.6,0.9c-0.9,0.2-1.7,0.6-2.5,0.9c-2,0.8-3.8,1.8-5.4,3.4c-0.4,0.4-1,0.8-1.4,1.2c-0.3,0.3-0.6,0.6-0.8,0.9
		c-0.1,0.1-0.1,0.4-0.1,0.8c0.3-0.1,0.6-0.2,0.7-0.3c0.7-0.7,1.6-1.3,2.6-1.7c0.7-0.3,1.3-0.8,2-1.1c0.6-0.2,1.2-0.4,1.5-0.9
		c0.1-0.2,0.5-0.2,0.7-0.3c0.7,0,1.3-0.2,1.9-0.8c0.2-0.1,0.4-0.2,0.6-0.2c0.5-0.1,1.1,0,1.5-0.3c0.8-0.5,1.7-0.6,2.6-0.8
		c0.2-0.1,0.4-0.1,0.6,0c0.4,0.1,0.5,0.4,0.3,0.7c-0.2,0.3-0.5,0.7-0.8,1c-0.6,0.8-1.3,1.5-1.9,2.3c-1.7,2.4-3.7,4.6-5.7,6.7
		c-0.6,0.6-1.2,1.1-1.7,1.7c-0.4,0.5-1,0.9-1.6,1c-1.4,0.4-2.8,0.7-4.2,1.2c-2.1,0.8-4.2,1.7-6.3,2.6c-0.3,0.1-0.5,0.4-0.6,0.6
		c-0.4,0.8-0.8,1.6-1.8,2.1c1.2,0.2,2.1,0.3,3,0.5c1,0.2,1.8-0.7,2.9-0.3c-0.3,0.7-0.9,1-1.4,1.2c-1.1,0.5-2,1.3-2.9,2.1
		c-0.4,0.3-0.6,0.7-1,1.1c-0.9,0.8-1.8,1.6-2.6,2.5c-0.9,0.9-1.8,1.7-2.8,2.4c-0.2,0.1-0.4,0.4-0.6,0.4c-1.2,0.2-2,0.9-3,1.4
		c-1.3,0.7-2.6,1.2-3.8,2c-1.4,0.8-2.8,1.6-4,2.7c-0.4,0.3-0.7,0.8-1.2,0.6c-0.7-0.2-0.8,0.1-0.9,0.6c-0.1,0.6-0.3,1.1-0.5,1.8
		c0.3,0.1,0.8,0.4,1.1,0.3c0.9-0.2,1.7-0.6,2.6-1c0.4-0.2,0.8-0.4,1.2-0.6c1.3-0.5,2.6-1.1,3.8-1.6c0.6-0.3,1.2-0.5,1.8-0.8
		c1.2-0.5,2.5-0.7,3.6-1.4c1.7-1,3.6-1.4,5.5-2.1c2-0.8,4-1.2,6-1.9c2.4-0.8,4.8-1.6,7.3-2.3c2.1-0.6,4.2-1.1,6.3-1.8
		c0.7-0.2,1.2-0.2,1.7,0.4c0.7-0.3,1.4-0.6,2.1-0.9c0,0.3,0,0.5,0,0.6c1-0.3,2-0.6,3-1c0.9-0.3,1.8-0.4,2.6-0.8
		c1-0.5,2.1-0.5,3.1-0.6c0.2,0,0.3,0.1,0.5,0.1c0.2,0,0.4,0.2,0.6,0.1c0.8-0.1,1.5-0.4,2.3-0.5c0.8-0.2,1.6-0.2,2.4-0.4
		c1-0.2,1.3-0.4,2.1-1.1c-0.5,0-0.9-0.1-1.4-0.1c1.4-0.5,2.8-1.2,4.4-1l0,0c0.5-0.2,1-0.4,1.6-0.5c0.2,0,0.6,0.1,0.8,0.2
		c1,0.7,0.9,0.6,2,0c0.4-0.3,1-0.4,1.4-0.5c1.1-0.1,2.3-0.1,3.3-0.5c0.2-0.1,0.5-0.1,0.7-0.1c0.5-0.1,1-0.1,1.4-0.2
		c0.7-0.1,1.4-0.3,2.1-0.5c1-0.2,2.1-0.3,3.1-0.5c1.9-0.4,3.9-0.7,5.8-0.6c0.7,0,1-0.2,1.3-0.8c0.4,0.2,0.8,0.3,1.1,0.5
		c0.2-0.2,0.3-0.5,0.5-0.8c0.1,0.2,0.2,0.4,0.2,0.4c0.4-0.2,0.8-0.3,1.1-0.4c1.4-0.2,2.9-0.4,4.3-0.6c1.4-0.2,2.7-0.3,4.1-0.4
		c0.6-0.1,1.3-0.2,1.9-0.3C99.9,27.4,100.1,27.1,99.9,26.6z M52.8,26.7c0.1,0,0.1,0,0.2,0c-0.1,0.4-0.1,0.7-0.2,1.1
		C52.6,27.4,52.7,27.1,52.8,26.7z M51.9,24.9c0.2,0.2,0.3,0.4,0.5,0.6c-0.1,0.1-0.1,0.1-0.2,0.2c-0.2-0.2-0.4-0.4-0.5-0.6
		C51.7,25.1,51.8,25,51.9,24.9z M5.1,47.8c0,0-0.1-0.1-0.1-0.1c0.1-0.1,0.2-0.1,0.2-0.1c0,0.1,0.1,0.1,0.1,0.2
		C5.3,47.8,5.2,47.8,5.1,47.8z M6.5,47c-0.1-0.1-0.1-0.1-0.1-0.1c0.1,0,0.1-0.1,0.2-0.1c0,0,0.1,0.1,0.1,0.1C6.6,46.9,6.6,47,6.5,47
		z M42.1,18c0-0.1,0.2-0.2,0.3-0.2c0,0,0.1,0.1,0.1,0.1c-0.1,0.2-0.2,0.4-0.2,0.6c-0.1,0-0.1,0-0.2,0C42.1,18.3,42.1,18.2,42.1,18z
		 M29.1,28.3c0.1-0.1,0.4,0.1,0.6,0.1c0,0.1,0,0.2,0,0.3c-0.7,0.4-1.4,0.8-2.2,1.1c-0.4,0.2-0.7,0.1-1-0.4
		C27.2,28.8,28.2,28.7,29.1,28.3z M47.9,34.1c-0.1-0.2-0.1-0.3-0.1-0.3c0-0.1,0.1-0.2,0.2-0.2c0,0,0.2,0.1,0.2,0.2
		C48.2,33.9,48.1,34,47.9,34.1z M49.1,28.3c-0.4,0.5-0.8,0.9-1.4,1.2c-0.9,0.5-1.6,1.2-2.5,1.7c-0.8,0.5-1.6,0.9-2.4,1.4
		c-2.5,1.4-5.1,2.5-7.8,3.3c-1.4,0.4-2.8,0.9-4.3,1.3c-1.7,0.5-3.4,0.8-5.1,1.2c-0.4,0.1-0.8,0.2-1.2,0.2c-0.1-0.1-0.1-0.1-0.2-0.2
		c0.9-1.1,1.7-2.3,2.6-3.4c0.1-0.1,0.2-0.3,0.4-0.3c1.6-0.6,2.5-2,3.6-3.2c0.3-0.3,0.5-0.5,1-0.6c0.6-0.1,1.1-0.4,1.6-0.7
		c1-0.5,2.1-1,3.3-1.2c0.3-0.1,0.7-0.2,1-0.4c1.4-0.7,2.7-1.5,4.1-2.2c0.4-0.2,0.8-0.4,1.1-0.5c0.1,0,0.2-0.1,0.3-0.1
		c1,0.5,2.1-0.3,3.1,0c0.9,0.3,1.7,0.6,2.5,1C49.4,27.3,49.6,27.7,49.1,28.3z M48.2,24.4c0.1-0.1,0.1-0.2,0.2-0.2
		c0.1,0,0.2,0.1,0.3,0.1c-0.1,0.1-0.2,0.2-0.3,0.2C48.3,24.5,48.3,24.4,48.2,24.4z M48.7,19c0,0.2-0.1,0.5-0.1,0.8
		c-1.5,0.2-2.6,1.4-3.9,2c-0.2,0.1-0.4,0.2-0.6,0.3c-1.2,0.4-2.4,0.7-3.7,1c-0.4,0.1-0.9,0-1.6,0c0.6-0.7,1.1-1.3,1.5-1.9
		c0.2-0.2,0.3-0.5,0.4-0.7c0.2-0.4,0.4-0.7,0.6-1.1c0.2-0.5,0.5-0.3,0.9-0.1c0.8-1.4,1.7-2.8,2.5-4.1c0.5-0.7,0.9-1.4,1.8-1.7
		c0.5-0.2,0.9-0.8,1.4-1.3c1,0.2,2,0.3,3,0.6c1.3,0.3,1.7,2.2,0.8,3.1c-0.6,0.5-1.2,1-1.9,1.4C49.1,17.7,48.7,18.2,48.7,19z"/>
</g>
</svg>
