<?xml version="1.0" encoding="utf-8"?>
<!-- Generator: Adobe Illustrator 24.1.0, SVG Export Plug-In . SVG Version: 6.00 Build 0)  -->
<svg version="1.1" id="Layer_1" xmlns="http://www.w3.org/2000/svg" xmlns:xlink="http://www.w3.org/1999/xlink" x="0px" y="0px"
	 viewBox="0 0 100 100" style="enable-background:new 0 0 100 100;" xml:space="preserve">
<style type="text/css">
	.st0{fill:#FFFFFF;}
	.st1{fill:none;}
</style>
<g>
	<path class="st0" d="M50,69.1c-10.5,0-19.1-8.6-19.1-19.1S39.5,30.9,50,30.9S69.1,39.5,69.1,50S60.5,69.2,50,69.1z M50,34.7
		c-8.4,0-15.3,6.8-15.3,15.3S41.6,65.3,50,65.3S65.3,58.5,65.3,50C65.3,41.6,58.5,34.7,50,34.7z"/>
	<path class="st0" d="M50,27.8c-1.1,0-1.9-0.9-1.9-1.9V15.6c0-1.1,0.9-1.9,1.9-1.9c1.1,0,1.9,0.9,1.9,1.9v10.3
		C52,27,51.1,27.8,50,27.8z"/>
	<path class="st0" d="M49.9,86.3c-1.1,0-1.9-0.9-1.9-1.9V74.1c0-1.1,0.9-1.9,1.9-1.9s1.9,0.9,1.9,1.9v10.3
		C51.8,85.5,51,86.3,49.9,86.3z"/>
	<path class="st0" d="M25.9,51.9H15.6c-1.1,0-1.9-0.9-1.9-1.9c0-1.1,0.9-1.9,1.9-1.9h10.3c1.1,0,1.9,0.9,1.9,1.9S27,51.9,25.9,51.9z
		"/>
	<path class="st0" d="M84.4,52H74.1c-1.1,0-1.9-0.9-1.9-1.9s0.9-1.9,1.9-1.9h10.3c1.1,0,1.9,0.9,1.9,1.9S85.5,52,84.4,52z"/>
	<path class="st0" d="M67,35c-0.5,0-1-0.2-1.4-0.6c-0.7-0.7-0.7-2,0-2.7l7.4-7.4c0.7-0.7,2-0.7,2.7,0s0.7,2,0,2.7l-7.4,7.4
		C67.9,34.8,67.4,35,67,35z"/>
	<path class="st0" d="M25.6,76.2c-0.5,0-1-0.2-1.4-0.6c-0.7-0.7-0.7-2,0-2.7l7.4-7.4c0.7-0.7,2-0.7,2.7,0s0.7,2,0,2.7L27,75.6
		C26.6,76,26.1,76.2,25.6,76.2z"/>
	<path class="st0" d="M33.1,35c-0.5,0-1-0.2-1.4-0.6L24.4,27c-0.7-0.7-0.7-2,0-2.7s2-0.7,2.7,0l7.4,7.4c0.7,0.7,0.7,2,0,2.7
		C34.1,34.8,33.6,35,33.1,35z"/>
	<path class="st0" d="M74.3,76.3c-0.5,0-1-0.2-1.4-0.6l-7.4-7.4c-0.7-0.7-0.7-2,0-2.7s2-0.7,2.7,0l7.4,7.4c0.7,0.7,0.7,2,0,2.7
		C75.3,76.1,74.8,76.3,74.3,76.3z"/>
</g>
<rect class="st1" width="100" height="100"/>
</svg>
