<?xml version="1.0" encoding="utf-8"?>
<!-- Generator: Adobe Illustrator 24.1.0, SVG Export Plug-In . SVG Version: 6.00 Build 0)  -->
<svg version="1.1" id="Layer_1" xmlns="http://www.w3.org/2000/svg" xmlns:xlink="http://www.w3.org/1999/xlink" x="0px" y="0px"
	 viewBox="0 0 100 100" style="enable-background:new 0 0 100 100;" xml:space="preserve">
<style type="text/css">
	.st0{fill:#FFFFFF;}
	.st1{fill:none;}
</style>
<path class="st0" d="M27,71.9c-7.4-0.1-13.3-6.1-13.3-13.4c0-6.4,4.4-11.7,10.4-13C24,45,24,44.4,24,43.9c0-5,4.1-9.1,9.1-9.1
	c1.7,0,3.3,0.5,4.7,1.3c3.8-5,9.7-8,16.2-8c10.1,0,18.5,7.4,20,17.2c7,0.5,12.5,6.3,12.5,13.4c0,7.3-6,13.3-13.3,13.4L27,71.9z
	 M33,38.6c-2.9,0-5.3,2.4-5.3,5.3c0,0.8,0.2,1.6,0.6,2.4c0.3,0.6,0.3,1.3-0.1,1.8c-0.3,0.6-0.9,0.9-1.6,0.9
	c-5.1,0.2-9.2,4.4-9.2,9.5c0,5.2,4.3,9.5,9.5,9.6l46,0.1c5.2,0,9.5-4.3,9.5-9.5c0-5.3-4.3-9.6-9.5-9.6c-0.2,0-0.4,0-0.7,0
	c-0.5,0-1-0.1-1.4-0.5c-0.4-0.3-0.6-0.8-0.6-1.3c-0.5-8.6-7.7-15.4-16.4-15.4c-5.8,0-11.1,2.9-14.1,7.9c-0.3,0.5-0.8,0.8-1.4,0.9
	c-0.6,0.1-1.2-0.1-1.6-0.6C35.8,39.1,34.5,38.6,33,38.6z"/>
<rect class="st1" width="100" height="100"/>
</svg>
