<?xml version="1.0" encoding="utf-8"?>
<!-- Generator: Adobe Illustrator 24.1.0, SVG Export Plug-In . SVG Version: 6.00 Build 0)  -->
<svg version="1.1" id="Layer_1" xmlns="http://www.w3.org/2000/svg" xmlns:xlink="http://www.w3.org/1999/xlink" x="0px" y="0px"
	 viewBox="0 0 100 100" style="enable-background:new 0 0 100 100;" xml:space="preserve">
<style type="text/css">
	.st0{fill:none;}
	.st1{fill:#FFFFFF;}
</style>
<rect class="st0" width="100" height="100"/>
<g>
	<path class="st1" d="M73,61.8h-2l0,0l-44-0.1c-7.3,0-13.3-6-13.3-13.4c0-6.4,4.4-11.7,10.4-13C24,34.8,24,34.2,24,33.7
		c0-5,4.1-9.1,9.1-9.1c1.7,0,3.3,0.5,4.7,1.3c3.8-5,9.7-8,16.2-8c10.1,0,18.5,7.4,20,17.2c7,0.5,12.5,6.3,12.5,13.4
		C86.3,55.7,80.4,61.7,73,61.8L73,61.8z M71,57.9h2c5.2,0,9.5-4.3,9.5-9.5c0-5.3-4.3-9.6-9.5-9.6c-0.2,0-0.5,0-0.7,0
		c-0.5,0-1-0.1-1.4-0.5c-0.4-0.3-0.6-0.8-0.6-1.3c-0.5-8.6-7.7-15.4-16.4-15.4c-5.8,0-11.1,2.9-14.1,7.9c-0.3,0.5-0.8,0.8-1.4,0.9
		c-0.6,0.1-1.2-0.1-1.6-0.6c-1-1-2.3-1.6-3.7-1.6c-2.9,0-5.3,2.4-5.3,5.3c0,0.8,0.2,1.6,0.6,2.4c0.3,0.6,0.3,1.3-0.1,1.8
		c-0.3,0.6-0.9,0.9-1.6,0.9c-5.1,0.2-9.2,4.4-9.2,9.5c0,5.3,4.2,9.5,9.5,9.6h2L71,57.9z"/>
	<path class="st1" d="M43.2,82.1c-0.5,0-1-0.2-1.4-0.6c-0.7-0.7-0.7-2,0-2.7l4.8-4.8c0.7-0.7,2-0.7,2.7,0s0.7,2,0,2.7l-4.8,4.8
		C44.2,82,43.7,82.1,43.2,82.1z"/>
	<path class="st1" d="M26.6,71.2c-0.5,0-1-0.2-1.4-0.6c-0.7-0.7-0.7-2,0-2.7l3-3c0.7-0.7,2-0.7,2.7,0s0.7,2,0,2.7l-3,3
		C27.6,71,27.1,71.2,26.6,71.2z"/>
	<path class="st1" d="M53.2,71.3c-0.5,0-1-0.2-1.4-0.6c-0.7-0.7-0.7-2,0-2.7l3-3c0.7-0.7,2-0.7,2.7,0s0.7,2,0,2.7l-3,3
		C54.2,71.1,53.7,71.3,53.2,71.3z"/>
	<path class="st1" d="M61.8,76.1c-0.5,0-1-0.2-1.4-0.6c-0.7-0.7-0.7-2,0-2.7l7.8-7.8c0.7-0.7,2-0.7,2.7,0s0.7,2,0,2.7l-7.8,7.8
		C62.8,75.9,62.3,76.1,61.8,76.1z"/>
	<path class="st1" d="M32.9,78.1c-0.5,0-1-0.2-1.4-0.6c-0.7-0.7-0.7-2,0-2.7l10-9.9c0.7-0.7,2-0.7,2.7,0s0.7,2,0,2.7l-10,9.9
		C33.9,78,33.4,78.1,32.9,78.1z"/>
</g>
</svg>
