<?xml version="1.0" encoding="utf-8"?>
<!-- Generator: Adobe Illustrator 24.1.0, SVG Export Plug-In . SVG Version: 6.00 Build 0)  -->
<svg version="1.1" id="Layer_1" xmlns="http://www.w3.org/2000/svg" xmlns:xlink="http://www.w3.org/1999/xlink" x="0px" y="0px"
	 viewBox="0 0 100 100" style="enable-background:new 0 0 100 100;" xml:space="preserve">
<style type="text/css">
	.st0{fill:#FFFFFF;}
	.st1{fill:none;}
</style>
<g>
	<path class="st0" d="M73,63.8h-2l0,0H27c-7.3,0-13.3-6-13.3-13.4c0-6.4,4.4-11.7,10.4-13C24,36.9,24,36.3,24,35.8
		c0-5,4.1-9.1,9.1-9.1c1.7,0,3.3,0.4,4.7,1.3c3.8-5.1,9.7-8,16.1-8c10.1,0,18.5,7.4,20,17.2c7,0.5,12.5,6.3,12.5,13.3
		C86.3,57.8,80.4,63.8,73,63.8C73.1,63.8,73.1,63.8,73,63.8z M71,60h2c5.2-0.1,9.5-4.3,9.5-9.5c0-5.3-4.3-9.6-9.6-9.6
		c-0.2,0-0.5,0-0.7,0c-0.5,0-1-0.1-1.4-0.5c-0.4-0.3-0.6-0.8-0.6-1.3c-0.6-8.6-7.8-15.4-16.4-15.4c-5.8,0-11.1,3-14.1,7.9
		c-0.3,0.5-0.8,0.8-1.4,0.9c-0.6,0.1-1.2-0.1-1.6-0.6c-1-1-2.3-1.6-3.7-1.6c-2.9,0-5.3,2.4-5.3,5.3c0,0.8,0.2,1.6,0.6,2.4
		c0.3,0.6,0.3,1.3-0.1,1.8c-0.3,0.6-0.9,0.9-1.6,0.9c-5.1,0.2-9.2,4.4-9.2,9.5c0,5.3,4.3,9.5,9.5,9.5h2L71,60z"/>
	<path class="st0" d="M68.7,80.1L68.7,80.1H57.9c-1.1,0-1.9-0.9-1.9-1.9c0-1.1,0.9-1.9,1.9-1.9l0,0h10.8c1.1,0,1.9,0.9,1.9,1.9
		S69.7,80.1,68.7,80.1z"/>
	<path class="st0" d="M50.4,80.1L50.4,80.1h-19c-1.1,0-1.9-0.9-1.9-1.9c0-1.1,0.9-1.9,1.9-1.9l0,0h19c1.1,0,1.9,0.9,1.9,1.9
		C52.3,79.2,51.5,80.1,50.4,80.1z"/>
	<path class="st0" d="M73.1,72L73.1,72H48.3c-1.1,0-1.9-0.9-1.9-1.9c0-1.1,0.9-1.9,1.9-1.9l0,0h24.8c1.1,0,1.9,0.9,1.9,1.9
		C75,71.2,74.2,72,73.1,72z"/>
	<path class="st0" d="M41.2,72L41.2,72H27.5c-1.1,0-1.9-0.9-1.9-1.9c0-1.1,0.9-1.9,1.9-1.9l0,0h13.7c1.1,0,1.9,0.9,1.9,1.9
		C43.1,71.2,42.2,72,41.2,72z"/>
</g>
<rect class="st1" width="100" height="100"/>
</svg>
