<?xml version="1.0" encoding="utf-8"?>
<!-- Generator: Adobe Illustrator 21.0.2, SVG Export Plug-In . SVG Version: 6.00 Build 0)  -->
<svg version="1.1" id="Layer_1" xmlns="http://www.w3.org/2000/svg" xmlns:xlink="http://www.w3.org/1999/xlink" x="0px" y="0px"
	 viewBox="0 0 104.1 100" style="enable-background:new 0 0 104.1 100;" xml:space="preserve">
<g fill="#fff">
	<path d="M103.8,61.3c-1-2.6-3.9-4-6.5-3L55.4,73.9c-2.4-2.2-5.6-3.6-9-3.9L22.1,3.3C21.6,2,20.7,1,19.5,0.4
		c-1.2-0.6-2.6-0.6-3.9-0.1L3.3,4.9c-2.6,1-4,3.9-3,6.5c1,2.6,3.9,4,6.5,3l7.5-2.8l22.3,61.2c-5.3,3.8-7.8,10.8-5.3,17.4
		c2.8,7.6,11.4,11.7,19.3,8.8c6.8-2.6,10.5-9.4,9.6-16.1l40.6-15.1C103.4,66.8,104.8,63.9,103.8,61.3z M47,89.5
		c-2.6,1-5.3-0.4-6.2-2.8c-0.9-2.5,0.3-5.3,2.8-6.2c2.6-1,5.3,0.4,6.2,2.8C50.8,85.8,49.5,88.6,47,89.5z"/>
	<path d="M51.6,60.2c1.1,3,4.4,4.5,7.4,3.4l36.1-13.5c3-1.1,4.5-4.4,3.4-7.4L86.7,11.1c-1.1-3-4.4-4.5-7.4-3.4L43.2,21.2
		c-3,1.1-4.5,4.4-3.4,7.4L51.6,60.2z"/>
</g>
</svg>
