<svg width="217" height="840" viewBox="0 0 217 840" fill="none" xmlns="http://www.w3.org/2000/svg">
<g clip-path="url(#clip0_387_13461)">
<path d="M-0.451666 2.70323e-05L217 4.60425e-05L217 92.3305C217 108.551 214.77 122.173 210.311 133.189C205.852 144.286 199.552 152.637 191.411 158.251C183.271 163.932 173.68 166.772 162.637 166.772C154.639 166.772 147.347 165.044 140.764 161.575C134.182 158.178 128.66 153.399 124.201 147.228C119.812 141.058 116.768 133.848 115.069 125.598L112.946 125.598C112.592 134.748 110.221 143.07 105.833 150.558C101.514 158.039 95.5328 164.005 87.8883 168.44C80.3139 172.876 71.3949 175.094 61.1311 175.094C49.2393 175.094 38.657 172.042 29.3844 165.944C20.1111 159.913 12.8208 151.32 7.51134 140.157C2.20266 128.995 -0.451676 115.687 -0.451675 100.236L-0.451666 2.70323e-05ZM46.6911 57.8109L46.6911 84.8425C46.6911 94.5484 48.5314 101.824 52.2128 106.677C55.9637 111.53 61.4854 113.96 68.7764 113.96C73.8728 113.96 78.1903 112.811 81.7297 110.527C85.2691 108.236 87.9593 104.979 89.7996 100.755C91.6399 96.5905 92.5601 91.5692 92.5601 85.6769L92.5601 57.8109L46.6911 57.8109ZM129.085 57.8109L129.085 81.5194C129.085 86.5772 129.899 91.0496 131.528 94.929C133.156 98.8084 135.491 101.824 138.535 103.976C141.649 106.194 145.436 107.299 149.896 107.299C156.62 107.299 161.752 104.942 165.292 100.236C168.902 95.5218 170.707 89.5563 170.707 82.3464L170.707 57.8109L129.085 57.8109ZM-0.451683 196.409L162.637 196.409L162.637 252.134L131.634 252.134L131.634 253.803C143.1 256.708 151.489 261.32 156.797 267.629C162.106 274.005 164.761 281.456 164.761 289.984C164.761 292.48 164.548 294.939 164.124 297.362C163.77 299.858 163.239 302.251 162.531 304.535L112.521 304.535C113.512 301.695 114.255 298.196 114.751 294.039C115.246 289.881 115.495 286.309 115.495 283.33C115.495 277.716 114.185 272.651 111.566 268.149C109.018 263.713 105.407 260.214 100.735 257.645C96.1346 255.083 90.7198 253.803 84.4902 253.803L-0.451688 253.803L-0.451683 196.409ZM-2.9999 360.421C-2.9999 350.232 -1.30084 341.221 2.09651 333.389C5.56487 325.63 10.8033 319.526 17.811 315.09C24.8187 310.654 33.7378 308.436 44.5674 308.436C53.4865 308.436 61.096 309.93 67.3958 312.909C73.7667 315.888 78.9692 320.046 83.0042 325.389C87.0384 330.725 90.118 336.925 92.2416 343.996C94.3653 351.132 95.7451 358.832 96.382 367.082C97.0899 376.019 97.9398 383.192 98.9309 388.602C99.9924 394.077 101.443 398.029 103.284 400.452C105.195 402.882 107.708 404.09 110.823 404.09L111.247 404.09C115.495 404.09 118.751 402.502 121.016 399.31C123.28 396.119 124.413 392.035 124.413 387.043C124.413 381.567 123.174 377.095 120.697 373.626C118.29 370.229 114.574 368.187 109.548 367.492L109.548 314.673C119.459 315.368 128.59 318.457 136.942 323.932C145.366 329.473 152.09 337.547 157.116 348.153C162.213 358.759 164.761 372.001 164.761 387.87C164.761 399.31 163.38 409.565 160.62 418.649C157.93 427.733 154.143 435.455 149.259 441.838C144.446 448.213 138.783 453.066 132.271 456.389C125.829 459.786 118.821 461.484 111.247 461.484L-0.451706 461.484L-0.451702 407.838L22.4828 407.838L22.4828 406.586C16.3952 403.402 11.4753 399.515 7.72435 394.94C3.97269 390.439 1.24735 385.271 -0.451699 379.452C-2.15075 373.699 -2.9999 367.353 -2.9999 360.421ZM33.9501 379.137C33.9501 383.507 34.8702 387.599 36.7105 391.405C38.5509 395.292 41.2052 398.447 44.6736 400.869C48.1419 403.292 52.354 404.507 57.3092 404.507L70.9 404.507C70.2624 402.985 69.6607 401.353 69.0948 399.625C68.5283 397.956 67.9975 396.156 67.5019 394.216C67.0064 392.342 66.5466 390.336 66.1221 388.184C65.6967 386.106 65.308 383.924 64.9537 381.633C64.2459 377.198 63.0783 373.56 61.4502 370.72C59.8925 367.945 57.946 365.867 55.6101 364.476C53.3452 363.158 50.797 362.507 47.9655 362.507C43.435 362.507 39.9666 364.066 37.5597 367.184C35.1535 370.302 33.9501 374.284 33.9501 379.137ZM70.9 592.462L162.637 592.462L162.637 649.856L-0.451723 649.856L-0.451718 595.375L30.552 595.375L30.552 593.714C20.1469 590.244 12.0067 584.183 6.13142 575.517C0.327159 566.85 -2.57534 556.559 -2.57533 544.635C-2.57533 533.48 0.0438856 523.701 5.28155 515.32C10.52 506.997 17.74 500.519 26.9423 495.871C36.1439 491.297 46.691 488.976 58.5829 488.91L162.637 488.91L162.637 546.304L70.9 546.304C62.8301 546.37 56.4951 548.383 51.8936 552.328C47.2928 556.354 44.992 561.968 44.992 569.178C44.992 573.958 46.019 578.079 48.0717 581.548C50.1953 585.084 53.168 587.785 56.9907 589.658C60.8836 591.598 65.5203 592.535 70.9 592.462ZM91.2856 736.44L-0.45173 736.44L-0.451725 679.046L162.637 679.046L162.637 733.527L131.634 733.527L131.634 735.196C141.968 738.658 150.073 744.762 155.948 753.495C161.823 762.293 164.761 772.555 164.761 784.267C164.761 795.568 162.106 805.377 156.797 813.692C151.559 822.08 144.339 828.558 135.137 833.133C125.935 837.781 115.424 840.064 103.603 839.999L-0.451739 839.999L-0.451734 782.605L91.2856 782.605C99.3555 782.671 105.69 780.665 110.291 776.574C114.893 772.555 117.193 766.941 117.193 759.731C117.193 755.017 116.131 750.896 114.008 747.361C111.955 743.891 108.982 741.227 105.089 739.353C101.267 737.479 96.6653 736.513 91.2856 736.44Z" fill="#CFD8DC"/>
</g>
<defs>
<clipPath id="clip0_387_13461">
<rect width="217" height="840" fill="white"/>
</clipPath>
</defs>
</svg>
