<?xml version="1.0" encoding="utf-8"?>
<!-- Generator: Adobe Illustrator 26.0.3, SVG Export Plug-In . SVG Version: 6.00 Build 0)  -->
<svg version="1.1" id="Layer_1" xmlns="http://www.w3.org/2000/svg" xmlns:xlink="http://www.w3.org/1999/xlink" x="0px" y="0px"
	 viewBox="0 0 300 60" style="enable-background:new 0 0 300 60;" xml:space="preserve">
<style type="text/css">
	.st0{fill:#F51057;}
	.st1{fill:#36474F;}
</style>
<path class="st0" d="M26,0L0,15v30l26,15l26-15V15L26,0z M45,40.9L27.1,51.2V30.7L45,20.4V40.9z M7,20.4l17.8,10.3v20.6L7,40.9V20.4
	z M26,28.6L8.2,18.4L26,8.1l17.8,10.3L26,28.6z"/>
<g>
	<path class="st1" d="M78.3,40.7c-1.8-0.4-3.2-0.9-4.3-1.6l2.4-5.9c1,0.6,2.2,1.1,3.5,1.4c1.3,0.3,2.7,0.5,3.9,0.5
		c1,0,1.7-0.1,2.1-0.3c0.4-0.2,0.6-0.4,0.6-0.8c0-0.3-0.3-0.6-0.8-0.7c-0.5-0.1-1.3-0.3-2.5-0.4c-1.7-0.2-3.2-0.5-4.4-0.8
		c-1.2-0.3-2.3-1-3.2-1.9c-0.9-1-1.4-2.3-1.4-4.1c0-1.4,0.4-2.7,1.2-3.8c0.8-1.1,2.1-2,3.7-2.7c1.6-0.7,3.6-1,5.9-1
		c1.6,0,3.2,0.2,4.7,0.5c1.5,0.3,2.9,0.8,3.9,1.3l-2.4,5.9c-1.9-1.1-3.9-1.6-6.1-1.6c-1.9,0-2.9,0.3-2.9,1c0,0.3,0.3,0.6,0.8,0.7
		c0.5,0.1,1.3,0.3,2.4,0.4c1.7,0.2,3.2,0.5,4.4,0.8c1.2,0.3,2.3,1,3.2,2c0.9,1,1.4,2.3,1.4,4.1c0,1.4-0.4,2.6-1.2,3.7
		c-0.8,1.1-2.1,2-3.7,2.7c-1.7,0.7-3.7,1-6,1C81.9,41.3,80.1,41.1,78.3,40.7z"/>
	<path class="st1" d="M102.3,39.9c-1.9-1-3.4-2.3-4.5-4c-1.1-1.7-1.6-3.7-1.6-5.9c0-2.2,0.5-4.1,1.6-5.8c1.1-1.7,2.6-3,4.5-4
		c1.9-1,4.1-1.4,6.5-1.4c2.6,0,4.8,0.6,6.6,1.7c1.8,1.1,3.1,2.7,3.8,4.7l-6.8,3.4c-0.8-1.9-2.1-2.9-3.7-2.9c-1,0-1.9,0.4-2.6,1.1
		c-0.7,0.7-1,1.8-1,3.1c0,1.4,0.3,2.4,1,3.2c0.7,0.7,1.5,1.1,2.6,1.1c1.6,0,2.9-1,3.7-2.9l6.8,3.4c-0.7,2-2,3.6-3.8,4.7
		c-1.8,1.1-4.1,1.7-6.6,1.7C106.4,41.3,104.2,40.8,102.3,39.9z"/>
	<path class="st1" d="M143.6,32.1h-14.8c0.3,0.8,0.8,1.5,1.6,1.9c0.7,0.4,1.6,0.7,2.7,0.7c0.9,0,1.7-0.1,2.4-0.4
		c0.6-0.2,1.3-0.7,2.1-1.2l4.6,4.7c-2.1,2.3-5.2,3.5-9.3,3.5c-2.6,0-4.8-0.5-6.8-1.5c-1.9-1-3.4-2.3-4.5-4c-1.1-1.7-1.6-3.7-1.6-5.8
		c0-2.2,0.5-4.1,1.6-5.8c1-1.7,2.5-3,4.3-4c1.8-1,3.9-1.4,6.2-1.4c2.2,0,4.1,0.4,5.9,1.3c1.8,0.9,3.2,2.2,4.2,3.9
		c1,1.7,1.6,3.7,1.6,6.1C143.7,30.1,143.7,30.8,143.6,32.1z M129.8,25.6c-0.6,0.5-1,1.2-1.2,2.2h6.8c-0.2-0.9-0.6-1.6-1.2-2.1
		c-0.6-0.5-1.3-0.8-2.3-0.8C131.2,24.9,130.4,25.1,129.8,25.6z"/>
	<path class="st1" d="M167.5,21.2c1.6,1.6,2.4,4.1,2.4,7.3v12.4h-8.8V30c0-2.5-0.9-3.7-2.6-3.7c-1,0-1.8,0.4-2.4,1.1
		c-0.6,0.7-0.9,1.8-0.9,3.3v10.2h-8.8V19.1h8.4v2.2c0.8-0.8,1.8-1.5,2.9-1.9c1.1-0.4,2.3-0.6,3.5-0.6
		C163.8,18.7,165.9,19.5,167.5,21.2z"/>
	<path class="st1" d="M196.6,32.1h-14.8c0.3,0.8,0.8,1.5,1.6,1.9c0.7,0.4,1.6,0.7,2.7,0.7c0.9,0,1.7-0.1,2.4-0.4
		c0.6-0.2,1.3-0.7,2.1-1.2l4.6,4.7c-2.1,2.3-5.2,3.5-9.3,3.5c-2.6,0-4.8-0.5-6.8-1.5c-1.9-1-3.4-2.3-4.5-4c-1.1-1.7-1.6-3.7-1.6-5.8
		c0-2.2,0.5-4.1,1.6-5.8c1-1.7,2.5-3,4.3-4c1.8-1,3.9-1.4,6.2-1.4c2.2,0,4.1,0.4,5.9,1.3c1.8,0.9,3.2,2.2,4.2,3.9
		c1,1.7,1.6,3.7,1.6,6.1C196.8,30.1,196.7,30.8,196.6,32.1z M182.9,25.6c-0.6,0.5-1,1.2-1.2,2.2h6.8c-0.2-0.9-0.6-1.6-1.2-2.1
		s-1.3-0.8-2.3-0.8C184.2,24.9,183.5,25.1,182.9,25.6z"/>
	<path class="st1" d="M217.2,21.1c1.6,0.9,2.8,2.1,3.7,3.8c0.9,1.6,1.3,3.5,1.3,5.5c0,2.1-0.4,4-1.3,5.6c-0.9,1.6-2.1,2.9-3.6,3.8
		c-1.5,0.9-3.3,1.3-5.2,1.3c-1.7,0-3.2-0.4-4.5-1.1c-1.3-0.7-2.4-1.7-3.3-3.1v11.7h-2.8V20h2.6v4.1c0.8-1.4,1.9-2.4,3.3-3.2
		c1.4-0.7,2.9-1.1,4.6-1.1C213.9,19.8,215.6,20.2,217.2,21.1z M215.6,37.6c1.2-0.7,2.1-1.6,2.7-2.9c0.7-1.2,1-2.7,1-4.3
		c0-1.6-0.3-3-1-4.2c-0.7-1.2-1.6-2.2-2.7-2.9c-1.2-0.7-2.5-1-3.9-1c-1.5,0-2.8,0.3-3.9,1c-1.2,0.7-2.1,1.7-2.7,2.9
		c-0.7,1.2-1,2.6-1,4.2c0,1.6,0.3,3,1,4.3c0.7,1.2,1.6,2.2,2.7,2.9c1.2,0.7,2.5,1,3.9,1C213.2,38.6,214.5,38.3,215.6,37.6z"/>
	<path class="st1" d="M227.7,14.8c-0.4-0.4-0.6-0.9-0.6-1.4c0-0.5,0.2-1,0.6-1.4c0.4-0.4,0.9-0.6,1.4-0.6c0.6,0,1,0.2,1.4,0.6
		c0.4,0.4,0.6,0.8,0.6,1.4c0,0.6-0.2,1.1-0.6,1.5c-0.4,0.4-0.9,0.6-1.4,0.6C228.6,15.4,228.1,15.2,227.7,14.8z M227.8,20h2.8v21
		h-2.8V20z"/>
	<path class="st1" d="M241.3,39.8c-1.6-0.9-2.8-2.2-3.8-3.8c-0.9-1.6-1.4-3.5-1.4-5.5c0-2,0.5-3.9,1.4-5.5c0.9-1.6,2.2-2.9,3.8-3.8
		c1.6-0.9,3.4-1.4,5.4-1.4c1.8,0,3.3,0.4,4.7,1.1c1.4,0.7,2.5,1.7,3.3,3.1l-2.1,1.4c-0.7-1-1.5-1.8-2.6-2.3c-1-0.5-2.2-0.8-3.4-0.8
		c-1.5,0-2.8,0.3-4,1c-1.2,0.7-2.1,1.6-2.8,2.9c-0.7,1.2-1,2.7-1,4.3c0,1.6,0.3,3,1,4.3c0.7,1.2,1.6,2.2,2.8,2.9c1.2,0.7,2.5,1,4,1
		c1.2,0,2.3-0.3,3.4-0.8c1-0.5,1.9-1.3,2.6-2.3l2.1,1.4c-0.8,1.4-1.9,2.4-3.3,3.1c-1.4,0.7-3,1.1-4.7,1.1
		C244.7,41.1,242.9,40.7,241.3,39.8z"/>
	<path class="st1" d="M267.4,30.4l-4.8,4.5v6h-2.8V11.4h2.8v20L274.8,20h3.4l-8.7,8.6l9.6,12.4h-3.4L267.4,30.4z"/>
</g>
</svg>
