<svg width="32" height="32" viewBox="0 0 32 32" fill="none" xmlns="http://www.w3.org/2000/svg">
<path d="M22.838 10.8286C22.6761 10.417 22.4871 10.1269 22.1835 9.8233C21.8799 9.51294 21.5831 9.32403 21.1783 9.16886C20.8679 9.04742 20.4024 8.90573 19.5523 8.86525C18.628 8.82477 18.3514 8.81128 16.0102 8.81128C13.6691 8.81128 13.3925 8.81803 12.4682 8.86525C11.6113 8.90573 11.1458 9.04742 10.8422 9.16886C10.4306 9.33078 10.1405 9.51969 9.83018 9.8233C9.52657 10.1336 9.33092 10.4238 9.17574 10.8286C9.0543 11.1389 8.91262 11.6044 8.87214 12.4545C8.83165 13.3789 8.81816 13.6555 8.81816 15.9966C8.81816 18.3377 8.82491 18.6144 8.87214 19.5387C8.91262 20.3955 9.0543 20.861 9.17574 21.1646C9.33766 21.5762 9.52657 21.8663 9.83018 22.1767C10.1405 22.4803 10.4306 22.6759 10.8422 22.8311C11.1525 22.9525 11.6181 23.0942 12.4682 23.1347C13.3925 23.1752 13.6691 23.1887 16.0102 23.1887C18.3514 23.1887 18.628 23.1819 19.5523 23.1347C20.4091 23.0942 20.8747 22.9525 21.1783 22.8311C21.5898 22.6692 21.8799 22.4803 22.1835 22.1767C22.4939 21.8663 22.6828 21.5762 22.838 21.1646C22.9594 20.8543 23.1011 20.3888 23.1416 19.5387C23.1821 18.6144 23.1956 18.3377 23.1956 15.9966C23.1956 13.6555 23.1888 13.3789 23.1416 12.4545C23.1011 11.5977 22.9594 11.1322 22.838 10.8286ZM15.9967 20.5102C13.5072 20.5102 11.4899 18.4929 11.4899 16.0034C11.4899 13.5138 13.5072 11.4965 15.9967 11.4965C18.4863 11.4965 20.5036 13.5138 20.5036 16.0034C20.5036 18.4929 18.4863 20.5102 15.9967 20.5102ZM20.679 12.3736C20.0988 12.3736 19.6265 11.9013 19.6265 11.3211C19.6265 10.7409 20.0988 10.2686 20.679 10.2686C21.2592 10.2686 21.7315 10.7409 21.7315 11.3211C21.7315 11.9013 21.2592 12.3736 20.679 12.3736Z" fill="#2D2F30"/>
<path d="M15.9966 13.0753C14.3841 13.0753 13.0752 14.3842 13.0752 15.9967C13.0752 17.6092 14.3841 18.918 15.9966 18.918C17.609 18.918 18.9179 17.6092 18.9179 15.9967C18.9179 14.3842 17.609 13.0753 15.9966 13.0753Z" fill="#2D2F30"/>
<path d="M0 0V32H32V0H0ZM24.7202 19.6129C24.6797 20.544 24.5313 21.1849 24.3154 21.7449C24.0928 22.3184 23.7892 22.8109 23.3034 23.2966C22.8176 23.7824 22.3251 24.086 21.7516 24.3087C21.1917 24.5246 20.5575 24.673 19.6196 24.7135C18.6818 24.754 18.385 24.7674 16.0034 24.7674C13.6218 24.7674 13.3249 24.7607 12.3871 24.7135C11.456 24.673 10.8151 24.5246 10.2551 24.3087C9.67489 24.086 9.18912 23.7824 8.70335 23.2966C8.21758 22.8109 7.91398 22.3184 7.69133 21.7449C7.47544 21.1849 7.32701 20.5507 7.28653 19.6129C7.24605 18.6751 7.23255 18.3782 7.23255 15.9966C7.23255 13.615 7.2393 13.3182 7.28653 12.3804C7.32701 11.4493 7.47544 10.8083 7.69133 10.2484C7.91398 9.67489 8.21758 9.18237 8.70335 8.69661C9.18912 8.21084 9.68164 7.90723 10.2551 7.68459C10.8151 7.46869 11.4493 7.32026 12.3871 7.27978C13.3249 7.2393 13.6218 7.22581 16.0034 7.22581C18.385 7.22581 18.6818 7.2393 19.6196 7.27978C20.5507 7.32026 21.1917 7.46869 21.7516 7.68459C22.3319 7.90723 22.8176 8.21084 23.3034 8.69661C23.7892 9.18237 24.0928 9.67489 24.3154 10.2484C24.5313 10.8083 24.6797 11.4425 24.7202 12.3804C24.7607 13.3182 24.7742 13.615 24.7742 15.9966C24.7742 18.3782 24.7674 18.6751 24.7202 19.6129Z" fill="#2D2F30"/>
</svg>
