<svg width="32" height="32" viewBox="0 0 32 32" fill="none" xmlns="http://www.w3.org/2000/svg">
<path d="M0 0V32H32V0H0ZM12.0565 23.128H8.74383V12.4343H12.0565V23.128ZM10.3833 11.031C9.30382 11.031 8.42673 10.1472 8.42673 9.05418C8.42673 7.96121 9.30382 7.07738 10.3833 7.07738C11.4628 7.07738 12.3399 7.96121 12.3399 9.05418C12.3399 10.1472 11.4628 11.031 10.3833 11.031ZM24.4638 23.128H21.1714V17.5147C21.1714 15.9764 20.5844 15.1128 19.37 15.1128C18.0476 15.1128 17.3527 16.0101 17.3527 17.5147V23.128H14.175V12.4343H17.3527V13.8781C17.3527 13.8781 18.304 12.1105 20.5777 12.1105C22.8514 12.1105 24.4706 13.4936 24.4706 16.361V23.1347L24.4638 23.128Z" fill="#2D2F30"/>
</svg>
