<svg width="240" height="120" viewBox="0 0 240 120" fill="none" xmlns="http://www.w3.org/2000/svg">
<path fill-rule="evenodd" clip-rule="evenodd" d="M239.733 61.9351C237.96 62.2335 236.229 62.4641 234.665 61.4333C234.596 61.3926 234.484 61.3654 234.428 61.3926C232.599 62.22 230.91 61.2027 229.165 61.0263C228.76 60.9856 228.342 60.9992 227.937 61.0263C224.712 61.1755 221.487 61.3247 218.263 61.5011C215.122 61.6774 211.967 61.7859 208.854 62.1521C204.68 62.6404 200.534 63.3729 196.36 63.9561C192.674 64.4716 188.947 64.8378 185.289 65.4753C180.473 66.3027 175.699 67.2793 170.925 68.2831C168.51 68.7849 166.164 69.653 163.735 70.1006C157.565 71.2536 151.367 72.2573 145.197 73.356C142.433 73.8443 139.696 74.5767 136.904 74.8751C133.512 75.2278 130.232 75.8517 127.063 77.1132C124.857 77.9949 122.484 78.1848 120.013 77.71C120.153 77.3709 120.18 77.1132 120.334 76.964C122.665 74.5767 124.997 72.1624 127.384 69.8158C129.701 67.537 130.636 64.7293 130.427 61.6638C130.329 60.2939 129.799 58.7205 128.905 57.6896C126.714 55.1803 124.271 52.8201 120.781 51.9656C120.488 51.8978 120.25 51.6536 119.971 51.4909C120.055 51.1653 120.041 50.8669 120.18 50.7313C122.498 48.656 124.829 46.6078 127.16 44.5597C128.193 43.6509 129.213 42.7285 130.246 41.8333C130.609 41.5213 131.013 40.9652 131.362 40.9788C133.079 41.0873 133.596 39.9344 134.224 38.7543C134.559 38.1304 135.118 37.6149 135.634 37.0995C136.444 36.2992 137.379 35.5939 138.133 34.7394C139.696 32.9625 141.26 31.1585 141.832 28.7848C142.391 26.4382 141.344 24.6342 138.998 23.9153C138.203 23.6712 137.407 23.4813 136.611 23.2371C135.522 22.898 134.475 22.681 133.917 23.7119C131.907 22.6132 130.12 21.3789 128.152 20.6464C126.113 19.8868 123.88 19.602 121.521 19.0594C121.828 18.4897 122.037 17.9879 122.344 17.5538C124.313 14.7732 126.295 11.9926 128.305 9.22554C129.059 8.18111 129.548 7.04174 129.185 5.82098C128.696 4.22043 128.975 2.80978 129.743 1.39913C129.911 1.08716 129.841 0.653109 129.883 0.273318C128.459 -0.459137 127.677 0.422521 127.091 1.24992C124.536 4.81725 122.037 8.42526 119.538 12.0333C118.017 14.2306 116.635 16.5365 114.96 18.6118C114.136 19.6427 112.866 20.4836 111.637 21.0398C110.004 21.7858 108.203 22.1927 106.458 22.7081C104.155 23.3728 101.837 23.9967 99.5339 24.6478C96.6581 23.2236 95.4017 26.2483 93.2519 26.8451C91.1859 27.4148 89.1756 28.188 87.2073 29.0154C82.5028 30.9821 78.0077 33.3016 74.3503 36.9232C73.3172 37.954 72.0608 38.7814 70.958 39.758C70.2321 40.4091 69.5341 41.1009 68.9617 41.8876C68.7105 42.2402 68.8221 42.837 68.7384 43.6373C69.5481 43.2982 70.0785 43.2304 70.3857 42.932C72.1725 41.2094 74.2805 40.0022 76.5559 38.9578C78.1892 38.2117 79.641 37.0452 81.3023 36.4077C82.7122 35.8787 84.1082 35.5939 85.0156 34.2239C85.2808 33.817 86.1463 33.6407 86.7606 33.6C88.4776 33.4915 89.9853 33.0303 91.2836 31.8367C91.6465 31.4976 92.2887 31.4026 92.8331 31.2941C94.0337 31.05 95.4576 31.1856 96.4068 30.6024C98.3193 29.4087 100.483 29.3138 102.535 28.7576C102.996 28.6356 103.526 28.6084 104.001 28.6898C104.922 28.839 105.271 29.5172 104.769 30.2904C104.238 31.1042 103.568 31.8367 102.926 32.5691C101.391 34.3596 99.7153 36.0415 98.3194 37.9269C94.1733 43.4881 89.4688 48.561 84.527 53.4441C83.1869 54.7733 81.6652 55.9263 80.4507 57.3369C79.3758 58.5848 78.0217 59.3308 76.528 59.7784C73.2055 60.7822 69.7714 61.4468 66.5188 62.6133C61.3955 64.4445 56.3699 66.5469 51.3304 68.6086C50.7022 68.8663 50.0601 69.4767 49.7948 70.0735C48.9293 71.986 47.9521 73.7765 45.565 75.0515C48.357 75.4448 50.6324 75.689 52.88 76.123C55.1694 76.5706 57.2215 74.536 59.7762 75.4991C58.9944 77.1539 57.6403 77.8185 56.3281 78.4018C53.6478 79.5954 51.5119 81.4944 49.2644 83.2441C48.3709 83.9359 47.7427 84.9396 46.9052 85.7128C44.8112 87.666 42.5776 89.47 40.5674 91.5046C38.5013 93.607 36.2398 95.4517 33.8806 97.2014C33.4199 97.5405 32.9592 98.0288 32.4288 98.0967C29.6368 98.5036 27.5289 100.226 25.1696 101.474C22.1403 103.075 18.9435 104.323 15.9701 106.099C12.6616 108.08 9.24143 109.843 6.25402 112.298C5.41643 112.99 4.5928 114.197 3.29453 113.763C1.71706 113.22 1.39599 114.061 1.10283 115.174C0.767793 116.462 0.404836 117.737 0 119.284C0.781753 119.501 1.81478 120.165 2.6105 119.962C4.74636 119.406 6.79846 118.51 8.86452 117.669C9.84171 117.276 10.7351 116.639 11.7123 116.218C14.7556 114.943 17.8268 113.736 20.8979 112.488C22.3497 111.905 23.7876 111.267 25.2534 110.725C28.1152 109.667 31.1863 109.002 33.8387 107.564C37.9988 105.313 42.5776 104.255 46.947 102.627C51.6515 100.877 56.6212 99.765 61.4513 98.3001C67.2726 96.5368 73.052 94.6107 78.8872 92.8881C83.8709 91.4096 88.9523 90.2431 93.922 88.7104C95.6391 88.1814 96.9094 88.2628 98.0681 89.5378C99.7572 88.846 101.321 88.195 103.038 87.4761C103.024 88.1543 103.01 88.6426 102.996 88.9138C105.495 88.1543 107.882 87.4082 110.283 86.6894C112.335 86.079 114.513 85.7399 116.425 84.8718C118.854 83.7595 121.395 83.6917 123.936 83.3933C124.313 83.3526 124.703 83.529 125.094 83.5968C125.611 83.6917 126.155 83.9494 126.63 83.868C128.487 83.5425 130.329 83.0542 132.186 82.7151C134.14 82.3624 136.123 82.1997 138.063 81.8063C140.492 81.318 141.19 80.9111 143.033 79.3512C141.86 79.2699 140.771 79.1885 139.668 79.1071C143.117 77.8456 146.453 76.4214 150.18 76.8284L150.096 76.869C151.339 76.4757 152.567 75.9874 153.838 75.7432C154.396 75.6347 155.164 75.8789 155.666 76.218C157.998 77.7643 157.928 77.71 160.385 76.2722C161.404 75.6754 162.674 75.2414 163.847 75.1871C166.569 75.065 169.249 74.943 171.804 73.9392C172.321 73.7358 172.921 73.7629 173.493 73.6951C174.624 73.5594 175.783 73.4781 176.899 73.2746C178.603 72.9626 180.278 72.515 181.981 72.2166C184.494 71.769 187.02 71.4706 189.533 71.0094C194.168 70.1549 198.83 69.3817 203.563 69.5988C205.126 69.6666 206.048 69.1647 206.704 67.6591C207.695 68.0525 208.546 68.4051 209.384 68.7442C209.747 68.2288 210.152 67.6727 210.654 66.9673C210.934 67.537 211.101 67.8761 211.171 67.9982C212.232 67.6455 213.042 67.2251 213.907 67.103C217.341 66.5876 220.775 66.1128 224.223 65.7059C227.504 65.3261 230.799 65.082 234.093 64.7293C235.643 64.5665 237.206 64.3224 238.742 64.0375C239.775 63.8341 240.291 63.2373 239.831 62.0165L239.733 61.9351ZM69.6877 66.0179C70.0227 65.8822 70.5671 66.1806 71.0138 66.2891C71.0557 66.4926 71.0836 66.6961 71.1255 66.8995C69.3945 67.7676 67.6774 68.6764 65.9045 69.4631C65.0251 69.8565 64.1037 69.6801 63.4057 68.5136C65.3182 67.2251 67.6356 66.886 69.7016 66.0314L69.6877 66.0179ZM117.654 66.0043C116.704 67.1301 115.741 68.0389 114.331 68.7442C112.223 69.8158 110.45 71.4841 108.454 72.7727C106.612 73.9528 104.657 74.9701 102.759 76.0688C96.8815 79.4462 90.6414 81.9827 84.0524 83.746C80.6182 84.6683 77.2818 85.9298 73.8477 86.825C69.7714 87.8966 65.6253 88.7375 61.5072 89.6599C60.5579 89.8769 59.6086 90.0397 58.6594 90.2431C58.5337 90.1075 58.4081 89.9718 58.2824 89.8362C60.3764 87.1912 62.4704 84.5327 64.5783 81.8877C64.8296 81.5757 65.1786 81.2773 65.5416 81.1417C69.3945 79.7175 71.5583 76.4486 74.1129 73.6408C74.797 72.8948 75.4252 72.3794 76.514 72.1488C77.8681 71.8639 79.1385 71.1722 80.3949 70.5618C82.9077 69.341 85.4623 68.2695 88.2822 67.8626C89.0779 67.7405 89.8597 67.3607 90.5856 66.9945C93.8801 65.299 97.1328 63.5357 100.413 61.8266C101.293 61.3654 102.214 61.0128 103.122 60.6058C103.345 60.5109 103.638 60.2667 103.792 60.3346C106.276 61.4604 108.803 59.6835 111.218 60.3753C113.256 60.9585 115.295 61.7724 117.123 62.8168C118.477 63.5899 118.91 64.553 117.654 66.0179V66.0043ZM116.76 44.3291C116.76 44.8716 116.607 45.4278 116.509 46.1195C112.824 46.7028 110.255 49.3071 107.1 50.8534C106.653 51.0704 106.235 51.3688 105.76 51.5044C102.828 52.3318 99.8968 53.1999 96.9373 53.9052C95.8764 54.1494 94.7037 53.9731 93.1402 53.9866C94.5921 52.2776 95.7507 50.9483 96.8536 49.5783C97.2444 49.09 97.4818 48.4661 97.7889 47.91C98.2635 47.069 98.794 46.2552 99.1988 45.3871C99.7153 44.3155 100.483 44.6817 101.46 45.0751C103.485 41.8469 105.467 38.6187 107.533 35.4176C108.622 33.7356 109.571 32.0537 111.86 31.3619C113.117 30.9821 114.01 29.4901 115.141 28.4457C117.5 28.8797 119.943 29.246 122.344 29.8156C125.401 30.5481 126.532 34.9293 124.201 36.9774C122.791 38.2117 121.269 39.4054 119.594 40.2463C117.765 41.1687 116.746 42.3487 116.746 44.3426L116.76 44.3291Z" fill="#2D2F30"/>
</svg>
