{
    "asset" : {
        "generator" : "Khronos glTF Blender I/O v1.0.5",
        "version" : "2.0"
    },
    "scene" : 0,
    "scenes" : [
        {
            "name" : "Scene",
            "nodes" : [
                0,
                1,
                2
            ]
        }
    ],
    "nodes" : [
        {
            "mesh" : 0,
            "name" : "part_02",
            "rotation" : [
                -0.7071067690849304,
                0,
                0,
                0.7071067690849304
            ],
            "translation" : [
                0,
                6,
                -2.25
            ]
        },
        {
            "mesh" : 1,
            "name" : "part_01",
            "rotation" : [
                -0.7071067690849304,
                0,
                0,
                0.7071067690849304
            ],
            "translation" : [
                0,
                1.5,
                -2.25
            ]
        },
        {
            "mesh" : 2,
            "name" : "plane"
        }
    ],
    "animations" : [
        {
            "channels" : [
                {
                    "sampler" : 0,
                    "target" : {
                        "node" : 0,
                        "path" : "weights"
                    }
                }
            ],
            "name" : "KeyAction",
            "samplers" : [
                {
                    "input" : 14,
                    "interpolation" : "LINEAR",
                    "output" : 15
                }
            ]
        }
    ],
    "meshes" : [
        {
            "extras" : {
                "targetNames" : [
                    "Q"
                ]
            },
            "name" : "Cylinder.001",
            "primitives" : [
                {
                    "attributes" : {
                        "POSITION" : 0,
                        "NORMAL" : 1,
                        "TEXCOORD_0" : 2
                    },
                    "indices" : 3,
                    "targets" : [
                        {
                            "POSITION" : 4,
                            "NORMAL" : 5
                        }
                    ]
                }
            ],
            "weights" : [
                0
            ]
        },
        {
            "name" : "Cube.003",
            "primitives" : [
                {
                    "attributes" : {
                        "POSITION" : 6,
                        "NORMAL" : 7,
                        "TEXCOORD_0" : 8
                    },
                    "indices" : 9
                }
            ]
        },
        {
            "name" : "Plane",
            "primitives" : [
                {
                    "attributes" : {
                        "POSITION" : 10,
                        "NORMAL" : 11,
                        "TEXCOORD_0" : 12
                    },
                    "indices" : 13
                }
            ]
        }
    ],
    "accessors" : [
        {
            "bufferView" : 0,
            "componentType" : 5126,
            "count" : 372,
            "max" : [
                2,
                0.5,
                2
            ],
            "min" : [
                -2,
                -0.5,
                -3
            ],
            "type" : "VEC3"
        },
        {
            "bufferView" : 1,
            "componentType" : 5126,
            "count" : 372,
            "type" : "VEC3"
        },
        {
            "bufferView" : 2,
            "componentType" : 5126,
            "count" : 372,
            "type" : "VEC2"
        },
        {
            "bufferView" : 3,
            "componentType" : 5123,
            "count" : 660,
            "type" : "SCALAR"
        },
        {
            "bufferView" : 4,
            "componentType" : 5126,
            "count" : 372,
            "max" : [
                1.4999995231628418,
                0,
                2.000000476837158
            ],
            "min" : [
                -2.500000476837158,
                0,
                -1.6999757289886475
            ],
            "type" : "VEC3"
        },
        {
            "bufferView" : 5,
            "componentType" : 5126,
            "count" : 372,
            "type" : "VEC3"
        },
        {
            "bufferView" : 6,
            "componentType" : 5126,
            "count" : 24,
            "max" : [
                0.5,
                0.5,
                0.5
            ],
            "min" : [
                -0.5,
                -0.5,
                -0.5
            ],
            "type" : "VEC3"
        },
        {
            "bufferView" : 7,
            "componentType" : 5126,
            "count" : 24,
            "type" : "VEC3"
        },
        {
            "bufferView" : 8,
            "componentType" : 5126,
            "count" : 24,
            "type" : "VEC2"
        },
        {
            "bufferView" : 9,
            "componentType" : 5123,
            "count" : 36,
            "type" : "SCALAR"
        },
        {
            "bufferView" : 10,
            "componentType" : 5126,
            "count" : 4,
            "max" : [
                20,
                0,
                20
            ],
            "min" : [
                -20,
                0,
                -20
            ],
            "type" : "VEC3"
        },
        {
            "bufferView" : 11,
            "componentType" : 5126,
            "count" : 4,
            "type" : "VEC3"
        },
        {
            "bufferView" : 12,
            "componentType" : 5126,
            "count" : 4,
            "type" : "VEC2"
        },
        {
            "bufferView" : 13,
            "componentType" : 5123,
            "count" : 6,
            "type" : "SCALAR"
        },
        {
            "bufferView" : 14,
            "componentType" : 5126,
            "count" : 121,
            "max" : [
                4
            ],
            "min" : [
                0
            ],
            "type" : "SCALAR"
        },
        {
            "bufferView" : 15,
            "componentType" : 5126,
            "count" : 121,
            "type" : "SCALAR"
        }
    ],
    "bufferViews" : [
        {
            "buffer" : 0,
            "byteLength" : 4464,
            "byteOffset" : 0
        },
        {
            "buffer" : 0,
            "byteLength" : 4464,
            "byteOffset" : 4464
        },
        {
            "buffer" : 0,
            "byteLength" : 2976,
            "byteOffset" : 8928
        },
        {
            "buffer" : 0,
            "byteLength" : 1320,
            "byteOffset" : 11904
        },
        {
            "buffer" : 0,
            "byteLength" : 4464,
            "byteOffset" : 13224
        },
        {
            "buffer" : 0,
            "byteLength" : 4464,
            "byteOffset" : 17688
        },
        {
            "buffer" : 0,
            "byteLength" : 288,
            "byteOffset" : 22152
        },
        {
            "buffer" : 0,
            "byteLength" : 288,
            "byteOffset" : 22440
        },
        {
            "buffer" : 0,
            "byteLength" : 192,
            "byteOffset" : 22728
        },
        {
            "buffer" : 0,
            "byteLength" : 72,
            "byteOffset" : 22920
        },
        {
            "buffer" : 0,
            "byteLength" : 48,
            "byteOffset" : 22992
        },
        {
            "buffer" : 0,
            "byteLength" : 48,
            "byteOffset" : 23040
        },
        {
            "buffer" : 0,
            "byteLength" : 32,
            "byteOffset" : 23088
        },
        {
            "buffer" : 0,
            "byteLength" : 12,
            "byteOffset" : 23120
        },
        {
            "buffer" : 0,
            "byteLength" : 484,
            "byteOffset" : 23132
        },
        {
            "buffer" : 0,
            "byteLength" : 484,
            "byteOffset" : 23616
        }
    ],
    "buffers" : [
        {
            "byteLength" : 24100,
            "uri" : "data:application/octet-stream;base64,"
        }
    ]
}
