{
    "asset" : {
        "generator" : "Khronos glTF Blender I/O v1.0.5",
        "version" : "2.0"
    },
    "scene" : 0,
    "scenes" : [
        {
            "name" : "Scene",
            "nodes" : [
                0,
                1
            ]
        }
    ],
    "nodes" : [
        {
            "mesh" : 0,
            "name" : "part_01"
        },
        {
            "mesh" : 1,
            "name" : "part_02",
            "scale" : [
                4.017000198364258,
                4.017000198364258,
                4.017000198364258
            ]
        }
    ],
    "animations" : [
        {
            "channels" : [
                {
                    "sampler" : 0,
                    "target" : {
                        "node" : 1,
                        "path" : "translation"
                    }
                },
                {
                    "sampler" : 1,
                    "target" : {
                        "node" : 1,
                        "path" : "rotation"
                    }
                },
                {
                    "sampler" : 2,
                    "target" : {
                        "node" : 1,
                        "path" : "scale"
                    }
                }
            ],
            "name" : "Part_02Action",
            "samplers" : [
                {
                    "input" : 8,
                    "interpolation" : "LINEAR",
                    "output" : 9
                },
                {
                    "input" : 8,
                    "interpolation" : "LINEAR",
                    "output" : 10
                },
                {
                    "input" : 8,
                    "interpolation" : "LINEAR",
                    "output" : 11
                }
            ]
        }
    ],
    "meshes" : [
        {
            "name" : "Sphere.001",
            "primitives" : [
                {
                    "attributes" : {
                        "POSITION" : 0,
                        "NORMAL" : 1,
                        "TEXCOORD_0" : 2
                    },
                    "indices" : 3
                }
            ]
        },
        {
            "name" : "Sphere.005",
            "primitives" : [
                {
                    "attributes" : {
                        "POSITION" : 4,
                        "NORMAL" : 5,
                        "TEXCOORD_0" : 6
                    },
                    "indices" : 7
                }
            ]
        }
    ],
    "accessors" : [
        {
            "bufferView" : 0,
            "componentType" : 5126,
            "count" : 22480,
            "max" : [
                3.982513904571533,
                3.6706135272979736,
                3.9132204055786133
            ],
            "min" : [
                -4.018334865570068,
                -3.52669095993042,
                -3.974489212036133
            ],
            "type" : "VEC3"
        },
        {
            "bufferView" : 1,
            "componentType" : 5126,
            "count" : 22480,
            "type" : "VEC3"
        },
        {
            "bufferView" : 2,
            "componentType" : 5126,
            "count" : 22480,
            "type" : "VEC2"
        },
        {
            "bufferView" : 3,
            "componentType" : 5123,
            "count" : 73311,
            "type" : "SCALAR"
        },
        {
            "bufferView" : 4,
            "componentType" : 5126,
            "count" : 8383,
            "max" : [
                0.9999982714653015,
                1,
                0.9999966621398926
            ],
            "min" : [
                -0.9999975562095642,
                -1,
                -1
            ],
            "type" : "VEC3"
        },
        {
            "bufferView" : 5,
            "componentType" : 5126,
            "count" : 8383,
            "type" : "VEC3"
        },
        {
            "bufferView" : 6,
            "componentType" : 5126,
            "count" : 8383,
            "type" : "VEC2"
        },
        {
            "bufferView" : 7,
            "componentType" : 5123,
            "count" : 48384,
            "type" : "SCALAR"
        },
        {
            "bufferView" : 8,
            "componentType" : 5126,
            "count" : 121,
            "max" : [
                4
            ],
            "min" : [
                0
            ],
            "type" : "SCALAR"
        },
        {
            "bufferView" : 9,
            "componentType" : 5126,
            "count" : 121,
            "type" : "VEC3"
        },
        {
            "bufferView" : 10,
            "componentType" : 5126,
            "count" : 121,
            "type" : "VEC4"
        },
        {
            "bufferView" : 11,
            "componentType" : 5126,
            "count" : 121,
            "type" : "VEC3"
        }
    ],
    "bufferViews" : [
        {
            "buffer" : 0,
            "byteLength" : 269760,
            "byteOffset" : 0
        },
        {
            "buffer" : 0,
            "byteLength" : 269760,
            "byteOffset" : 269760
        },
        {
            "buffer" : 0,
            "byteLength" : 179840,
            "byteOffset" : 539520
        },
        {
            "buffer" : 0,
            "byteLength" : 146622,
            "byteOffset" : 719360
        },
        {
            "buffer" : 0,
            "byteLength" : 100596,
            "byteOffset" : 865984
        },
        {
            "buffer" : 0,
            "byteLength" : 100596,
            "byteOffset" : 966580
        },
        {
            "buffer" : 0,
            "byteLength" : 67064,
            "byteOffset" : 1067176
        },
        {
            "buffer" : 0,
            "byteLength" : 96768,
            "byteOffset" : 1134240
        },
        {
            "buffer" : 0,
            "byteLength" : 484,
            "byteOffset" : 1231008
        },
        {
            "buffer" : 0,
            "byteLength" : 1452,
            "byteOffset" : 1231492
        },
        {
            "buffer" : 0,
            "byteLength" : 1936,
            "byteOffset" : 1232944
        },
        {
            "buffer" : 0,
            "byteLength" : 1452,
            "byteOffset" : 1234880
        }
    ],
    "buffers" : [
        {
            "byteLength" : 1236332,
            "uri" : "data:application/octet-stream;base64,"
        }
    ]
}
