{
    "asset" : {
        "generator" : "Khronos glTF Blender I/O v1.0.5",
        "version" : "2.0"
    },
    "scene" : 0,
    "scenes" : [
        {
            "name" : "Scene",
            "nodes" : [
                0,
                3,
                4
            ]
        }
    ],
    "nodes" : [
        {
            "mesh" : 0,
            "name" : "part_01",
            "translation" : [
                0,
                0.0761999785900116,
                0
            ]
        },
        {
            "mesh" : 1,
            "name" : "part_04",
            "translation" : [
                1.295087456703186,
                -0.12966544926166534,
                -1.1399388313293457e-05
            ]
        },
        {
            "children" : [
                1
            ],
            "mesh" : 2,
            "name" : "part_03",
            "translation" : [
                0,
                0.16800814867019653,
                0
            ]
        },
        {
            "children" : [
                2
            ],
            "mesh" : 3,
            "name" : "part_02",
            "translation" : [
                -1.295087456703186,
                0.037857286632061005,
                1.1399388313293457e-05
            ]
        },
        {
            "mesh" : 4,
            "name" : "plane"
        }
    ],
    "animations" : [
        {
            "channels" : [
                {
                    "sampler" : 0,
                    "target" : {
                        "node" : 3,
                        "path" : "rotation"
                    }
                },
                {
                    "sampler" : 1,
                    "target" : {
                        "node" : 2,
                        "path" : "rotation"
                    }
                }
            ],
            "name" : "Animation",
            "samplers" : [
                {
                    "input" : 20,
                    "interpolation" : "LINEAR",
                    "output" : 21
                },
                {
                    "input" : 20,
                    "interpolation" : "LINEAR",
                    "output" : 22
                }
            ]
        }
    ],
    "meshes" : [
        {
            "name" : "Cube.001",
            "primitives" : [
                {
                    "attributes" : {
                        "POSITION" : 0,
                        "NORMAL" : 1,
                        "TEXCOORD_0" : 2
                    },
                    "indices" : 3
                }
            ]
        },
        {
            "name" : "Cube.003",
            "primitives" : [
                {
                    "attributes" : {
                        "POSITION" : 4,
                        "NORMAL" : 5,
                        "TEXCOORD_0" : 6
                    },
                    "indices" : 7
                }
            ]
        },
        {
            "name" : "Cube.000",
            "primitives" : [
                {
                    "attributes" : {
                        "POSITION" : 8,
                        "NORMAL" : 9,
                        "TEXCOORD_0" : 10
                    },
                    "indices" : 11
                }
            ]
        },
        {
            "name" : "Cube.002",
            "primitives" : [
                {
                    "attributes" : {
                        "POSITION" : 12,
                        "NORMAL" : 13,
                        "TEXCOORD_0" : 14
                    },
                    "indices" : 15
                }
            ]
        },
        {
            "name" : "Plane.001",
            "primitives" : [
                {
                    "attributes" : {
                        "POSITION" : 16,
                        "NORMAL" : 17,
                        "TEXCOORD_0" : 18
                    },
                    "indices" : 19
                }
            ]
        }
    ],
    "accessors" : [
        {
            "bufferView" : 0,
            "componentType" : 5126,
            "count" : 4905,
            "max" : [
                1.3334999084472656,
                0.09448802471160889,
                1.9050002098083496
            ],
            "min" : [
                -1.3335001468658447,
                -0.0761999785900116,
                -1.9049997329711914
            ],
            "type" : "VEC3"
        },
        {
            "bufferView" : 1,
            "componentType" : 5126,
            "count" : 4905,
            "type" : "VEC3"
        },
        {
            "bufferView" : 2,
            "componentType" : 5126,
            "count" : 4905,
            "type" : "VEC2"
        },
        {
            "bufferView" : 3,
            "componentType" : 5123,
            "count" : 8814,
            "type" : "SCALAR"
        },
        {
            "bufferView" : 4,
            "componentType" : 5126,
            "count" : 4,
            "max" : [
                1.256994366645813,
                0.09171159565448761,
                1.8226927518844604
            ],
            "min" : [
                -1.1048543453216553,
                0.09171159565448761,
                -1.8138370513916016
            ],
            "type" : "VEC3"
        },
        {
            "bufferView" : 5,
            "componentType" : 5126,
            "count" : 4,
            "type" : "VEC3"
        },
        {
            "bufferView" : 6,
            "componentType" : 5126,
            "count" : 4,
            "type" : "VEC2"
        },
        {
            "bufferView" : 7,
            "componentType" : 5123,
            "count" : 6,
            "type" : "SCALAR"
        },
        {
            "bufferView" : 8,
            "componentType" : 5126,
            "count" : 3310,
            "max" : [
                2.628587245941162,
                0.03824612498283386,
                1.9049888849258423
            ],
            "min" : [
                -0.03841269016265869,
                -0.05319385230541229,
                -1.9050110578536987
            ],
            "type" : "VEC3"
        },
        {
            "bufferView" : 9,
            "componentType" : 5126,
            "count" : 3310,
            "type" : "VEC3"
        },
        {
            "bufferView" : 10,
            "componentType" : 5126,
            "count" : 3310,
            "type" : "VEC2"
        },
        {
            "bufferView" : 11,
            "componentType" : 5123,
            "count" : 5256,
            "type" : "SCALAR"
        },
        {
            "bufferView" : 12,
            "componentType" : 5126,
            "count" : 432,
            "max" : [
                0.038347721099853516,
                0.20610478520393372,
                1.6328459978103638
            ],
            "min" : [
                -0.03834700584411621,
                -0.03779058903455734,
                -1.6328468322753906
            ],
            "type" : "VEC3"
        },
        {
            "bufferView" : 13,
            "componentType" : 5126,
            "count" : 432,
            "type" : "VEC3"
        },
        {
            "bufferView" : 14,
            "componentType" : 5126,
            "count" : 432,
            "type" : "VEC2"
        },
        {
            "bufferView" : 15,
            "componentType" : 5123,
            "count" : 840,
            "type" : "SCALAR"
        },
        {
            "bufferView" : 16,
            "componentType" : 5126,
            "count" : 4,
            "max" : [
                6.0960001945495605,
                0,
                6.0960001945495605
            ],
            "min" : [
                -6.0960001945495605,
                0,
                -6.0960001945495605
            ],
            "type" : "VEC3"
        },
        {
            "bufferView" : 17,
            "componentType" : 5126,
            "count" : 4,
            "type" : "VEC3"
        },
        {
            "bufferView" : 18,
            "componentType" : 5126,
            "count" : 4,
            "type" : "VEC2"
        },
        {
            "bufferView" : 19,
            "componentType" : 5123,
            "count" : 6,
            "type" : "SCALAR"
        },
        {
            "bufferView" : 20,
            "componentType" : 5126,
            "count" : 2,
            "max" : [
                4
            ],
            "min" : [
                0
            ],
            "type" : "SCALAR"
        },
        {
            "bufferView" : 21,
            "componentType" : 5126,
            "count" : 2,
            "type" : "VEC4"
        },
        {
            "bufferView" : 22,
            "componentType" : 5126,
            "count" : 2,
            "type" : "VEC4"
        }
    ],
    "bufferViews" : [
        {
            "buffer" : 0,
            "byteLength" : 58860,
            "byteOffset" : 0
        },
        {
            "buffer" : 0,
            "byteLength" : 58860,
            "byteOffset" : 58860
        },
        {
            "buffer" : 0,
            "byteLength" : 39240,
            "byteOffset" : 117720
        },
        {
            "buffer" : 0,
            "byteLength" : 17628,
            "byteOffset" : 156960
        },
        {
            "buffer" : 0,
            "byteLength" : 48,
            "byteOffset" : 174588
        },
        {
            "buffer" : 0,
            "byteLength" : 48,
            "byteOffset" : 174636
        },
        {
            "buffer" : 0,
            "byteLength" : 32,
            "byteOffset" : 174684
        },
        {
            "buffer" : 0,
            "byteLength" : 12,
            "byteOffset" : 174716
        },
        {
            "buffer" : 0,
            "byteLength" : 39720,
            "byteOffset" : 174728
        },
        {
            "buffer" : 0,
            "byteLength" : 39720,
            "byteOffset" : 214448
        },
        {
            "buffer" : 0,
            "byteLength" : 26480,
            "byteOffset" : 254168
        },
        {
            "buffer" : 0,
            "byteLength" : 10512,
            "byteOffset" : 280648
        },
        {
            "buffer" : 0,
            "byteLength" : 5184,
            "byteOffset" : 291160
        },
        {
            "buffer" : 0,
            "byteLength" : 5184,
            "byteOffset" : 296344
        },
        {
            "buffer" : 0,
            "byteLength" : 3456,
            "byteOffset" : 301528
        },
        {
            "buffer" : 0,
            "byteLength" : 1680,
            "byteOffset" : 304984
        },
        {
            "buffer" : 0,
            "byteLength" : 48,
            "byteOffset" : 306664
        },
        {
            "buffer" : 0,
            "byteLength" : 48,
            "byteOffset" : 306712
        },
        {
            "buffer" : 0,
            "byteLength" : 32,
            "byteOffset" : 306760
        },
        {
            "buffer" : 0,
            "byteLength" : 12,
            "byteOffset" : 306792
        },
        {
            "buffer" : 0,
            "byteLength" : 8,
            "byteOffset" : 306804
        },
        {
            "buffer" : 0,
            "byteLength" : 32,
            "byteOffset" : 306812
        },
        {
            "buffer" : 0,
            "byteLength" : 32,
            "byteOffset" : 306844
        }
    ],
    "buffers" : [
        {
            "byteLength" : 306876,
            "uri" : "data:application/octet-stream;base64,"
        }
    ]
}
