{
    "asset" : {
        "generator" : "Khronos glTF Blender I/O v1.0.5",
        "version" : "2.0"
    },
    "scene" : 0,
    "scenes" : [
        {
            "name" : "Scene",
            "nodes" : [
                0,
                1
            ]
        }
    ],
    "nodes" : [
        {
            "mesh" : 0,
            "name" : "part_01",
            "scale" : [
                2.6634223461151123,
                2.6634223461151123,
                2.6634223461151123
            ]
        },
        {
            "mesh" : 1,
            "name" : "part_02",
            "scale" : [
                1.8928495645523071,
                1.8928495645523071,
                1.8928495645523071
            ]
        }
    ],
    "animations" : [
        {
            "channels" : [
                {
                    "sampler" : 0,
                    "target" : {
                        "node" : 1,
                        "path" : "scale"
                    }
                }
            ],
            "name" : "Icosphere.002Action",
            "samplers" : [
                {
                    "input" : 8,
                    "interpolation" : "LINEAR",
                    "output" : 9
                }
            ]
        }
    ],
    "meshes" : [
        {
            "name" : "Icosphere.005",
            "primitives" : [
                {
                    "attributes" : {
                        "POSITION" : 0,
                        "NORMAL" : 1,
                        "TEXCOORD_0" : 2
                    },
                    "indices" : 3
                }
            ]
        },
        {
            "name" : "Icosphere.006",
            "primitives" : [
                {
                    "attributes" : {
                        "POSITION" : 4,
                        "NORMAL" : 5,
                        "TEXCOORD_0" : 6
                    },
                    "indices" : 7
                }
            ]
        }
    ],
    "accessors" : [
        {
            "bufferView" : 0,
            "componentType" : 5126,
            "count" : 49866,
            "max" : [
                1.4840372800827026,
                1.4814609289169312,
                1.461032509803772
            ],
            "min" : [
                -1.48403799533844,
                -1.4814609289169312,
                -1.4610326290130615
            ],
            "type" : "VEC3"
        },
        {
            "bufferView" : 1,
            "componentType" : 5126,
            "count" : 49866,
            "type" : "VEC3"
        },
        {
            "bufferView" : 2,
            "componentType" : 5126,
            "count" : 49866,
            "type" : "VEC2"
        },
        {
            "bufferView" : 3,
            "componentType" : 5123,
            "count" : 126720,
            "type" : "SCALAR"
        },
        {
            "bufferView" : 4,
            "componentType" : 5126,
            "count" : 15627,
            "max" : [
                0.9401986598968506,
                0.963300883769989,
                0.9601350426673889
            ],
            "min" : [
                -0.9401986598968506,
                -0.9633008241653442,
                -0.9601350426673889
            ],
            "type" : "VEC3"
        },
        {
            "bufferView" : 5,
            "componentType" : 5126,
            "count" : 15627,
            "type" : "VEC3"
        },
        {
            "bufferView" : 6,
            "componentType" : 5126,
            "count" : 15627,
            "type" : "VEC2"
        },
        {
            "bufferView" : 7,
            "componentType" : 5123,
            "count" : 46080,
            "type" : "SCALAR"
        },
        {
            "bufferView" : 8,
            "componentType" : 5126,
            "count" : 121,
            "max" : [
                5
            ],
            "min" : [
                0
            ],
            "type" : "SCALAR"
        },
        {
            "bufferView" : 9,
            "componentType" : 5126,
            "count" : 121,
            "type" : "VEC3"
        }
    ],
    "bufferViews" : [
        {
            "buffer" : 0,
            "byteLength" : 598392,
            "byteOffset" : 0
        },
        {
            "buffer" : 0,
            "byteLength" : 598392,
            "byteOffset" : 598392
        },
        {
            "buffer" : 0,
            "byteLength" : 398928,
            "byteOffset" : 1196784
        },
        {
            "buffer" : 0,
            "byteLength" : 253440,
            "byteOffset" : 1595712
        },
        {
            "buffer" : 0,
            "byteLength" : 187524,
            "byteOffset" : 1849152
        },
        {
            "buffer" : 0,
            "byteLength" : 187524,
            "byteOffset" : 2036676
        },
        {
            "buffer" : 0,
            "byteLength" : 125016,
            "byteOffset" : 2224200
        },
        {
            "buffer" : 0,
            "byteLength" : 92160,
            "byteOffset" : 2349216
        },
        {
            "buffer" : 0,
            "byteLength" : 484,
            "byteOffset" : 2441376
        },
        {
            "buffer" : 0,
            "byteLength" : 1452,
            "byteOffset" : 2441860
        }
    ],
    "buffers" : [
        {
            "byteLength" : 2443312,
            "uri" : "data:application/octet-stream;base64,"
        }
    ]
}
