<?xml version="1.0" encoding="utf-8"?>
<!-- Generator: Adobe Illustrator 21.0.2, SVG Export Plug-In . SVG Version: 6.00 Build 0)  -->
<svg version="1.1" id="Layer_1" xmlns="http://www.w3.org/2000/svg" xmlns:xlink="http://www.w3.org/1999/xlink" x="0px" y="0px"
	 viewBox="0 0 106.2 100" style="enable-background:new 0 0 106.2 100;" xml:space="preserve">
<g fill="#fff">
	<path d="M45.8,70.6L45.8,70.6H8.7c-0.9,0-1.6-0.7-1.6-1.6V8.7c0-0.9,0.7-1.6,1.6-1.6h88.9c0.9,0,1.6,0.7,1.6,1.6v13.5
		c2.6,0.3,5,1.2,7.1,2.6V8.7c0-4.8-3.9-8.7-8.7-8.7H8.7C3.9,0,0,3.9,0,8.7V69c0,4.8,3.9,8.7,8.7,8.7h29.8v11.6h-4.7
		c-2.9,0-5.3,2.4-5.3,5.3c0,2.9,2.4,5.3,5.3,5.3h15c-1.9-2.6-3-5.8-3-9.3V70.6z"/>
	<path d="M75.6,87.2H60V38.1c0-1,0.8-1.9,1.9-1.9h35.4c1,0,1.9,0.8,1.9,1.9v15.8h2.7c1.6,0,3.1,0.5,4.5,1.2V38.1c0-5-4-9-9-9H61.9
		c-5,0-9,4-9,9V91c0,5,4,9,9,9h15.4c-1-1.4-1.6-3.4-1.6-5.1V87.2z"/>
	<path d="M101.8,58.4H84.5c-2.5,0-4.5,2-4.5,4.5v32.7c0,2.5,2,4.5,4.5,4.5h17.3c2.5,0,4.5-2,4.5-4.5V62.8
		C106.3,60.4,104.3,58.4,101.8,58.4z M100.9,92H85.4V63.7h15.5V92z"/>
</g>
</svg>
