<svg xmlns="http://www.w3.org/2000/svg" width="140" height="140" viewBox="0 0 140 140">
  <g id="Group_53" data-name="Group 53" transform="translate(-360 591)">
    <circle id="Ellipse_5" data-name="Ellipse 5" cx="70" cy="70" r="70" transform="translate(360 -591)" fill="#fff"/>
    <path id="Path_35" data-name="Path 35" d="M349.455,165.4a29.646,29.646,0,0,0-2.507-8.914,30.333,30.333,0,0,0-8.229-10.644,29.8,29.8,0,0,0-16.7-6.763,30.672,30.672,0,0,0-7.235.252,29.855,29.855,0,0,0-11.077,4.108c-.72.446-1.735,1.2-2.569,1.834a2.525,2.525,0,0,1-3.01.045,42.971,42.971,0,0,0-5.523-3.5,30.027,30.027,0,0,0-16.383-2.629,30.092,30.092,0,0,0-16.718,7.57,33.385,33.385,0,0,0-4.456,5.1,30.09,30.09,0,0,0-4.908,11.665,20.963,20.963,0,0,0-.446,5.275v.129a26.711,26.711,0,0,0,.112,3.1,28.849,28.849,0,0,0,1,5.264,30.152,30.152,0,0,0,4.353,8.948,29.526,29.526,0,0,0,3.8,4.466,35.927,35.927,0,0,0,2.848,2.375,29.213,29.213,0,0,0,4.494,2.765,29.808,29.808,0,0,0,6.657,2.363,26.339,26.339,0,0,0,4.583.7,33.386,33.386,0,0,0,6.577-.256,30.583,30.583,0,0,0,9.813-3.192,29.431,29.431,0,0,0,4.2-2.707,2.5,2.5,0,0,1,3.05-.009,30.394,30.394,0,0,0,5.93,3.558,29.571,29.571,0,0,0,10.685,2.614q.976.053,1.908.053a27.8,27.8,0,0,0,5.184-.465,29.872,29.872,0,0,0,6.47-1.921,30.729,30.729,0,0,0,12.556-10,30.174,30.174,0,0,0,3.344-5.879,29.844,29.844,0,0,0,2.191-15.31Zm-72.029-3.186a6.82,6.82,0,0,0-4.718,5.615,7.127,7.127,0,0,0,9.221,7.958,2.526,2.526,0,0,1,2.508.666l6.548,6.473a2.523,2.523,0,0,1-.46,3.953,20.863,20.863,0,0,1-31.632-17.169,20.053,20.053,0,0,1,5.236-14.541,21.2,21.2,0,0,1,15.548-7.052c.175,0,.349,0,.521.008a20.538,20.538,0,0,1,12.816,4.7c1.432,1.173,21.126,20.917,21.943,21.62a7.165,7.165,0,1,0,2.391-12.286,2.44,2.44,0,0,1-2.44-.645l-6.545-6.51a2.516,2.516,0,0,1,.459-3.941,20.775,20.775,0,0,1,4.49-1.987,20.5,20.5,0,0,1,4.317-.843,21.2,21.2,0,0,1,14.376,4,20.352,20.352,0,0,1,7.209,9.616,20.927,20.927,0,0,1-29.343,25.6,23,23,0,0,1-5.833-4.445c-3-3.018-17.391-17.344-19.282-19.192A6.979,6.979,0,0,0,277.426,162.218Z" transform="translate(130.331 -689.979)" fill="#f51057"/>
  </g>
</svg>
