<?xml version="1.0" encoding="utf-8"?>
<!-- Generator: Adobe Illustrator 24.0.1, SVG Export Plug-In . SVG Version: 6.00 Build 0)  -->
<svg version="1.1" id="Layer_1" xmlns="http://www.w3.org/2000/svg" xmlns:xlink="http://www.w3.org/1999/xlink" x="0px" y="0px"
	 viewBox="0 0 512 512" style="enable-background:new 0 0 512 512;" xml:space="preserve">
<style type="text/css">
	.st0{fill:#FFFFFF;}
</style>
<path class="st0" d="M256,0C115.4,0,0,115.4,0,256s115.4,256,256,256s256-115.4,256-256S396.6,0,256,0z M76,256h30
	c0-41.4,16.8-78.9,43.9-106.1S214.6,106,256,106c27.2,0,52.7,7.2,74.6,19.9L297.3,176c-12.6-6.5-26.7-10-41.3-10
	c-24,0-46.6,9.4-63.6,26.4c-17,17-26.4,39.6-26.4,63.6h30l-60,90L76,256z M406,256c0,41.4-16.8,78.9-43.9,106.1S297.4,406,256,406
	c-27.2,0-52.7-7.2-74.6-19.9l33.4-50.1c12.6,6.5,26.7,10,41.3,10c24,0,46.6-9.4,63.6-26.4c17-17,26.4-39.6,26.4-63.6h-30l60-90
	l61,90H406z"/>
</svg>
