{
    "asset" : {
        "generator" : "Khronos glTF Blender I/O v1.0.5",
        "version" : "2.0"
    },
    "scene" : 0,
    "scenes" : [
        {
            "name" : "Scene",
            "nodes" : [
                0,
                1
            ]
        }
    ],
    "nodes" : [
        {
            "mesh" : 0,
            "name" : "part_02",
            "rotation" : [
                0,
                0,
                0,
                -1
            ],
            "scale" : [
                26.37518882751465,
                26.37518882751465,
                26.37518882751465
            ]
        },
        {
            "mesh" : 1,
            "name" : "part_01",
            "rotation" : [
                0,
                0.6139418482780457,
                0.268915057182312,
                0.7421321272850037
            ]
        }
    ],
    "animations" : [
        {
            "channels" : [
                {
                    "sampler" : 0,
                    "target" : {
                        "node" : 0,
                        "path" : "translation"
                    }
                },
                {
                    "sampler" : 1,
                    "target" : {
                        "node" : 0,
                        "path" : "rotation"
                    }
                }
            ],
            "name" : "part_02Action.001",
            "samplers" : [
                {
                    "input" : 7,
                    "interpolation" : "LINEAR",
                    "output" : 8
                },
                {
                    "input" : 7,
                    "interpolation" : "LINEAR",
                    "output" : 9
                }
            ]
        }
    ],
    "meshes" : [
        {
            "name" : "part_02",
            "primitives" : [
                {
                    "attributes" : {
                        "POSITION" : 0,
                        "NORMAL" : 1
                    },
                    "indices" : 2
                }
            ]
        },
        {
            "name" : "Sphere.001",
            "primitives" : [
                {
                    "attributes" : {
                        "POSITION" : 3,
                        "NORMAL" : 4,
                        "TEXCOORD_0" : 5
                    },
                    "indices" : 6
                }
            ]
        }
    ],
    "accessors" : [
        {
            "bufferView" : 0,
            "componentType" : 5126,
            "count" : 27481,
            "max" : [
                0.14700500667095184,
                0.13980500400066376,
                0.15198899805545807
            ],
            "min" : [
                -0.15296100080013275,
                -0.13430200517177582,
                -0.15295599400997162
            ],
            "type" : "VEC3"
        },
        {
            "bufferView" : 1,
            "componentType" : 5126,
            "count" : 27481,
            "type" : "VEC3"
        },
        {
            "bufferView" : 2,
            "componentType" : 5123,
            "count" : 87528,
            "type" : "SCALAR"
        },
        {
            "bufferView" : 3,
            "componentType" : 5126,
            "count" : 2143,
            "max" : [
                4.000002384185791,
                4,
                4.000004291534424
            ],
            "min" : [
                -4.000000953674316,
                -4,
                -4
            ],
            "type" : "VEC3"
        },
        {
            "bufferView" : 4,
            "componentType" : 5126,
            "count" : 2143,
            "type" : "VEC3"
        },
        {
            "bufferView" : 5,
            "componentType" : 5126,
            "count" : 2143,
            "type" : "VEC2"
        },
        {
            "bufferView" : 6,
            "componentType" : 5123,
            "count" : 11904,
            "type" : "SCALAR"
        },
        {
            "bufferView" : 7,
            "componentType" : 5126,
            "count" : 241,
            "max" : [
                8
            ],
            "min" : [
                0
            ],
            "type" : "SCALAR"
        },
        {
            "bufferView" : 8,
            "componentType" : 5126,
            "count" : 241,
            "type" : "VEC3"
        },
        {
            "bufferView" : 9,
            "componentType" : 5126,
            "count" : 241,
            "type" : "VEC4"
        }
    ],
    "bufferViews" : [
        {
            "buffer" : 0,
            "byteLength" : 329772,
            "byteOffset" : 0
        },
        {
            "buffer" : 0,
            "byteLength" : 329772,
            "byteOffset" : 329772
        },
        {
            "buffer" : 0,
            "byteLength" : 175056,
            "byteOffset" : 659544
        },
        {
            "buffer" : 0,
            "byteLength" : 25716,
            "byteOffset" : 834600
        },
        {
            "buffer" : 0,
            "byteLength" : 25716,
            "byteOffset" : 860316
        },
        {
            "buffer" : 0,
            "byteLength" : 17144,
            "byteOffset" : 886032
        },
        {
            "buffer" : 0,
            "byteLength" : 23808,
            "byteOffset" : 903176
        },
        {
            "buffer" : 0,
            "byteLength" : 964,
            "byteOffset" : 926984
        },
        {
            "buffer" : 0,
            "byteLength" : 2892,
            "byteOffset" : 927948
        },
        {
            "buffer" : 0,
            "byteLength" : 3856,
            "byteOffset" : 930840
        }
    ],
    "buffers" : [
        {
            "byteLength" : 934696,
            "uri" : "data:application/octet-stream;base64,"
        }
    ]
}
