<?xml version="1.0" encoding="utf-8"?>
<!-- Generator: Adobe Illustrator 24.1.0, SVG Export Plug-In . SVG Version: 6.00 Build 0)  -->
<svg version="1.1" id="Layer_1" xmlns="http://www.w3.org/2000/svg" xmlns:xlink="http://www.w3.org/1999/xlink" x="0px" y="0px"
	 viewBox="0 0 100 100" style="enable-background:new 0 0 100 100;" xml:space="preserve">
<style type="text/css">
	.st0{fill:#FFFFFF;}
	.st1{fill:none;}
</style>
<path class="st0" d="M51.9,72.9C39.2,72.9,29,62.6,29,50c0-12.7,10.3-23,23-22.9c0.6,0,1.2,0,1.9,0.1s1.3,0.5,1.6,1.1
	s0.2,1.4-0.2,1.9c-2.3,3.2-3.5,7-3.5,11c0,4.8,1.8,9.5,5.1,13s7.7,5.7,12.5,6.1c0.7,0.1,1.3,0.5,1.6,1.1c0.3,0.6,0.2,1.4-0.2,1.9
	C66.4,69.3,59.3,73,51.9,72.9z M50.3,31c-9.8,0.8-17.5,9-17.5,19c0,10.5,8.5,19.1,19.1,19.1c5.1,0,10-2.1,13.6-5.7
	c-4.4-1.1-8.4-3.4-11.5-6.7c-3.9-4.3-6.1-9.8-6.1-15.6C47.9,37.5,48.7,34.1,50.3,31z"/>
<rect class="st1" width="100" height="100"/>
</svg>
