<?xml version="1.0" encoding="utf-8"?>
<!-- Generator: Adobe Illustrator 24.1.0, SVG Export Plug-In . SVG Version: 6.00 Build 0)  -->
<svg version="1.1" id="Layer_1" xmlns="http://www.w3.org/2000/svg" xmlns:xlink="http://www.w3.org/1999/xlink" x="0px" y="0px"
	 viewBox="0 0 100 100" style="enable-background:new 0 0 100 100;" xml:space="preserve">
<style type="text/css">
	.st0{fill:#FFFFFF;}
	.st1{fill:none;}
</style>
<g>
	<path class="st0" d="M72.9,62h-2c-1.1,0-1.9-0.9-1.9-1.9c0-1.1,0.9-1.9,1.9-1.9l0,0h2c5.2,0,9.5-4.2,9.6-9.4
		c0.1-5.3-4.2-9.6-9.4-9.7c-0.2,0-0.5,0-0.7,0c-0.5,0-1-0.1-1.4-0.5s-0.6-0.8-0.6-1.3c-0.4-8.6-7.6-15.5-16.2-15.6
		c-5.9,0-11.2,2.9-14.2,7.8c-0.3,0.5-0.8,0.8-1.4,0.9c-0.6,0.1-1.2-0.1-1.6-0.6c-1-1-2.3-1.6-3.7-1.6c-2.9,0-5.3,2.3-5.3,5.2
		c0,0.8,0.2,1.6,0.5,2.4c0.3,0.6,0.3,1.3-0.1,1.8c-0.3,0.6-0.9,0.9-1.6,0.9c-5.1,0.1-9.2,4.3-9.3,9.4c-0.1,5.3,4.1,9.6,9.4,9.7h2
		c1.1,0,1.9,0.9,1.9,1.9c0,1.1-0.9,1.9-1.9,1.9h-2c-7.3-0.1-13.3-6.2-13.2-13.5c0.1-6.4,4.5-11.6,10.5-12.9
		c-0.1-0.5-0.1-1.1-0.1-1.6c0.1-5,4.2-9.1,9.2-9c1.7,0,3.3,0.5,4.6,1.3c3.9-5,9.8-7.9,16.2-7.8C64.2,18,72.6,25.6,74,35.3
		c7,0.6,12.4,6.4,12.3,13.5C86.2,56.1,80.2,62.1,72.9,62L72.9,62z"/>
	<path class="st0" d="M31.7,79.5c-0.5,0-1-0.2-1.3-0.6c-0.7-0.8-0.7-2,0-2.7l8.3-8.1l-5-0.1c-0.8,0-1.5-0.5-1.8-1.2
		s-0.1-1.6,0.5-2.1l12.2-11.3c0.8-0.7,2-0.7,2.7,0.1s0.7,2-0.1,2.7l-8.7,8l4.8,0.1c0.8,0,1.5,0.5,1.8,1.2s0.1,1.5-0.4,2.1L33,79
		C32.6,79.3,32.1,79.5,31.7,79.5z"/>
	<path class="st0" d="M51.2,73c-0.5,0-1-0.2-1.3-0.6c-0.7-0.8-0.7-2,0-2.7l8.3-8.1l-4.9-0.1c-0.8,0-1.5-0.5-1.8-1.2
		s-0.1-1.6,0.5-2.1l12.2-11.3c0.8-0.7,2-0.7,2.7,0.1s0.7,2-0.1,2.7l-8.7,8.1l4.8,0.1c0.8,0,1.5,0.5,1.8,1.2s0.1,1.5-0.4,2.1
		L52.6,72.5C52.2,72.8,51.7,73,51.2,73z"/>
	<path class="st0" d="M41.4,82.1c-0.5,0-1-0.2-1.3-0.6c-0.7-0.8-0.7-2,0-2.7l4.8-4.7c0.8-0.7,2-0.7,2.7,0c0.7,0.8,0.7,2,0,2.7
		l-4.8,4.7C42.3,81.9,41.9,82.1,41.4,82.1z"/>
	<path class="st0" d="M24,75.6c-0.5,0-1-0.2-1.3-0.6c-0.7-0.8-0.7-2,0-2.7l3.1-3c0.8-0.7,2-0.7,2.7,0c0.7,0.8,0.7,2,0,2.7l-3.1,3
		C25,75.4,24.5,75.6,24,75.6z"/>
	<path class="st0" d="M58.2,78.6c-0.5,0-1-0.2-1.3-0.6c-0.7-0.8-0.7-2,0-2.7L67,65.6c0.8-0.7,2-0.7,2.7,0c0.7,0.8,0.7,2,0,2.7
		l-10.1,9.8C59.2,78.5,58.7,78.7,58.2,78.6z"/>
</g>
<rect class="st1" width="100" height="100"/>
</svg>
