<svg xmlns="http://www.w3.org/2000/svg" width="140" height="140" viewBox="0 0 140 140">
  <g id="Group_53" data-name="Group 53" transform="translate(-360 591)">
    <path id="Subtraction_2" data-name="Subtraction 2" d="M70,140a69.673,69.673,0,0,1-39.138-11.955A70.2,70.2,0,0,1,5.5,97.247a69.908,69.908,0,0,1,6.454-66.385A70.2,70.2,0,0,1,42.753,5.5a69.908,69.908,0,0,1,66.385,6.454,70.2,70.2,0,0,1,25.362,30.8,69.907,69.907,0,0,1-6.454,66.385,70.206,70.206,0,0,1-30.8,25.362A69.56,69.56,0,0,1,70,140ZM70,93.26a2.463,2.463,0,0,1,1.515.515,30.5,30.5,0,0,0,5.93,3.558,29.558,29.558,0,0,0,10.685,2.614c.653.035,1.3.053,1.908.053a27.664,27.664,0,0,0,5.183-.465,29.877,29.877,0,0,0,6.47-1.921,30.725,30.725,0,0,0,12.556-10,30.2,30.2,0,0,0,3.344-5.879,29.96,29.96,0,0,0-.316-24.224,30.333,30.333,0,0,0-8.23-10.644A29.785,29.785,0,0,0,92.354,40.1c-.9-.069-1.788-.1-2.64-.1a28.983,28.983,0,0,0-4.6.355,29.862,29.862,0,0,0-11.077,4.108c-.6.368-1.46.985-2.57,1.834a2.524,2.524,0,0,1-3.01.045,42.66,42.66,0,0,0-5.523-3.5A29.755,29.755,0,0,0,50.2,40a32.454,32.454,0,0,0-3.642.208,30.088,30.088,0,0,0-16.718,7.57,33.378,33.378,0,0,0-4.456,5.1,30.1,30.1,0,0,0-4.909,11.666,21.007,21.007,0,0,0-.446,5.275v.13a26.786,26.786,0,0,0,.112,3.1,28.854,28.854,0,0,0,1,5.264A30.174,30.174,0,0,0,25.5,87.27a29.577,29.577,0,0,0,3.8,4.467,36,36,0,0,0,2.848,2.374,29.253,29.253,0,0,0,4.494,2.766A29.848,29.848,0,0,0,43.3,99.24a26.442,26.442,0,0,0,4.584.7c.739.035,1.452.052,2.117.052a29.985,29.985,0,0,0,4.46-.309,30.594,30.594,0,0,0,9.813-3.191,29.623,29.623,0,0,0,4.2-2.707A2.525,2.525,0,0,1,70,93.26ZM49.959,90.827A20.221,20.221,0,0,1,38.3,87.18a20.644,20.644,0,0,1-9.076-16.446,20.052,20.052,0,0,1,5.235-14.541,21.2,21.2,0,0,1,15.548-7.052c.2,0,.37,0,.521.008a20.541,20.541,0,0,1,12.816,4.7C64.207,54.561,71.69,62,77.7,67.977c3.9,3.873,7.26,7.217,7.584,7.5a7.1,7.1,0,0,0,4.643,1.682,6.934,6.934,0,0,0,5.049-2.095A7.156,7.156,0,0,0,89.9,62.842a7.243,7.243,0,0,0-2.219.347,2.209,2.209,0,0,1-.675.1,2.536,2.536,0,0,1-1.765-.75l-6.545-6.511a2.521,2.521,0,0,1-.729-2.111,2.463,2.463,0,0,1,1.188-1.829,20.883,20.883,0,0,1,4.49-1.987,20.353,20.353,0,0,1,4.317-.843c.615-.054,1.24-.081,1.858-.081a21.237,21.237,0,0,1,12.518,4.079,20.343,20.343,0,0,1,7.209,9.616,20.613,20.613,0,0,1,1.22,6.08,20.979,20.979,0,0,1-.638,6.265A20.785,20.785,0,0,1,90.987,90.79c-.385.019-.773.029-1.152.029A20.662,20.662,0,0,1,80.2,88.476a23.009,23.009,0,0,1-5.833-4.446c-3.027-3.046-17.443-17.395-19.282-19.192a6.854,6.854,0,0,0-4.863-2.017,7.733,7.733,0,0,0-2.467.417,6.82,6.82,0,0,0-4.718,5.615,7.1,7.1,0,0,0,3.84,7.55,6.947,6.947,0,0,0,3.16.75,7.38,7.38,0,0,0,2.22-.343,2.278,2.278,0,0,1,.687-.105,2.626,2.626,0,0,1,1.822.772l6.275,6.2.081.08.191.189a2.519,2.519,0,0,1,.734,2.1,2.489,2.489,0,0,1-1.194,1.85,20.236,20.236,0,0,1-8.451,2.79A23.007,23.007,0,0,1,49.959,90.827Z" transform="translate(360 -591)" fill="#fff"/>
  </g>
</svg>
