<?xml version="1.0" encoding="utf-8"?>
<!-- Generator: Adobe Illustrator 22.0.1, SVG Export Plug-In . SVG Version: 6.00 Build 0)  -->
<svg version="1.1" id="Layer_1" xmlns="http://www.w3.org/2000/svg" xmlns:xlink="http://www.w3.org/1999/xlink" x="0px" y="0px"
	 viewBox="0 0 209.3 63.2" style="enable-background:new 0 0 209.3 63.2;" xml:space="preserve">
<style type="text/css">
	.st0{fill:#FFFFFF;}
</style>
<g>
	<path class="st0" d="M15,0c4.6,0,8.3,1.5,11.1,4.4c2.6,2.8,3.8,6.4,3.8,10.7v9.2c0,4.2-1.5,7.7-4.4,10.7c-2.9,3-6.4,4.4-10.6,4.4
		H9.5v23.8H0V0H15z M20.7,15.2c0-1.6-0.5-3-1.5-4c-1-1-2.3-1.5-4-1.5H9.5V30h5.8c1.5,0,2.8-0.5,3.9-1.6c1.1-1.1,1.6-2.4,1.6-3.9
		V15.2z"/>
	<path class="st0" d="M51.6,0.1c4.2,0,7.8,1.5,10.7,4.4c2.9,3,4.4,6.5,4.4,10.7v9.1c0,4.2-1.5,7.8-4.4,10.7c-3,2.9-6.5,4.4-10.7,4.4
		c-4.2,0-7.8-1.5-10.7-4.4c-2.9-3-4.4-6.5-4.4-10.7v-9.1C36.5,11,38,7.4,41,4.5C43.9,1.5,47.5,0.1,51.6,0.1z M56.8,15
		c0-1.5-0.5-2.8-1.6-3.9c-1.1-1.1-2.3-1.6-3.9-1.6c-1.5,0-2.8,0.5-3.9,1.6c-1.1,1.1-1.6,2.3-1.6,3.9v9.2c0,1.5,0.5,2.8,1.6,3.9
		c1.1,1.1,2.4,1.6,3.9,1.6c1.5,0,2.8-0.5,3.9-1.6c1.1-1.1,1.6-2.3,1.6-3.9V15z"/>
	<path class="st0" d="M122.3,9.6h-10.1V0h29.8v9.6h-10.1v53.6h-9.5V9.6z"/>
	<path class="st0" d="M153.2,48.7l-2.3,14.5h-9.9L151.7,0h13.1l10.6,63.2h-10l-2.2-14.5H153.2z M158.2,14.5l-3.5,24.9h7.1
		L158.2,14.5z"/>
	<path class="st0" d="M209.4,63.2h-26V0h9.5v53.7h16.4V63.2z"/>
	<path class="st0" d="M100.1,35.6c3.4-3.1,5.1-6.9,5.1-11.3v-9.2c0-4.6-1.1-8.1-3.3-10.7C99.4,1.5,95.5,0,90.2,0h-15v39.4h9.5h5.5
		c0.3,0,0.6,0,0.9,0l5.8,23.8h10.3L100.1,35.6z M95.9,24.5c0,1.5-0.5,2.8-1.6,3.9C93.2,29.4,92,30,90.4,30h-5.8V9.7h5.8
		c3.6,0,5.4,1.8,5.4,5.5V24.5z"/>
	<g>
		<path class="st0" d="M22,63.2c-1,0-1.8-0.3-2.5-1c-0.7-0.7-1-1.5-1-2.4v-7.5c0-1,0.3-1.8,1-2.4c0.7-0.7,1.5-1,2.4-1
			c1,0,1.8,0.3,2.4,1c0.7,0.7,1,1.5,1,2.4v1.6h-2.3v-1.7c0-0.3-0.1-0.6-0.4-0.9c-0.2-0.2-0.5-0.4-0.9-0.4s-0.6,0.1-0.9,0.4
			c-0.2,0.2-0.4,0.5-0.4,0.9v7.6c0,0.3,0.1,0.6,0.4,0.9c0.2,0.2,0.5,0.4,0.9,0.4s0.6-0.1,0.9-0.4c0.2-0.2,0.4-0.5,0.4-0.9v-2.5H22
			v-2.2h3.5v4.7c0,1-0.3,1.8-1,2.4C23.8,62.9,23,63.2,22,63.2z"/>
		<path class="st0" d="M31.3,59.9l-0.5,3.3h-2.3l2.5-14.4h3l2.4,14.4H34l-0.5-3.3H31.3z M32.4,52.1l-0.8,5.7h1.6L32.4,52.1z"/>
		<path class="st0" d="M45.3,63.2h-5.9V48.8h2.2V61h3.8V63.2z"/>
		<path class="st0" d="M54.2,63.2h-5.9V48.8h2.2V61h3.8V63.2z"/>
		<path class="st0" d="M57.2,63.2V48.8h6.2v2.2h-4v3.9h2.9v2.2h-2.9V61h4v2.2H57.2z"/>
		<path class="st0" d="M69.8,48.8c1.2,0,2.1,0.3,2.7,1c0.5,0.6,0.8,1.4,0.8,2.4v2.1c0,1-0.4,1.9-1.2,2.6l1.6,6.3h-2.4L70,57.8
			c-0.1,0-0.1,0-0.2,0h-1.3v5.4h-2.2V48.8H69.8z M71.1,52.2c0-0.8-0.4-1.3-1.2-1.3h-1.3v4.6h1.3c0.3,0,0.6-0.1,0.9-0.4
			c0.2-0.2,0.4-0.5,0.4-0.9V52.2z"/>
		<path class="st0" d="M79.6,57.2l-2.9-8.4h2.4l1.6,5.2l1.6-5.2h2.4l-2.9,8.4v6h-2.2V57.2z"/>
	</g>
</g>
</svg>
