<svg width="48" height="48" viewBox="0 0 48 48" fill="none" xmlns="http://www.w3.org/2000/svg">
<rect x="14" y="14" width="20" height="20" fill="white"/>
<path d="M21.1223 32.1891L31.6678 25.415C32.1859 25.0862 32.445 24.6292 32.445 24.0441C32.445 23.459 32.1859 23.0004 31.6678 22.6683L21.1223 15.8942C20.5792 15.5218 20.022 15.4919 19.4506 15.8046C18.8796 16.1174 18.5941 16.605 18.5941 17.2676V30.8158C18.5941 31.4783 18.8796 31.966 19.4506 32.2787C20.022 32.5914 20.5792 32.5616 21.1223 32.1891ZM24.0457 47.0417C20.8645 47.0417 17.8743 46.438 15.0751 45.2307C12.276 44.0234 9.84122 42.385 7.77082 40.3154C5.70042 38.2458 4.06116 35.812 2.85306 33.0141C1.64535 30.2162 1.0415 27.2268 1.0415 24.0459C1.0415 20.8646 1.64515 17.8744 2.85245 15.0753C4.05975 12.2762 5.6982 9.84139 7.76779 7.77099C9.83739 5.70058 12.2712 4.06133 15.0691 2.85322C17.867 1.64552 20.8564 1.04167 24.0373 1.04167C27.2185 1.04167 30.2087 1.64532 33.0079 2.85262C35.807 4.05992 38.2418 5.69837 40.3122 7.76796C42.3826 9.83756 44.0218 12.2713 45.23 15.0693C46.4377 17.8672 47.0415 20.8566 47.0415 24.0374C47.0415 27.2187 46.4379 30.2089 45.2306 33.008C44.0233 35.8072 42.3848 38.242 40.3152 40.3124C38.2456 42.3828 35.8119 44.022 33.0139 45.2301C30.216 46.4378 27.2266 47.0417 24.0457 47.0417Z" fill="black"/>
</svg>
