<svg width="21" height="20" viewBox="0 0 21 20" fill="none" xmlns="http://www.w3.org/2000/svg">
<path d="M8.33341 15H13.3334C13.5695 15 13.7674 14.9202 13.9272 14.7604C14.0869 14.6007 14.1667 14.4028 14.1667 14.1667C14.1667 13.9306 14.0869 13.7327 13.9272 13.5729C13.7674 13.4132 13.5695 13.3334 13.3334 13.3334H8.33341C8.0973 13.3334 7.89939 13.4132 7.73966 13.5729C7.57994 13.7327 7.50008 13.9306 7.50008 14.1667C7.50008 14.4028 7.57994 14.6007 7.73966 14.7604C7.89939 14.9202 8.0973 15 8.33341 15ZM8.33341 11.6667H13.3334C13.5695 11.6667 13.7674 11.5868 13.9272 11.4271C14.0869 11.2674 14.1667 11.0695 14.1667 10.8334C14.1667 10.5972 14.0869 10.3993 13.9272 10.2396C13.7674 10.0799 13.5695 10 13.3334 10H8.33341C8.0973 10 7.89939 10.0799 7.73966 10.2396C7.57994 10.3993 7.50008 10.5972 7.50008 10.8334C7.50008 11.0695 7.57994 11.2674 7.73966 11.4271C7.89939 11.5868 8.0973 11.6667 8.33341 11.6667ZM5.83341 18.3334C5.37508 18.3334 4.98272 18.1702 4.65633 17.8438C4.32994 17.5174 4.16675 17.125 4.16675 16.6667V3.33335C4.16675 2.87502 4.32994 2.48266 4.65633 2.15627C4.98272 1.82988 5.37508 1.66669 5.83341 1.66669H11.8126C12.0348 1.66669 12.2466 1.70835 12.448 1.79169C12.6494 1.87502 12.8265 1.99308 12.9792 2.14585L17.0209 6.18752C17.1737 6.3403 17.2917 6.51738 17.3751 6.71877C17.4584 6.92016 17.5001 7.13196 17.5001 7.35419V16.6667C17.5001 17.125 17.3369 17.5174 17.0105 17.8438C16.6841 18.1702 16.2917 18.3334 15.8334 18.3334H5.83341ZM11.6667 6.66669V3.33335H5.83341V16.6667H15.8334V7.50002H12.5001C12.264 7.50002 12.0661 7.42016 11.9063 7.26044C11.7466 7.10071 11.6667 6.9028 11.6667 6.66669Z" fill="black"/>
</svg>
