<svg width="21" height="20" viewBox="0 0 21 20" fill="none" xmlns="http://www.w3.org/2000/svg">
<path d="M3.99999 15C3.76388 15 3.56596 14.9201 3.40624 14.7604C3.24652 14.6007 3.16666 14.4028 3.16666 14.1667C3.16666 13.9306 3.24652 13.7326 3.40624 13.5729C3.56596 13.4132 3.76388 13.3333 3.99999 13.3333H17.3333C17.5694 13.3333 17.7674 13.4132 17.9271 13.5729C18.0868 13.7326 18.1667 13.9306 18.1667 14.1667C18.1667 14.4028 18.0868 14.6007 17.9271 14.7604C17.7674 14.9201 17.5694 15 17.3333 15H3.99999ZM3.99999 10.8333C3.76388 10.8333 3.56596 10.7535 3.40624 10.5938C3.24652 10.434 3.16666 10.2361 3.16666 10C3.16666 9.76389 3.24652 9.56597 3.40624 9.40625C3.56596 9.24653 3.76388 9.16667 3.99999 9.16667H17.3333C17.5694 9.16667 17.7674 9.24653 17.9271 9.40625C18.0868 9.56597 18.1667 9.76389 18.1667 10C18.1667 10.2361 18.0868 10.434 17.9271 10.5938C17.7674 10.7535 17.5694 10.8333 17.3333 10.8333H3.99999ZM3.99999 6.66667C3.76388 6.66667 3.56596 6.58681 3.40624 6.42708C3.24652 6.26736 3.16666 6.06944 3.16666 5.83333C3.16666 5.59722 3.24652 5.39931 3.40624 5.23958C3.56596 5.07986 3.76388 5 3.99999 5H17.3333C17.5694 5 17.7674 5.07986 17.9271 5.23958C18.0868 5.39931 18.1667 5.59722 18.1667 5.83333C18.1667 6.06944 18.0868 6.26736 17.9271 6.42708C17.7674 6.58681 17.5694 6.66667 17.3333 6.66667H3.99999Z" fill="#1C1C1E"/>
</svg>
