<svg width="21" height="20" viewBox="0 0 21 20" fill="none" xmlns="http://www.w3.org/2000/svg">
<path d="M4.00008 15C3.76397 15 3.56605 14.9201 3.40633 14.7604C3.24661 14.6007 3.16675 14.4028 3.16675 14.1667C3.16675 13.9306 3.24661 13.7326 3.40633 13.5729C3.56605 13.4132 3.76397 13.3333 4.00008 13.3333H17.3334C17.5695 13.3333 17.7674 13.4132 17.9272 13.5729C18.0869 13.7326 18.1667 13.9306 18.1667 14.1667C18.1667 14.4028 18.0869 14.6007 17.9272 14.7604C17.7674 14.9201 17.5695 15 17.3334 15H4.00008ZM4.00008 10.8333C3.76397 10.8333 3.56605 10.7535 3.40633 10.5938C3.24661 10.434 3.16675 10.2361 3.16675 10C3.16675 9.76389 3.24661 9.56597 3.40633 9.40625C3.56605 9.24653 3.76397 9.16667 4.00008 9.16667H17.3334C17.5695 9.16667 17.7674 9.24653 17.9272 9.40625C18.0869 9.56597 18.1667 9.76389 18.1667 10C18.1667 10.2361 18.0869 10.434 17.9272 10.5938C17.7674 10.7535 17.5695 10.8333 17.3334 10.8333H4.00008ZM4.00008 6.66667C3.76397 6.66667 3.56605 6.58681 3.40633 6.42708C3.24661 6.26736 3.16675 6.06944 3.16675 5.83333C3.16675 5.59722 3.24661 5.39931 3.40633 5.23958C3.56605 5.07986 3.76397 5 4.00008 5H17.3334C17.5695 5 17.7674 5.07986 17.9272 5.23958C18.0869 5.39931 18.1667 5.59722 18.1667 5.83333C18.1667 6.06944 18.0869 6.26736 17.9272 6.42708C17.7674 6.58681 17.5695 6.66667 17.3334 6.66667H4.00008Z" fill="black"/>
</svg>
