<?xml version="1.0" encoding="UTF-8"?>
<svg id="Layer_2" data-name="Layer 2" xmlns="http://www.w3.org/2000/svg" viewBox="0 0 226.41 230.21">
  <defs>
    <style>
      .cls-1 {
        opacity: .25;
        stroke-width: .51px;
      }

      .cls-1, .cls-2 {
        fill: none;
        stroke: #000;
        stroke-linecap: round;
        stroke-linejoin: round;
      }

      .cls-2 {
        opacity: .75;
        stroke-width: .71px;
      }

      .cls-3 {
        font-family: Roboto-Regular, Roboto;
        font-size: 11.34px;
        opacity: .5;
      }
    </style>
  </defs>
  <g id="Layer_1-2" data-name="Layer 1">
    <path class="cls-2" d="M157.05,155.85l-29.3-16.9m49.9,6.4h-.1m-2.2-2.1h-.6l-.1,.1m2.5,1.4l.2,.5,.2,.4m2.1-1.3h-.2l-.2,.1-.2,.1m-51.3-2.1l26.3,15.1m22.4-11.3v-.8l-.2-.5-.2-.4-.4-.5-.4-.3-.6-.4m0,0l-38.3-22.1m41.1,24l.2,.1m0,0l.2,.1m1.4-.8l-.2-.1m0,0l-41.5-24m34.7,24.7l-38.7-22.4m38.7,22.4l.3,.2,.3,.3,.2,.3v.1m-.8-1.4v.5m4.8-.5h.1m-4.9,2.3l.3-.2,.3-.3,.2-.3v-.7l-.2-.3-.3-.3-.3-.2m-44.5,28l44.5-25.7m0-2.3l-38.3-22.1m-1,.5l40,23.1m24.5,25.3V58.65m-2.4,114.3l2.4-1.4m-2.4-111.5v112.9m0,0l-2-1.1m4.4-113.2l-2.4,1.4M127.75,211.85V98.95m-2.4,114.3l2.4-1.4m0-112.9l-2.4,1.3m0,0v113m0-113L29.15,44.75m0,0v113m96.2,55.5L29.15,157.75m0-115.8v2.8m96.2,55.5L29.15,44.75M101.25,.35L29.15,41.95m96.2,55.6L29.15,41.95m168.3,13.9L101.25,.35m24.1,97.2v2.7m0,0l72.1-41.6m0,0v-2.8m0,0l-72.1,41.7m65.3,40.5l2.4,1.4m-2.4-1.4l-62.9,36.3m65.3-34.9v32.4m0-32.4l-65.3,37.7m65.3-5.3l-65.3,37.7m65.3-123.8v2.8m0,0l-65.3,37.7m44.1-52.8l21.2,12.3m0,0l-65.3,37.7m51.9,20.9l-41.7-24m37.4,22.9l-38.6-22.2m40.3,23.6l-.3-.3-.4-.4-.6-.4-.4-.3m2.3,2.3l-.5-.8"/>
    <text class="cls-3" transform="translate(38.51 190.75) rotate(30)"><tspan x="0" y="0" xml:space="preserve"> 48cm </tspan></text>
    <text class="cls-3" transform="translate(167.98 216) rotate(-30)"><tspan x="0" y="0" xml:space="preserve"> 36cm </tspan></text>
    <text class="cls-3" transform="translate(221.3 152.79) rotate(-90)"><tspan x="0" y="0" xml:space="preserve"> 50cm </tspan></text>
    <path class="cls-1" d="M8.86,178.25l-6.6-5m7.7,3.1l-1.1,1.9m-6.6-5l7.7,3.1m81.9,47.4l6.6,5m-7.6-3.2l1-1.8m6.6,5l-7.6-3.2m7.6,3.2L2.25,173.25m24.9-14.4L.25,174.35m123.1,40.1l-26.9,15.5m120-39.8l7.6-3.2m-6.6,5l-1-1.8m7.6-3.2l-6.6,5m-57.9,33.5l-7.6,3.1m6.6-5l1,1.9m-7.6,3.1l6.6-5m-6.6,5l72.1-41.6m-24.6-14.2l26.6,15.4m-98.7,26.3l26.6,15.3m71.2-51l-1,8.2m-1.1-8.2h2.1m-1,8.2l-1.1-8.2m0-99.3l1.1-8.2m1,8.2h-2.1m1.1-8.2l1,8.2m-1-8.2v115.7m-24.7-14.2l26.7,15.4m-26.7-131.1l26.7,15.3"/>
  </g>
</svg>