<?xml version="1.0" encoding="UTF-8"?>
<svg id="Layer_2" data-name="Layer 2" xmlns="http://www.w3.org/2000/svg" viewBox="0 0 47.75 17.81"
fill="#263238">
  <g id="Layer_1-2" data-name="Layer 1">
    <g>
      <path d="M3.72,.89v.24c-.14,.02-.23,.09-.27,.21-.04,.12-.06,.25-.04,.4s.05,.28,.09,.4l1.81,5.1-.34,.52,1.44-3.9,.17,.35-1.84,5.18c-.1,0-.2-.01-.31-.02-.11,0-.22,0-.33,0-.1,0-.21,0-.32,0-.11,0-.21,.01-.31,.02L.71,1.9c-.1-.28-.22-.48-.35-.59-.13-.11-.25-.17-.36-.18v-.24c.29,0,.63,.02,1.01,.02,.39,0,.76,.01,1.11,.01s.66,0,.94-.01c.27,0,.49-.02,.66-.02ZM12.4,.89v.24c-.18,.09-.38,.26-.58,.52-.2,.26-.38,.64-.54,1.16l-2.02,6.58c-.1,0-.2-.01-.31-.02-.11,0-.22,0-.33,0-.1,0-.21,0-.32,0-.11,0-.21,.01-.31,.02L5.48,1.69c-.06-.21-.15-.35-.25-.43s-.22-.12-.36-.13v-.24c.27,0,.59,.02,.96,.02,.37,0,.74,.01,1.12,.01s.73,0,1.06-.01c.33,0,.6-.02,.8-.02v.24c-.25,0-.44,.04-.58,.09-.14,.05-.21,.15-.23,.29s.02,.35,.11,.63l1.64,4.99-.35,.73,1.21-3.88c.22-.71,.33-1.27,.32-1.69,0-.41-.1-.71-.29-.89-.18-.18-.44-.27-.76-.28v-.24c.3,0,.57,.02,.81,.02,.24,0,.49,.01,.76,.01,.16,0,.32,0,.49-.01,.17,0,.31-.02,.43-.02Z"/>
      <path d="M14.99,0V3.89c.19-.32,.45-.55,.77-.69,.32-.14,.7-.21,1.13-.21,.37,0,.66,.05,.87,.14,.21,.09,.37,.21,.49,.34,.12,.14,.21,.34,.26,.58,.06,.24,.08,.56,.08,.97v3.25c0,.34,.05,.56,.15,.68,.1,.12,.27,.18,.52,.18v.25c-.16,0-.4-.02-.73-.03-.32-.01-.64-.02-.95-.02-.34,0-.66,0-.98,.02-.32,.01-.56,.02-.72,.03v-.25c.21,0,.35-.06,.43-.18,.08-.12,.12-.35,.12-.68v-3.9c0-.17-.02-.31-.06-.42-.04-.11-.1-.2-.19-.25-.08-.06-.2-.08-.34-.08s-.28,.04-.41,.11c-.13,.07-.24,.17-.32,.31-.08,.13-.13,.28-.13,.45v3.79c0,.34,.04,.56,.13,.68,.08,.12,.23,.18,.43,.18v.25c-.15,0-.38-.02-.67-.03-.3-.01-.6-.02-.91-.02-.34,0-.68,0-1.02,.02-.34,.01-.6,.02-.78,.03v-.25c.25,0,.42-.06,.52-.18,.1-.12,.15-.35,.15-.68V1.44c0-.36-.05-.63-.14-.8-.1-.17-.27-.26-.53-.26V.13c.26,.02,.5,.04,.74,.04,.4,0,.77-.01,1.12-.04,.35-.03,.67-.07,.97-.13Z"/>
      <path d="M22.49,3.02v5.24c0,.34,.05,.56,.15,.68,.1,.12,.27,.18,.52,.18v.25c-.16,0-.4-.02-.72-.03-.32-.01-.65-.02-.98-.02s-.68,0-1.02,.02c-.34,.01-.6,.02-.78,.03v-.25c.25,0,.42-.06,.52-.18,.1-.12,.15-.35,.15-.68v-3.8c0-.36-.05-.63-.14-.8-.1-.17-.27-.26-.53-.26v-.25c.26,.02,.5,.04,.74,.04,.4,0,.77-.01,1.12-.04,.35-.03,.67-.07,.97-.13Zm-1.15-3.02c.42,0,.74,.09,.97,.26s.34,.43,.34,.77-.11,.6-.34,.77c-.23,.17-.55,.26-.97,.26s-.74-.09-.97-.26c-.23-.17-.34-.43-.34-.77s.11-.6,.34-.77,.55-.26,.97-.26Z"/>
      <path d="M26.14,2.99c.35,0,.66,.04,.93,.11,.27,.08,.46,.15,.58,.21,.28,.17,.45,.06,.52-.31h.24c-.02,.23-.03,.51-.04,.85s-.01,.77-.01,1.31h-.24c-.03-.3-.1-.59-.21-.88s-.26-.53-.47-.72c-.2-.19-.47-.29-.8-.29-.2,0-.37,.06-.5,.18-.14,.12-.2,.28-.2,.49,0,.24,.07,.45,.22,.64s.33,.37,.55,.54,.45,.35,.67,.55c.25,.2,.47,.4,.66,.59s.35,.4,.46,.63c.12,.23,.17,.5,.17,.81,0,.36-.11,.68-.33,.96-.22,.28-.51,.5-.88,.65-.36,.16-.77,.23-1.22,.23-.28,0-.52-.03-.73-.09s-.38-.13-.5-.21c-.13-.06-.24-.11-.33-.15-.09-.04-.18-.05-.27-.05-.08,0-.15,.04-.2,.13-.06,.08-.1,.18-.13,.29h-.24c.02-.26,.03-.57,.04-.94,0-.37,.01-.86,.01-1.46h.24c.05,.42,.14,.8,.28,1.13,.14,.33,.32,.59,.54,.77,.22,.19,.47,.28,.76,.28,.13,0,.24-.02,.35-.07,.1-.05,.19-.12,.25-.22,.06-.1,.1-.22,.1-.37,0-.35-.11-.65-.32-.89-.21-.24-.48-.5-.8-.79-.24-.22-.47-.44-.68-.65-.21-.21-.39-.44-.52-.7-.14-.25-.2-.53-.2-.85,0-.36,.11-.67,.32-.92,.21-.26,.49-.45,.83-.59,.34-.14,.71-.21,1.1-.21Z"/>
      <path d="M32.08,0V8.27c0,.34,.05,.56,.15,.68,.1,.12,.27,.18,.52,.18v.25c-.16,0-.4-.02-.72-.03-.32-.01-.65-.02-.98-.02s-.68,0-1.02,.02c-.34,.01-.6,.02-.78,.03v-.25c.25,0,.42-.06,.52-.18,.1-.12,.15-.35,.15-.68V1.44c0-.36-.05-.63-.14-.8-.1-.17-.27-.26-.53-.26V.13c.26,.02,.5,.04,.74,.04,.4,0,.77-.01,1.12-.04,.35-.03,.67-.07,.97-.13Zm3.98,3.16v.24c-.29,.08-.58,.22-.88,.42-.3,.2-.6,.45-.9,.76l-.42,.42,.08-.16,1.93,3.67c.06,.12,.13,.24,.2,.35,.07,.12,.16,.21,.28,.27v.25c-.14,0-.34-.02-.62-.03-.28-.01-.55-.02-.83-.02-.32,0-.64,0-.97,.02-.32,.01-.57,.02-.73,.03v-.25c.16,0,.27-.04,.32-.11,.05-.07,.05-.17-.02-.3l-1.06-2.23c-.06-.11-.12-.18-.19-.22-.07-.03-.16-.05-.25-.05v-.23c.11,0,.22-.01,.31-.03,.1-.02,.18-.07,.26-.15l.92-.86c.28-.26,.42-.5,.43-.73,0-.23-.08-.42-.26-.57-.18-.15-.41-.24-.7-.26v-.24c.23,0,.48,.02,.75,.02,.27,0,.5,.01,.69,.01,.17,0,.36,0,.58,0,.22,0,.42,0,.62-.01,.2,0,.35,0,.45-.02Z"/>
      <path d="M39.55,2.99c.7,0,1.26,.21,1.66,.62,.4,.41,.61,1.1,.61,2.07h-3.76l-.02-.23h2.03c0-.39,0-.75-.05-1.09s-.1-.6-.19-.8c-.09-.2-.21-.3-.36-.3-.22,0-.39,.17-.53,.51-.14,.34-.22,.92-.26,1.75l.05,.1c0,.08-.01,.16-.01,.24v.25c0,.56,.07,1,.21,1.31,.14,.31,.32,.53,.53,.65,.21,.12,.43,.18,.64,.18,.11,0,.25-.02,.4-.05,.16-.03,.33-.11,.51-.22,.18-.12,.36-.29,.54-.53l.2,.07c-.1,.32-.25,.64-.46,.95s-.49,.58-.82,.78c-.34,.2-.74,.31-1.22,.31-.51,0-.98-.1-1.4-.31s-.75-.55-1-1.03c-.25-.48-.37-1.12-.37-1.93s.14-1.39,.41-1.88,.64-.84,1.11-1.07c.47-.23,.99-.34,1.57-.34Z"/>
      <path d="M46.64,2.99c.29,0,.51,.06,.67,.19,.16,.12,.27,.28,.34,.47,.06,.19,.1,.37,.1,.56,0,.36-.1,.65-.31,.86-.2,.21-.47,.32-.8,.32-.35,0-.62-.08-.8-.24-.18-.16-.27-.37-.27-.62,0-.27,.06-.5,.17-.67,.12-.18,.26-.32,.44-.44-.14,0-.27,.03-.38,.08-.1,.04-.19,.1-.28,.17-.09,.07-.16,.15-.23,.25-.06,.09-.11,.19-.15,.31-.04,.11-.05,.23-.05,.35v3.6c0,.38,.08,.64,.24,.78,.16,.14,.42,.2,.79,.2v.25c-.18,0-.46-.02-.82-.03-.36-.01-.74-.02-1.12-.02-.36,0-.72,0-1.09,.02-.37,.01-.64,.02-.83,.03v-.25c.25,0,.42-.06,.52-.18,.1-.12,.15-.35,.15-.68v-3.8c0-.36-.05-.63-.14-.8-.1-.17-.27-.26-.53-.26v-.25c.26,.02,.5,.04,.74,.04,.4,0,.77-.01,1.12-.04,.35-.03,.67-.07,.97-.13v.86c.1-.21,.23-.38,.38-.51,.15-.13,.33-.23,.52-.29,.2-.06,.41-.1,.64-.1Z"/>
    </g>
    <g>
      <path d="M3.5,9.15c.23,0,.54,.02,.92,.02,.38,0,.76,.01,1.15,.01s.78,0,1.15-.01c.37,0,.63-.01,.78-.01,1.1,0,1.91,.18,2.45,.53,.54,.35,.8,.8,.8,1.36,0,.28-.1,.57-.3,.87-.2,.3-.5,.56-.91,.79-.41,.23-.93,.38-1.56,.46v.02c.82,.04,1.48,.17,1.98,.38,.5,.22,.86,.48,1.08,.79,.22,.31,.34,.63,.34,.95,0,.54-.14,.98-.43,1.32-.29,.34-.7,.6-1.24,.76-.54,.16-1.18,.25-1.93,.25-.19,0-.47,0-.85-.02-.37-.01-.82-.02-1.34-.02-.4,0-.79,0-1.17,0-.38,0-.69,.01-.92,.03v-.24c.25-.02,.43-.05,.55-.1,.12-.05,.2-.14,.24-.29s.06-.36,.06-.65v-5.95c0-.3-.02-.51-.06-.65s-.12-.24-.25-.29c-.12-.05-.31-.08-.55-.09v-.24Zm3.94,.24c-.27,0-.45,.07-.53,.2-.08,.14-.12,.41-.12,.83v5.95c0,.28,.02,.49,.06,.64,.04,.14,.12,.24,.23,.29,.11,.05,.28,.07,.49,.07,.45,0,.77-.18,.98-.55,.2-.36,.31-.88,.31-1.55,0-.62-.15-1.09-.44-1.43-.29-.34-.78-.5-1.46-.5h-.88v-.2h1.03c.31,0,.55-.09,.72-.27,.17-.18,.28-.42,.35-.72,.06-.3,.1-.62,.1-.97,0-.59-.07-1.04-.2-1.34-.13-.3-.35-.45-.64-.45Z"/>
      <path d="M15.07,11.25c.62,0,1.17,.11,1.63,.32,.46,.21,.82,.56,1.07,1.04,.26,.48,.38,1.12,.38,1.93s-.13,1.45-.38,1.93c-.26,.48-.61,.82-1.07,1.03s-1,.31-1.63,.31-1.16-.1-1.62-.31-.82-.55-1.08-1.03-.38-1.12-.38-1.93,.13-1.45,.38-1.93,.62-.83,1.08-1.04c.46-.21,1-.32,1.62-.32Zm0,.24c-.24,0-.44,.24-.6,.72s-.24,1.26-.24,2.33,.08,1.85,.24,2.32c.16,.48,.36,.71,.6,.71s.44-.24,.6-.71c.16-.48,.24-1.25,.24-2.32s-.08-1.85-.24-2.33c-.16-.48-.36-.72-.6-.72Z"/>
      <path d="M21.49,11.42v.25c-.16,0-.27,.04-.33,.11-.06,.07-.05,.17,.03,.3l3.13,4.72c.07,.1,.16,.22,.27,.36,.11,.14,.23,.22,.35,.24v.25c-.15,0-.38-.02-.67-.03-.3-.01-.6-.02-.9-.02-.32,0-.64,0-.95,.02-.31,.01-.55,.02-.71,.03v-.25c.16,0,.27-.04,.33-.11,.06-.07,.05-.17-.03-.3l-3.13-4.72c-.11-.18-.21-.31-.31-.41-.09-.1-.2-.16-.32-.19v-.25c.18,0,.44,.02,.78,.03,.34,.01,.69,.02,1.03,.02,.28,0,.55,0,.82-.02,.26-.01,.46-.02,.6-.03Zm-.67,3.49c.02,.09,.03,.18,.05,.26l-.13,.17c-.26,.34-.41,.66-.44,.97-.03,.31,.03,.56,.19,.76,.16,.2,.38,.31,.66,.34v.24c-.16,0-.37-.01-.62-.02-.26,0-.51,0-.75-.01-.24,0-.44,0-.58,0-.18,0-.33,0-.45,0-.12,0-.24,.01-.35,.03v-.24c.21-.1,.4-.23,.57-.39,.17-.16,.36-.35,.56-.59l1.31-1.51Zm3.71-3.49v.24c-.18,.08-.36,.2-.55,.37s-.38,.37-.58,.61l-1.3,1.5c-.02-.09-.03-.18-.05-.26l.38-.47c.24-.3,.38-.57,.43-.83,.05-.26,0-.47-.12-.64s-.34-.26-.62-.29v-.24c.25,0,.52,.02,.83,.02,.3,0,.56,.01,.77,.01,.18,0,.33,0,.46-.01,.13,0,.24-.02,.35-.02Z"/>
    </g>
  </g>
</svg>