<?xml version="1.0" encoding="UTF-8"?>
<svg id="Layer_2" data-name="Layer 2" xmlns="http://www.w3.org/2000/svg" viewBox="0 0 140.38 142.41">
  <defs>
    <style>
      .cls-1 {
        opacity: .25;
        stroke-width: .51px;
      }

      .cls-1, .cls-2 {
        fill: none;
        stroke: #fff;
        stroke-linecap: round;
        stroke-linejoin: round;
      }

      .cls-2 {
        opacity: .75;
        stroke-width: .71px;
      }

      .cls-3 {
        fill: #fff;
        font-family: Roboto-Regular, Roboto;
        font-size: 7.09px;
        opacity: .5;
      }
    </style>
  </defs>
  <g id="Layer_1-2" data-name="Layer 1">
    <path class="cls-2" d="M97.36,96.34l-19.46-11.25m32.26,4.72h0m-1.37-1.31h-.06l-.06-.06h-.12l-.06,.06h-.06l-.06,.06m1.49,.87l.19,.25,.12,.25m1.31-.75h-.25l-.12,.06m-33.2-1.99l17.59,10.13m13.99-7.02v-.25l-.06-.25-.06-.31-.19-.31-.19-.25-.31-.25-.31-.19m0,0l-23.81-13.74m25.55,14.92l.06,.06m0,0l.12,.06m.93-.5l-.12-.12m0,0l-25.8-14.86m21.51,15.29l-24.06-13.86m24.06,13.86l.25,.19,.19,.19,.06,.19v.06m-.5-.87v.25m3.05-.31h0v.06m-3.05,1.43l.25-.19,.19-.12,.06-.25,.06-.19-.06-.19-.06-.19-.19-.19-.25-.12m-28.91,18.09l28.91-16.66m0-1.43l-23.81-13.74m-.56,.31l24.87,14.36m-1.99-46l14.48,8.33m0,0v1.74m0-1.74l-41.9,24.18m41.9-22.44l-41.9,24.18m0-1.74v1.74m40.41,6.65l1.49,.81m-1.49-.81l-40.41,23.25m41.9-22.44v20.2m0-20.2l-41.9,24.18m0,0v20.14m41.9-24.12l-41.9,24.12m43.39-24.99V35.17m0,0l-1.49,.87m0,70.25l1.49-.87m-1.49-69.38V106.28m-41.9,24.12V60.22m0,0l-1.49,.87m0,70.19l1.49-.87m-1.49-69.31v70.19m0-70.19L19.09,27.96m0,0V98.2m57.32,33.07L19.09,98.2m57.32-37.11l44.88-25.92m0,0v-1.74M63.97,.35L19.09,26.28m102.2,7.15l-44.88,25.92m44.88-25.92L63.97,.35M19.09,26.28v1.68m57.32,33.13L19.09,27.96m57.32,31.39v1.74m0-1.74L19.09,26.28m92.38,62.91l-25.92-14.98m23.25,14.3l-24-13.86m24.99,14.73l-.12-.19-.31-.25-.31-.25-.25-.19m1.43,1.43l-.37-.5"/>
    <text class="cls-3" transform="translate(21.74 117.66) rotate(30)"><tspan x="0" y="0" xml:space="preserve"> 46 cm</tspan></text>
    <text class="cls-3" transform="translate(136.86 90.48) rotate(-90)"><tspan x="0" y="0" xml:space="preserve"> 50 cm</tspan></text>
    <text class="cls-3" transform="translate(106.04 132.15) rotate(-30)"><tspan x="0" y="0" xml:space="preserve"> 36 cm</tspan></text>
    <path class="cls-1" d="M5.6,111.51l-4.1-3.17m4.79,1.99l-.68,1.18m-4.1-3.17l4.79,1.99m48.43,27.97l4.1,3.17m-4.79-1.99l.68-1.18m4.1,3.17l-4.79-1.99m4.79,1.99L1.5,108.34m16.35-9.45L.25,109.08m74.91,22.94l-17.59,10.13m41.22-2.67l-4.72,1.99m4.1-3.17l.62,1.18m-4.72,1.99l4.1-3.17m35.99-20.76l4.72-1.99m-4.1,3.17l-.62-1.18m4.72-1.99l-4.1,3.17m4.1-3.17l-44.82,25.92m-16.41-9.45l17.66,10.13m27.23-36.06l17.59,10.2m-.56-5.84l-.68,5.1m-.68-5.1h1.37m-.68,5.1l-.68-5.1m0-61.73l.68-5.1m.68,5.1h-1.37m.68-5.1l.68,5.1m-.68-5.1V115.55m-16.35-81.37l17.59,10.13"/>
  </g>
</svg>