<?xml version="1.0" encoding="utf-8"?>
<!-- Generator: Adobe Illustrator 24.1.0, SVG Export Plug-In . SVG Version: 6.00 Build 0)  -->
<svg version="1.1" id="Layer_1" xmlns="http://www.w3.org/2000/svg" xmlns:xlink="http://www.w3.org/1999/xlink" x="0px" y="0px"
	 viewBox="0 0 100 100" style="enable-background:new 0 0 100 100;" xml:space="preserve">
<style type="text/css">
	.st0{fill:#FFFFFF;}
	.st1{fill:none;}
</style>
<g>
	<path class="st0" d="M68.5,61.5c-0.6,0-1.1-0.2-1.5-0.7c-0.7-0.8-0.5-2,0.3-2.7c3.6-2.9,5.7-7.2,5.7-11.9c0-8.4-6.8-15.3-15.3-15.3
		c-7.8,0-14.3,5.8-15.2,13.6c-0.1,1-1.1,1.8-2.1,1.7s-1.8-1.1-1.7-2.1c1.1-9.7,9.3-17,19-17c10.5,0,19.1,8.6,19.1,19.1
		c0,5.8-2.6,11.2-7.1,14.8C69.3,61.3,68.9,61.5,68.5,61.5z"/>
	<path class="st0" d="M57.6,24c-1.1,0-1.9-0.9-1.9-1.9V11.8c0-1.1,0.9-1.9,1.9-1.9c1.1,0,1.9,0.9,1.9,1.9v10.3
		C59.6,23.1,58.7,24,57.6,24z"/>
	<path class="st0" d="M33.5,48.1H23.2c-1.1,0-1.9-0.9-1.9-1.9c0-1.1,0.9-1.9,1.9-1.9h10.3c1.1,0,1.9,0.9,1.9,1.9
		C35.5,47.2,34.6,48.1,33.5,48.1z"/>
	<path class="st0" d="M92,48.1H81.7c-1.1,0-1.9-0.9-1.9-1.9c0-1.1,0.9-1.9,1.9-1.9H92c1.1,0,1.9,0.9,1.9,1.9
		C93.9,47.3,93.1,48.1,92,48.1z"/>
	<path class="st0" d="M74.6,31.2c-0.5,0-1-0.2-1.4-0.6c-0.7-0.7-0.7-2,0-2.7l7.4-7.4c0.7-0.7,2-0.7,2.7,0s0.7,2,0,2.7l-7.4,7.4
		C75.5,31,75.1,31.2,74.6,31.2z"/>
	<path class="st0" d="M40.7,31.2c-0.5,0-1-0.2-1.4-0.6L32,23.2c-0.7-0.7-0.7-2,0-2.7s2-0.7,2.7,0l7.4,7.4c0.7,0.7,0.7,2,0,2.7
		C41.7,31,41.2,31.2,40.7,31.2z"/>
	<path class="st0" d="M81.9,72.4c-0.5,0-1-0.2-1.4-0.6l-7.4-7.4c-0.7-0.7-0.7-2,0-2.7s2-0.7,2.7,0l7.4,7.4c0.7,0.7,0.7,2,0,2.7
		C82.9,72.2,82.4,72.4,81.9,72.4z"/>
	<path class="st0" d="M19.4,90.1C12,90.1,6,84.1,6,76.7c0-6.4,4.4-11.7,10.4-13c-0.1-0.5-0.1-1.1-0.1-1.6c0-5,4.1-9.1,9.1-9.1
		c1.7,0,3.3,0.4,4.7,1.3c3.8-5,9.7-8,16.1-8c10.1,0,18.5,7.4,20,17.2c7,0.5,12.5,6.3,12.5,13.4c0,7.3-6,13.3-13.3,13.4L19.4,90.1z
		 M25.4,56.8c-2.9,0-5.3,2.4-5.3,5.3c0,0.8,0.2,1.6,0.6,2.4c0.3,0.6,0.3,1.3-0.1,1.8c-0.3,0.6-0.9,0.9-1.6,0.9
		c-5.1,0.2-9.2,4.4-9.2,9.5c0,5.2,4.3,9.5,9.5,9.6h46c5.2,0,9.4-4.3,9.5-9.6c0-5.3-4.3-9.6-9.6-9.6c-0.2,0-0.4,0-0.7,0
		c-0.5,0-1-0.1-1.4-0.5c-0.4-0.3-0.6-0.8-0.6-1.3c-0.5-8.6-7.8-15.4-16.4-15.4c-5.8,0-11.1,3-14.1,7.9c-0.3,0.5-0.8,0.8-1.4,0.9
		c-0.6,0.1-1.2-0.1-1.6-0.6C28.1,57.3,26.8,56.8,25.4,56.8z"/>
</g>
<rect class="st1" width="100" height="100"/>
</svg>
