<svg width="60" height="80" viewBox="0 0 60 80" fill="none" xmlns="http://www.w3.org/2000/svg">
<path d="M11 68.9994V6.99929C11 6.44818 11.4482 6 11.9993 6H47.5008C48.0523 6 48.5001 6.4468 48.5001 6.99929V68.9994C48.5001 71.4855 46.4856 73.5 43.9995 73.5H15.5006C13.0145 73.5 11 71.4855 11 68.9994Z" fill="white" stroke="#455A64"/>
<path d="M13.5003 21.1525C13.5003 21.0396 13.5391 20.9285 13.6097 20.8403L13.7508 20.7203C13.8266 20.6763 13.913 20.6533 14.0012 20.6533H45.5005C45.5887 20.6533 45.6751 20.6763 45.751 20.7203L45.8921 20.8403C45.9626 20.9285 46.0014 21.0396 46.0014 21.1525V41.2924C46.0014 41.4053 45.9626 41.5164 45.8921 41.6046L45.751 41.7245C45.6751 41.7686 45.5887 41.7916 45.5005 41.7916H13.9995C13.9113 41.7916 13.8249 41.7686 13.749 41.7245L13.6079 41.6046C13.5373 41.5164 13.4985 41.4053 13.4985 41.2924V21.1525" fill="#455A64"/>
<path d="M13.5003 65.4526C13.5003 65.5655 13.5391 65.6766 13.6097 65.7648L13.7508 65.8847C13.8266 65.9288 13.913 65.9517 14.0012 65.9517H45.5005C45.5887 65.9517 45.6751 65.9288 45.751 65.8847L45.8921 65.7648C45.9626 65.6766 46.0014 65.5655 46.0014 65.4526V61.1681C46.0014 61.0552 45.9626 60.9441 45.8921 60.8559L45.751 60.736C45.6751 60.6919 45.5887 60.6689 45.5005 60.6689H13.9995C13.9113 60.6689 13.8249 60.6919 13.749 60.736L13.6079 60.8559C13.5373 60.9441 13.4985 61.0552 13.4985 61.1681V65.4526H13.5003Z" fill="#455A64"/>
</svg>
