<?xml version="1.0" encoding="utf-8"?>
<!-- Generator: Adobe Illustrator 21.0.2, SVG Export Plug-In . SVG Version: 6.00 Build 0)  -->
<svg version="1.1" id="Layer_1" xmlns="http://www.w3.org/2000/svg" xmlns:xlink="http://www.w3.org/1999/xlink" x="0px" y="0px"
	 viewBox="0 0 100 100" style="enable-background:new 0 0 100 100;" xml:space="preserve">
<g fill="#FFE11A">
	<path d="M55.3,43.9v-0.1C55.3,43.8,55.3,43.9,55.3,43.9L55.3,43.9z"/>
	<path d="M50,0C22.4,0,0,22.4,0,50c0,27.6,22.4,50,50,50c27.6,0,50-22.4,50-50C100,22.4,77.6,0,50,0z M36.8,74.6H24.8V38.7h11.9
		V74.6z M30.8,33.8L30.8,33.8c-4.1,0-6.7-2.8-6.7-6.2c0-3.5,2.7-6.2,6.8-6.2c4.1,0,6.6,2.7,6.7,6.2C37.6,31,35,33.8,30.8,33.8z
		 M79.9,74.6h-12V55.4c0-4.8-1.7-8.1-6.1-8.1c-3.3,0-5.3,2.2-6.1,4.4c-0.3,0.8-0.4,1.8-0.4,2.9v20.1h-12c0,0,0.2-32.6,0-35.9h12v5.1
		c1.6-2.4,4.4-5.9,10.8-5.9C74,37.8,79.9,43,79.9,54V74.6z"/>
</g>
</svg>
