<?xml version="1.0" encoding="utf-8"?>
<!-- Generator: Adobe Illustrator 21.0.2, SVG Export Plug-In . SVG Version: 6.00 Build 0)  -->
<svg version="1.1" id="Layer_1" xmlns="http://www.w3.org/2000/svg" xmlns:xlink="http://www.w3.org/1999/xlink" x="0px" y="0px"
	 viewBox="0 0 565.8 100" style="enable-background:new 0 0 565.8 100;" xml:space="preserve">

<g fill="#BEDB39">
	<path d="M199,24.5c-5,0-8.8,1.8-11.7,4.3l1.6-7.5h-14.4l-7.6,35.8h0c-2.2,5.2-4,8.8-8.4,8.8c-3,0-4-1.7-4-4.2
		c0-5.6,4.8-17.7,4.8-25.8c0-8-4.7-11.3-11.1-11.3c-3.7,0-9.1,1.1-13.9,8.5c-1.1-6.2-5-8.6-10.3-8.6c-3.5,0-8,0.9-12.2,5.7l1.1-5.2
		H98.5l-2.8,13.4c-2.8,1.2-5.6,1.9-8,1.9c-0.3,0-0.7,0-1.1-0.2c0-10.5-4.2-16-12.8-16c-20.3,0-27.2,23.2-27.4,34.9
		c-4.6,5-10.9,8-17.8,8c-9.6,0-12-6.4-12-15.6c0-20.4,9.8-46.7,20.8-46.7c4.5,0,6.1,2.9,6.1,6.1c0,3.8-2.2,8-4.6,9.2
		c1.9,2.2,4.1,2.6,5.7,2.6c5.1,0,7-3.9,7-9.2C51.6,3.7,44.3,0,34.9,0C8.7,0,0,33.9,0,52c0,18,7.1,24.6,21.9,24.6
		c7.5,0,18.4-3.6,25-12.3c1.6,7.9,7.6,11.1,15.5,11.1c12.3,0,22.3-11.6,23.9-30.1c3-0.5,5.8-1.3,8.4-2.3l-6.8,32h14.4l6.8-32.1
		c1.5-5,4.2-9.3,8.1-9.3c2.2,0,3,2.2,3,4.4c0,0.9-0.1,1.7-0.3,2.5L112.6,75H127l6.8-32.1c1.5-5,4.2-9.2,7.8-9.2
		c2.4,0,3.6,1.8,3.6,5.1c0,6.4-4.5,18.7-4.5,25.5c0,5.7,3.1,11.3,11.8,11.3c3.3,0,7.6-0.8,11.6-5.4l-6.3,29.8l15.1-3.6l5.2-24.4
		c1.1,1.9,3.5,3.6,8.5,3.6c19.4,0,24.6-21.8,24.6-35.3C211.2,28.4,205.8,24.5,199,24.5z M78,45.6c-1.6,11.8-6.7,20.8-11.6,20.8
		c-3.8,0-5.1-1.5-5.1-8.1c0-9.8,6.2-28.1,13.3-28.1c2.6,0,3.6,1.6,3.8,5.8c-1.8,0.8-3.1,2.6-3.1,5.4C75.3,43.4,75.9,45.1,78,45.6z
		 M183.5,66.9c-2.3,0-3.4-1.2-3.8-2.3l5.9-28c1.9-3.2,4.7-4.9,6.9-4.9c1.8,0,5,0.6,5,8.3C197.5,49.4,194,66.9,183.5,66.9z"/>
	<path d="M341.5,57.1c-1.5,5-4.1,8.8-8,8.8c-2.3,0-3-2.1-3-4.4c0-0.8,0.1-1.7,0.3-2.5l7.2-34h-14.4l-6.8,32.1h0
		c-2.2,5.2-4,8.8-8.4,8.8c-3,0-4-1.7-4-4.2c0-5.6,4.8-17.7,4.8-25.8c0-8-4.7-11.3-11.1-11.3c-3.1,0-7.5,0.8-11.7,5.6l1.1-5.2h-14.4
		l-6.8,32.1h0c-1.5,5-4.2,9.4-8.1,9.4c-2.8,0-4.1-1.5-4.1-4.3c0-0.9,0.1-1.9,0.4-3.2l7.2-34h-14.4l-1.1,5.3v-0.7
		c0-2.9-2.4-5.1-8.1-5.1c-17.4,0-25.7,21.5-25.7,35c0,11.9,6.5,16.1,13.3,16.1c7.1,0,11.8-4.6,14.9-9.2c0.6,6,4.2,9.2,9.8,9.2
		c3.5,0,8.6-0.9,13.3-6.2l-1.2,5.6h14.4l6.8-32.1c1.5-5,4.2-9.2,7.8-9.2c2.4,0,3.6,1.8,3.6,5.1c0,6.4-4.5,18.7-4.5,25.5
		c0,5.7,3.1,11.3,11.8,11.3c3.9,0,9.2-1.2,13.9-8.5c1.2,5.9,5.3,8.5,10.4,8.5c3.4,0,7.9-0.9,12.2-5.8l-1,4.4
		c-9.5,2.8-17.3,5.7-17.3,15c0,6.5,5.7,10.8,11.8,10.8c6.6,0,15.2-2.7,18.2-17l12.2-58h-14.5L341.5,57.1z M240.5,57.1
		c-1.2,5.8-5.4,8.8-8.3,8.8c-1.8,0-5-0.1-5-7.8c0-9.4,5.5-27.4,14-27.4c3.2,0,4.1,2.6,4.1,3.8L240.5,57.1z M336,83.3
		c-1.3,5.9-3.9,7.8-5.9,7.8c-2.2,0-4-1.9-4-3.3c0-5.4,4.8-8.3,11.1-10.4L336,83.3z"/>
	<path d="M408.8,73l15.4-71.8c-1.3-0.1-2.6-0.2-4-0.2c-16.7,0-35.1,12.7-35.1,26c0,7.2,3.8,9.7,10.7,9.7c-0.1-0.9-1.4-1.7-1.4-6.8
		c0-10.7,5.3-18.2,14-21.8l-14.9,69.3c0.8-0.1,1.5-0.1,2.3-0.1c17.7,0,30.3,22.7,44.6,22.7c5.4,0,9.4-6.1,10.4-15.7
		c-2.9,1.2-5.7,1.6-8.4,1.6C429.7,85.9,419.2,75.3,408.8,73z"/>
	<path d="M562.6,30.7c-1.1,1.9-3.6,6.2-7.1,6.9c-0.6-8.9-4.8-13.5-12.7-13.5c-20.6,0-27.1,24-27.1,35.5c0,0.4,0,0.7,0,1.1
		c-2.6,6.1-6.1,8.8-11.2,10.7l9.9-46.4H500l-1.1,5.2v-0.6c0-2.9-2.4-5.1-8.1-5.1c-9.2,0-15.9,6-20.1,13.7c-2.9,1.2-5.9,2.1-8.3,2.1
		c-0.3,0-0.7,0-1.1-0.2c0-10.5-4.2-16-12.8-16c-20.6,0-27.4,24-27.4,35.5c0,11.4,6.7,15.8,16,15.8c12.3,0,22.3-11.6,23.9-30.1
		c2.5-0.4,5-1.1,7.3-1.9c-2.1,5.5-3.2,11.3-3.2,16.1c0,11.9,6.5,16.1,13.3,16.1c5.2,0,9.1-2.4,12-5.5l-1.2,5.3
		c-7.5,2.3-16.3,6.5-16.3,14.9c0,6.5,5.1,9.7,11.2,9.7c6.6,0,15-2.7,18-17l1.5-7.2c4.3-1.2,9.3-3.4,13.3-9.1
		c2.3,6.1,7.8,8.7,14.9,8.7c12.6,0,22.6-12.1,23.8-31.3c5.3-2.9,8.3-9.1,10.3-13.4H562.6z M452.7,45.6c-1.6,11.8-6.7,20.8-11.6,20.8
		c-3.8,0-5.1-1.5-5.1-8.1c0-9.8,6.2-28.1,13.3-28.1c2.6,0,3.6,1.6,3.8,5.8c-1.8,0.8-3.1,2.6-3.1,5.4C450,43.4,450.6,45.1,452.7,45.6
		z M487.6,83.3c-1.3,5.9-3.7,8.9-5.8,8.9c-2.2,0-3.4-1.9-3.4-3.3c0-4,4.7-6.6,9.8-8.5L487.6,83.3z M492.9,58.1
		c-1.4,5.1-5.3,7.8-8,7.8c-1.8,0-5-0.1-5-7.8c0-9.4,5.5-27.4,14-27.4c3.2,0,4,2.6,4.1,3.7L492.9,58.1z M547,45.6
		c-1.5,11.8-6.4,20.8-11.3,20.8c-3.8,0-5.1-1.5-5.1-8.1c0-9.8,5.9-28.1,13-28.1c2.5,0,3.6,1.5,3.8,5.7c-1.7,0.8-2.8,2.5-2.8,5.2
		C544.6,43.6,545.4,45,547,45.6z"/>
</g>
</svg>
