<?xml version="1.0" standalone="no"?>
<!DOCTYPE svg PUBLIC "-//W3C//DTD SVG 20010904//EN"
 "http://www.w3.org/TR/2001/REC-SVG-20010904/DTD/svg10.dtd">
<svg version="1.0" xmlns="http://www.w3.org/2000/svg"
 width="700.000000pt" height="700.000000pt" viewBox="0 0 700.000000 700.000000"
 preserveAspectRatio="xMidYMid meet">
<metadata>
Created by potrace 1.11, written by Peter Selinger 2001-2013
</metadata>
<g transform="translate(0.000000,700.000000) scale(0.100000,-0.100000)"
fill="#000000" stroke="none">
<path d="M3269 6996 c-2 -2 -42 -7 -89 -10 -47 -3 -98 -8 -115 -11 -36 -6 -86
-13 -140 -21 -64 -9 -263 -53 -345 -75 -304 -84 -634 -227 -905 -392 -32 -20
-229 -151 -245 -164 -8 -6 -51 -40 -95 -74 -744 -578 -1227 -1464 -1322 -2424
-10 -101 -10 -567 0 -660 16 -149 40 -291 72 -435 137 -616 458 -1208 898
-1659 279 -285 571 -504 907 -678 264 -136 607 -262 845 -309 117 -23 176 -34
209 -39 21 -3 48 -7 60 -10 122 -27 595 -40 801 -22 87 8 114 11 193 23 20 3
53 7 72 10 119 15 413 91 590 151 159 54 444 185 573 263 36 22 69 40 72 40 3
0 11 5 18 10 7 6 64 44 127 86 250 166 470 360 711 630 78 87 257 333 324 446
101 170 171 308 260 513 61 140 165 491 190 640 2 11 6 34 9 50 11 55 25 149
32 205 3 30 8 66 11 80 2 14 6 140 8 280 3 230 -6 394 -29 559 -87 596 -332
1173 -701 1646 -150 192 -351 402 -515 535 -30 25 -60 50 -68 57 -7 7 -60 46
-117 88 -448 327 -990 553 -1510 632 -27 4 -52 8 -55 8 -3 1 -36 5 -75 9 -38
5 -79 11 -90 13 -24 6 -561 14 -566 9z m-559 -2009 c93 -15 125 -22 205 -44
168 -48 266 -95 450 -218 92 -62 103 -67 142 -62 30 3 59 17 96 45 166 125
341 204 572 258 110 25 137 28 315 28 163 0 212 -4 297 -22 465 -100 840 -384
1050 -797 45 -88 104 -242 117 -307 3 -13 7 -34 11 -48 35 -162 41 -435 11
-585 -21 -109 -68 -258 -107 -343 -16 -35 -29 -65 -29 -67 0 -2 -23 -41 -51
-87 -244 -400 -645 -665 -1099 -726 -70 -9 -305 -9 -390 1 -85 9 -247 49 -335
82 -118 45 -308 148 -353 192 -26 25 -76 46 -113 47 -30 0 -56 -12 -136 -65
-192 -130 -402 -216 -593 -245 -14 -2 -54 -8 -90 -13 -81 -12 -356 -7 -430 9
-280 57 -492 153 -685 308 -300 242 -485 564 -553 962 -3 19 -6 118 -6 220 0
158 3 200 23 290 112 502 445 902 905 1087 150 60 253 86 431 107 36 4 309 -1
345 -7z"/>
<path d="M2498 4545 c-2 -1 -37 -5 -78 -9 -129 -10 -227 -35 -338 -87 -35 -16
-67 -29 -72 -29 -6 0 -10 -4 -10 -9 0 -5 -10 -12 -22 -15 -55 -14 -231 -170
-313 -276 -232 -302 -269 -727 -93 -1086 114 -232 346 -437 589 -518 134 -45
172 -50 344 -50 152 1 180 4 270 28 114 30 279 108 301 141 23 35 31 77 23
111 -6 21 -65 87 -187 207 -98 98 -187 184 -198 192 -27 18 -74 25 -96 13 -32
-16 -158 -17 -210 -1 -152 45 -256 176 -259 328 -2 64 11 127 34 175 23 46 95
126 136 149 124 69 296 61 399 -19 15 -12 270 -263 567 -559 449 -447 555
-547 628 -595 184 -120 336 -167 552 -172 149 -3 240 9 355 47 361 119 623
416 701 794 14 69 18 284 5 365 -11 72 -51 199 -88 280 -139 297 -448 526
-783 579 -62 10 -297 8 -350 -3 -94 -20 -190 -52 -272 -92 -113 -54 -136 -83
-130 -158 4 -48 6 -50 192 -236 197 -197 220 -213 285 -198 19 5 67 10 105 12
147 8 282 -79 340 -218 23 -55 26 -72 26 -136 0 -65 -4 -83 -26 -136 -68 -165
-242 -252 -417 -209 -106 27 -55 -20 -781 701 -245 243 -471 461 -502 484 -82
60 -207 124 -300 153 -96 30 -128 36 -220 43 -38 2 -78 6 -87 8 -9 2 -18 3
-20 1z"/>
</g>
</svg>
