<?xml version="1.0" encoding="utf-8"?>
<!-- Generator: Adobe Illustrator 26.5.0, SVG Export Plug-In . SVG Version: 6.00 Build 0)  -->
<svg version="1.1" id="Layer_1" xmlns="http://www.w3.org/2000/svg" xmlns:xlink="http://www.w3.org/1999/xlink" x="0px" y="0px"
	 viewBox="0 0 32 32" style="enable-background:new 0 0 32 32;" xml:space="preserve">
<style type="text/css">
	.st0{fill:#2D2F30;}
</style>
<g>
	<path class="st0" d="M13.9,17.6c0-0.9-0.7-1.6-1.6-1.6c-0.9,0-1.6,0.7-1.6,1.6c0,0.9,0.7,1.6,1.6,1.6
		C13.1,19.2,13.9,18.5,13.9,17.6z"/>
	<path class="st0" d="M19.7,16.1c-0.9,0-1.6,0.7-1.6,1.6c0,0.9,0.7,1.6,1.6,1.6l0,0.1c0,0,0.1,0,0.1,0c0.9,0,1.6-0.8,1.5-1.7
		C21.3,16.8,20.5,16.1,19.7,16.1z"/>
	<path class="st0" d="M19.3,21.4c-1,0.7-2.2,1-3.3,1c-1.2,0.1-2.4-0.3-3.3-1c-0.2-0.1-0.4-0.1-0.5,0c-0.2,0.2-0.2,0.4-0.1,0.6
		c1.1,0.9,2.5,1.3,4,1.2c1.4,0.1,2.8-0.4,4-1.2v0.1c0.2-0.2,0.2-0.5,0-0.6C19.8,21.3,19.5,21.3,19.3,21.4z"/>
	<path class="st0" d="M0,0v32h32V0H0z M25.4,18.1c0,0.2,0,0.5,0,0.7c0,3.6-4.2,6.5-9.3,6.5c-5.2,0-9.3-2.9-9.3-6.5
		c0-0.2,0-0.5,0-0.7c-0.2-0.1-0.4-0.3-0.6-0.4c-0.9-0.9-1-2.4-0.1-3.3c0.9-0.9,2.4-1,3.3-0.1c1.8-1.2,4-1.9,6.2-2l1.2-5.6
		c0,0,0,0,0,0c0.1-0.3,0.3-0.4,0.6-0.4l3.9,0.8c0.3-0.4,0.7-0.7,1.2-0.8c0.9-0.1,1.7,0.5,1.8,1.4c0.1,0.9-0.5,1.7-1.4,1.8
		c-0.9,0.1-1.7-0.5-1.8-1.4l-3.4-0.7l-1,5c2.2,0,4.3,0.7,6.2,2c0.4-0.4,1-0.6,1.5-0.6c1.3,0,2.4,1,2.4,2.3
		C26.7,16.9,26.2,17.7,25.4,18.1z"/>
</g>
</svg>
