<?xml version="1.0" encoding="utf-8"?>
<!-- Generator: Adobe Illustrator 22.0.1, SVG Export Plug-In . SVG Version: 6.00 Build 0)  -->
<svg version="1.1" id="Layer_1" xmlns="http://www.w3.org/2000/svg" xmlns:xlink="http://www.w3.org/1999/xlink" x="0px" y="0px"
	 viewBox="0 0 209.3 63.2" style="enable-background:new 0 0 209.3 63.2;" xml:space="preserve">
<style type="text/css">
	.st0{fill:#FFFFFF;}
</style>
<path class="st0" d="M15,0c4.6,0,8.3,1.5,11.1,4.4c2.6,2.8,3.8,6.4,3.8,10.7v9.2c0,4.2-1.5,7.7-4.4,10.7s-6.4,4.4-10.6,4.4H9.5v23.8
	H0V0H15z M20.7,15.2c0-1.6-0.5-3-1.5-4s-2.3-1.5-4-1.5H9.5V30h5.8c1.5,0,2.8-0.5,3.9-1.6s1.6-2.4,1.6-3.9v-9.3H20.7z"/>
<path class="st0" d="M51.6,0.1c4.2,0,7.8,1.5,10.7,4.4c2.9,3,4.4,6.5,4.4,10.7v9.1c0,4.2-1.5,7.8-4.4,10.7c-3,2.9-6.5,4.4-10.7,4.4
	s-7.8-1.5-10.7-4.4c-2.9-3-4.4-6.5-4.4-10.7v-9.1C36.5,11,38,7.4,41,4.5C43.9,1.5,47.5,0.1,51.6,0.1z M56.8,15
	c0-1.5-0.5-2.8-1.6-3.9s-2.3-1.6-3.9-1.6c-1.5,0-2.8,0.5-3.9,1.6c-1.1,1.1-1.6,2.3-1.6,3.9v9.2c0,1.5,0.5,2.8,1.6,3.9
	s2.4,1.6,3.9,1.6s2.8-0.5,3.9-1.6c1.1-1.1,1.6-2.3,1.6-3.9V15z"/>
<path class="st0" d="M122.3,9.6h-10.1V0H142v9.6h-10.1v53.6h-9.5L122.3,9.6L122.3,9.6z"/>
<path class="st0" d="M153.1,48.7l-2.3,14.5H141L151.6,0h13.1l10.6,63.2h-10l-2.2-14.5H153.1z M158.1,14.5l-3.5,24.9h7.1L158.1,14.5z
	"/>
<path class="st0" d="M209.4,63.2h-26V0h9.5v53.7h16.4v9.5H209.4z"/>
<path class="st0" d="M100.1,35.6c3.4-3.1,5.1-6.9,5.1-11.3v-9.2c0-4.6-1.1-8.1-3.3-10.7C99.4,1.5,95.5,0,90.2,0h-15v39.4h9.5h5.5
	c0.3,0,0.6,0,0.9,0l5.8,23.8h10.3L100.1,35.6z M95.9,24.5c0,1.5-0.5,2.8-1.6,3.9c-1.1,1-2.3,1.6-3.9,1.6h-5.8V9.7h5.8
	c3.6,0,5.4,1.8,5.4,5.5L95.9,24.5L95.9,24.5z"/>
<g>
	<path class="st0" d="M23.5,63.2c-0.9,0-1.7-0.3-2.3-1c-0.6-0.6-1-1.4-1-2.3v-7.1c0-0.9,0.3-1.7,1-2.3c0.6-0.6,1.4-1,2.3-1
		c0.9,0,1.7,0.3,2.3,1c0.6,0.6,0.9,1.4,0.9,2.3v1.6h-2.1v-1.6c0-0.3-0.1-0.6-0.3-0.8c-0.2-0.2-0.5-0.3-0.8-0.3s-0.6,0.1-0.8,0.3
		c-0.2,0.2-0.3,0.5-0.3,0.8v7.2c0,0.3,0.1,0.6,0.3,0.8c0.2,0.2,0.5,0.3,0.8,0.3s0.6-0.1,0.8-0.3c0.2-0.2,0.3-0.5,0.3-0.8V58h-1.1V56
		h3.3v4c0,0.9-0.3,1.7-1,2.3C25.2,62.9,24.4,63.2,23.5,63.2z"/>
	<path class="st0" d="M32.3,60.1l-0.5,3.1h-2.1l2.3-13.7h2.8l2.3,13.7h-2.2l-0.5-3.1H32.3z M33.3,52.7L32.6,58h1.5L33.3,52.7z"/>
	<path class="st0" d="M45.5,63.2h-5.6V49.5H42v11.6h3.6V63.2z"/>
	<path class="st0" d="M54,63.2h-5.6V49.5h2.1v11.6H54V63.2z"/>
	<path class="st0" d="M56.8,63.2V49.5h5.9v2.1h-3.8v3.7h2.8v2.1h-2.8v3.7h3.8v2.1H56.8z"/>
	<path class="st0" d="M68.8,49.5c1.1,0,2,0.3,2.5,0.9c0.5,0.6,0.7,1.3,0.7,2.3v2c0,1-0.4,1.8-1.1,2.5l1.5,6h-2.2L69,58
		c-0.1,0-0.1,0-0.2,0h-1.2v5.2h-2.1V49.5H68.8z M70,52.8c0-0.8-0.4-1.2-1.2-1.2h-1.2V56h1.2c0.3,0,0.6-0.1,0.8-0.3
		c0.2-0.2,0.3-0.5,0.3-0.8V52.8z"/>
	<path class="st0" d="M78,57.5l-2.8-8h2.3l1.5,4.9l1.5-4.9h2.3l-2.8,8v5.7H78V57.5z"/>
</g>
</svg>
