<svg width="60" height="80" viewBox="0 0 60 80" fill="none" xmlns="http://www.w3.org/2000/svg">
<path d="M11 68.9994V6.99929C11 6.44818 11.4482 6 11.9993 6H47.5008C48.0523 6 48.5001 6.4468 48.5001 6.99929V68.9994C48.5001 71.4855 46.4856 73.5 43.9995 73.5H15.5006C13.0145 73.5 11 71.4855 11 68.9994Z" fill="white" stroke="#455A64"/>
<path d="M39.4997 17.875H20.0001C19.4478 17.875 19 18.3228 19 18.8751V21.3745C19 21.9269 19.4478 22.3746 20.0001 22.3746H39.4997C40.0521 22.3746 40.4998 21.9269 40.4998 21.3745V18.8751C40.4998 18.3228 40.0521 17.875 39.4997 17.875Z" fill="white" stroke="white"/>
<path d="M42.7487 55.5004C43.9918 55.5004 44.9994 54.4927 44.9994 53.2497C44.9994 52.0067 43.9918 50.999 42.7487 50.999C41.5057 50.999 40.498 52.0067 40.498 53.2497C40.498 54.4927 41.5057 55.5004 42.7487 55.5004Z" fill="#ECEFF1"/>
<path d="M36.2492 62.0004C37.4923 62.0004 38.4999 60.9928 38.4999 59.7497C38.4999 58.5067 37.4923 57.499 36.2492 57.499C35.0062 57.499 33.9985 58.5067 33.9985 59.7497C33.9985 60.9928 35.0062 62.0004 36.2492 62.0004Z" fill="#455A64"/>
<path d="M42.7487 49.0004C43.9918 49.0004 44.9994 47.9928 44.9994 46.7497C44.9994 45.5067 43.9918 44.499 42.7487 44.499C41.5057 44.499 40.498 45.5067 40.498 46.7497C40.498 47.9928 41.5057 49.0004 42.7487 49.0004Z" fill="#ECEFF1"/>
<path d="M36.2492 49.0004C37.4923 49.0004 38.4999 47.9928 38.4999 46.7497C38.4999 45.5067 37.4923 44.499 36.2492 44.499C35.0062 44.499 33.9985 45.5067 33.9985 46.7497C33.9985 47.9928 35.0062 49.0004 36.2492 49.0004Z" fill="#455A64"/>
<path d="M23.2492 49.0004C24.4923 49.0004 25.4999 47.9928 25.4999 46.7497C25.4999 45.5067 24.4923 44.499 23.2492 44.499C22.0062 44.499 20.9985 45.5067 20.9985 46.7497C20.9985 47.9928 22.0062 49.0004 23.2492 49.0004Z" fill="#455A64"/>
<path d="M23.2492 68.5004C24.4923 68.5004 25.4999 67.4928 25.4999 66.2497C25.4999 65.0067 24.4923 63.999 23.2492 63.999C22.0062 63.999 20.9985 65.0067 20.9985 66.2497C20.9985 67.4928 22.0062 68.5004 23.2492 68.5004Z" fill="#455A64"/>
<path d="M29.7492 49.0004C30.9923 49.0004 31.9999 47.9928 31.9999 46.7497C31.9999 45.5067 30.9923 44.499 29.7492 44.499C28.5062 44.499 27.4985 45.5067 27.4985 46.7497C27.4985 47.9928 28.5062 49.0004 29.7492 49.0004Z" fill="#455A64"/>
<path d="M42.7487 68.5004C43.9918 68.5004 44.9994 67.4928 44.9994 66.2497C44.9994 65.0067 43.9918 63.999 42.7487 63.999C41.5057 63.999 40.498 65.0067 40.498 66.2497C40.498 67.4928 41.5057 68.5004 42.7487 68.5004Z" fill="#ECEFF1"/>
<path d="M29.7492 68.5004C30.9923 68.5004 31.9999 67.4928 31.9999 66.2497C31.9999 65.0067 30.9923 63.999 29.7492 63.999C28.5062 63.999 27.4985 65.0067 27.4985 66.2497C27.4985 67.4928 28.5062 68.5004 29.7492 68.5004Z" fill="#ECEFF1"/>
<path d="M42.7487 62.0004C43.9918 62.0004 44.9994 60.9928 44.9994 59.7497C44.9994 58.5067 43.9918 57.499 42.7487 57.499C41.5057 57.499 40.498 58.5067 40.498 59.7497C40.498 60.9928 41.5057 62.0004 42.7487 62.0004Z" fill="#ECEFF1"/>
<path d="M29.7492 55.5004C30.9923 55.5004 31.9999 54.4927 31.9999 53.2497C31.9999 52.0067 30.9923 50.999 29.7492 50.999C28.5062 50.999 27.4985 52.0067 27.4985 53.2497C27.4985 54.4927 28.5062 55.5004 29.7492 55.5004Z" fill="#455A64"/>
<path d="M16.7492 42.5004C17.9923 42.5004 18.9999 41.4928 18.9999 40.2497C18.9999 39.0067 17.9923 37.999 16.7492 37.999C15.5062 37.999 14.4985 39.0067 14.4985 40.2497C14.4985 41.4928 15.5062 42.5004 16.7492 42.5004Z" fill="#ECEFF1"/>
<path d="M36.2492 55.5004C37.4923 55.5004 38.4999 54.4927 38.4999 53.2497C38.4999 52.0067 37.4923 50.999 36.2492 50.999C35.0062 50.999 33.9985 52.0067 33.9985 53.2497C33.9985 54.4927 35.0062 55.5004 36.2492 55.5004Z" fill="#455A64"/>
<path d="M16.7492 62.0004C17.9923 62.0004 18.9999 60.9928 18.9999 59.7497C18.9999 58.5067 17.9923 57.499 16.7492 57.499C15.5062 57.499 14.4985 58.5067 14.4985 59.7497C14.4985 60.9928 15.5062 62.0004 16.7492 62.0004Z" fill="#ECEFF1"/>
<path d="M29.7492 42.5004C30.9923 42.5004 31.9999 41.4928 31.9999 40.2497C31.9999 39.0067 30.9923 37.999 29.7492 37.999C28.5062 37.999 27.4985 39.0067 27.4985 40.2497C27.4985 41.4928 28.5062 42.5004 29.7492 42.5004Z" fill="#ECEFF1"/>
<path d="M23.2492 55.5004C24.4923 55.5004 25.4999 54.4927 25.4999 53.2497C25.4999 52.0067 24.4923 50.999 23.2492 50.999C22.0062 50.999 20.9985 52.0067 20.9985 53.2497C20.9985 54.4927 22.0062 55.5004 23.2492 55.5004Z" fill="#455A64"/>
<path d="M16.7507 68.5014C17.9937 68.5014 19.0014 67.4937 19.0014 66.2507C19.0014 65.0077 17.9937 64 16.7507 64C15.5077 64 14.5 65.0077 14.5 66.2507C14.5 67.4937 15.5077 68.5014 16.7507 68.5014Z" fill="#ECEFF1"/>
<path d="M42.7487 42.5004C43.9918 42.5004 44.9994 41.4928 44.9994 40.2497C44.9994 39.0067 43.9918 37.999 42.7487 37.999C41.5057 37.999 40.498 39.0067 40.498 40.2497C40.498 41.4928 41.5057 42.5004 42.7487 42.5004Z" fill="#ECEFF1"/>
<path d="M23.2492 62.0004C24.4923 62.0004 25.4999 60.9928 25.4999 59.7497C25.4999 58.5067 24.4923 57.499 23.2492 57.499C22.0062 57.499 20.9985 58.5067 20.9985 59.7497C20.9985 60.9928 22.0062 62.0004 23.2492 62.0004Z" fill="#455A64"/>
<path d="M29.7492 62.0004C30.9923 62.0004 31.9999 60.9928 31.9999 59.7497C31.9999 58.5067 30.9923 57.499 29.7492 57.499C28.5062 57.499 27.4985 58.5067 27.4985 59.7497C27.4985 60.9928 28.5062 62.0004 29.7492 62.0004Z" fill="#455A64"/>
<path d="M16.7492 49.0004C17.9923 49.0004 18.9999 47.9928 18.9999 46.7497C18.9999 45.5067 17.9923 44.499 16.7492 44.499C15.5062 44.499 14.4985 45.5067 14.4985 46.7497C14.4985 47.9928 15.5062 49.0004 16.7492 49.0004Z" fill="#ECEFF1"/>
<path d="M36.2492 42.5004C37.4923 42.5004 38.4999 41.4928 38.4999 40.2497C38.4999 39.0067 37.4923 37.999 36.2492 37.999C35.0062 37.999 33.9985 39.0067 33.9985 40.2497C33.9985 41.4928 35.0062 42.5004 36.2492 42.5004Z" fill="#ECEFF1"/>
<path d="M36.2492 68.5004C37.4923 68.5004 38.4999 67.4928 38.4999 66.2497C38.4999 65.0067 37.4923 63.999 36.2492 63.999C35.0062 63.999 33.9985 65.0067 33.9985 66.2497C33.9985 67.4928 35.0062 68.5004 36.2492 68.5004Z" fill="#ECEFF1"/>
<path d="M23.2492 42.5004C24.4923 42.5004 25.4999 41.4928 25.4999 40.2497C25.4999 39.0067 24.4923 37.999 23.2492 37.999C22.0062 37.999 20.9985 39.0067 20.9985 40.2497C20.9985 41.4928 22.0062 42.5004 23.2492 42.5004Z" fill="#ECEFF1"/>
<path d="M16.7492 55.5004C17.9923 55.5004 18.9999 54.4927 18.9999 53.2497C18.9999 52.0067 17.9923 50.999 16.7492 50.999C15.5062 50.999 14.4985 52.0067 14.4985 53.2497C14.4985 54.4927 15.5062 55.5004 16.7492 55.5004Z" fill="#ECEFF1"/>
<path d="M15.626 30.6244V32.1237C15.626 32.7445 16.1304 33.249 16.7513 33.249C17.3722 33.249 17.8767 32.7445 17.8767 32.1237V30.6244C17.8767 30.0035 17.3722 29.499 16.7513 29.499C16.1304 29.499 15.626 30.0035 15.626 30.6244Z" fill="#ECEFF1"/>
<path d="M43.5885 32.8757C43.5885 32.8757 43.6009 32.8616 43.6062 32.8545C43.6432 32.8122 43.6767 32.7646 43.705 32.7187C43.7314 32.6746 43.7561 32.6305 43.7737 32.5899C43.7914 32.5494 43.8073 32.5106 43.8178 32.4788C43.8284 32.4471 43.8355 32.4188 43.839 32.403C43.8425 32.3871 43.8443 32.3818 43.8461 32.3765C43.8831 32.2125 43.8831 32.0414 43.8461 31.8773C43.8461 31.8738 43.8443 31.8685 43.8408 31.8562C43.8372 31.842 43.8302 31.8174 43.8214 31.7874C43.8108 31.7556 43.7967 31.715 43.7773 31.6727C43.7579 31.6304 43.7349 31.5828 43.705 31.5369C43.6714 31.4822 43.6291 31.4311 43.5868 31.3781C43.1723 30.9143 42.4614 30.8754 41.9975 31.29C41.9658 31.3182 41.9376 31.3482 41.9093 31.3781C41.904 31.3852 41.897 31.3923 41.8917 31.3993C41.8546 31.4416 41.8211 31.4893 41.7929 31.5351C41.7665 31.5792 41.7418 31.6233 41.7241 31.6639C41.7065 31.7045 41.6906 31.7433 41.68 31.775C41.6694 31.8068 41.6624 31.835 41.6589 31.8509C41.6553 31.8667 41.6536 31.872 41.6518 31.8773C41.6148 32.0414 41.6148 32.2125 41.6518 32.3765C41.6518 32.38 41.6536 32.3853 41.6571 32.3977C41.6606 32.4118 41.6677 32.4365 41.6765 32.4665C41.6871 32.4982 41.7012 32.5388 41.7206 32.5811C41.74 32.6234 41.7629 32.6711 41.7929 32.7169C41.8264 32.7716 41.8688 32.8228 41.9111 32.8757C42.3256 33.3396 43.0364 33.3784 43.5003 32.9639C43.5321 32.9356 43.5603 32.9057 43.5885 32.8757Z" fill="#455A64"/>
<path d="M43.7366 17.1398C43.726 17.0851 43.7031 17.0322 43.6731 16.9846C43.6431 16.937 43.6061 16.8946 43.562 16.8594C43.5179 16.8241 43.4685 16.7959 43.4156 16.7782C43.3626 16.7606 43.3062 16.7553 43.2498 16.75H16.2502C16.2131 16.7518 16.1761 16.7553 16.1408 16.7623C16.0861 16.7729 16.0332 16.7959 15.9856 16.8258C15.9379 16.8558 15.8956 16.8929 15.8603 16.937C15.8251 16.9811 15.7968 17.0305 15.7792 17.0834C15.7616 17.1363 15.7563 17.1927 15.751 17.2492V22.9994C15.758 23.0647 15.7669 23.1299 15.7898 23.1899C15.8127 23.2499 15.8515 23.3046 15.8974 23.3522C15.9432 23.3998 15.9997 23.4368 16.0597 23.4598C16.1196 23.4827 16.1849 23.4898 16.2502 23.4986H43.2498C43.2886 23.4968 43.3256 23.4933 43.3626 23.4862C43.4173 23.4739 43.4702 23.451 43.5179 23.421C43.5655 23.391 43.6078 23.3522 43.6431 23.3081C43.6784 23.264 43.7066 23.2146 43.7225 23.1599C43.7383 23.1088 43.7436 23.0523 43.7489 22.9976V17.2474C43.7472 17.2104 43.7436 17.1733 43.7366 17.1381V17.1398ZM40.4981 21.3749C40.4981 21.927 40.0501 22.375 39.498 22.375H20.0001C19.4481 22.375 19 21.927 19 21.3749V18.8755C19 18.3234 19.4481 17.8754 20.0001 17.8754H39.4998C40.0519 17.8754 40.4999 18.3234 40.4999 18.8755V21.3749H40.4981Z" fill="#ECEFF1"/>
</svg>
