<svg width="60" height="80" viewBox="0 0 60 80" fill="none" xmlns="http://www.w3.org/2000/svg">
<path d="M8.5 14.4993V67.9993C8.5 71.3136 11.1864 74 14.5007 74H44.9998C48.3141 74 51.0005 71.3136 51.0005 67.9993V14.4993L49.7499 14.1659L49.4995 14.0989L48.3635 13.7955C48.2912 13.7761 48.2207 13.7514 48.1501 13.7214C48.0795 13.6914 48.0072 13.6526 47.9402 13.6085C47.8732 13.5644 47.8061 13.515 47.7462 13.4604C47.6862 13.4057 47.628 13.3439 47.5751 13.2787C47.5222 13.2134 47.4763 13.1429 47.4375 13.0705C47.3987 12.9982 47.3634 12.9206 47.3352 12.8412C47.307 12.7619 47.2876 12.6807 47.2735 12.5978C47.2593 12.5149 47.2523 12.432 47.2523 12.3474V6.99929C47.2523 6.17027 46.5802 5.5 45.753 5.5H45.2538H45.0033H44.7529H41.2534H41.0029H40.7524H18.7499H18.4994H18.2489H14.7494H14.4989H14.2485H13.7493C12.9203 5.5 12.25 6.17204 12.25 6.99929V12.3474C12.25 12.432 12.2429 12.5149 12.2288 12.5978C12.2147 12.6807 12.1935 12.7619 12.1671 12.8412C12.1406 12.9206 12.1054 12.9965 12.0648 13.0705C12.0242 13.1446 11.9784 13.2152 11.9254 13.2804C11.8725 13.3457 11.8161 13.4057 11.7561 13.4621C11.6961 13.5186 11.6291 13.568 11.5603 13.6121C11.4915 13.6561 11.4227 13.6932 11.3522 13.7232C11.2816 13.7532 11.2075 13.7796 11.137 13.799L10.0011 14.1024L9.75059 14.1694L8.5 14.5028L8.5 14.4993Z" fill="#CFD8DC"/>
</svg>
