<?xml version="1.0" encoding="utf-8"?>
<!-- Generator: Adobe Illustrator 22.0.1, SVG Export Plug-In . SVG Version: 6.00 Build 0)  -->
<svg version="1.1" id="Layer_1" xmlns="http://www.w3.org/2000/svg" xmlns:xlink="http://www.w3.org/1999/xlink" x="0px" y="0px"
	 viewBox="0 0 209.3 63.2" style="enable-background:new 0 0 209.3 63.2;" xml:space="preserve">
<style type="text/css">
	.st0{fill:#FFFFFF;}
</style>
<g>
	<path class="st0" d="M15,0c4.6,0,8.3,1.5,11.1,4.4c2.6,2.8,3.8,6.4,3.8,10.7v9.2c0,4.2-1.5,7.7-4.4,10.7s-6.4,4.4-10.6,4.4H9.5
		v23.8H0V0H15z M20.7,15.2c0-1.6-0.5-3-1.5-4s-2.3-1.5-4-1.5H9.5V30h5.8c1.5,0,2.8-0.5,3.9-1.6s1.6-2.4,1.6-3.9L20.7,15.2L20.7,15.2
		z"/>
	<path class="st0" d="M52.5,0.1c4.2,0,7.8,1.5,10.7,4.4c2.9,3,4.4,6.5,4.4,10.7v9.1c0,4.2-1.5,7.8-4.4,10.7c-3,2.9-6.5,4.4-10.7,4.4
		s-7.8-1.5-10.7-4.4c-2.9-3-4.4-6.5-4.4-10.7v-9.1C37.5,11,39,7.4,42,4.5C44.9,1.5,48.4,0.1,52.5,0.1z M57.7,15
		c0-1.5-0.5-2.8-1.6-3.9s-2.3-1.6-3.9-1.6c-1.5,0-2.8,0.5-3.9,1.6c-1.1,1.1-1.6,2.3-1.6,3.9v9.2c0,1.5,0.5,2.8,1.6,3.9
		s2.4,1.6,3.9,1.6s2.8-0.5,3.9-1.6c1.1-1.1,1.6-2.3,1.6-3.9V15z"/>
	<path class="st0" d="M122.3,9.6h-10.1V0h29.8v9.6h-10.1v53.6h-9.5L122.3,9.6L122.3,9.6z"/>
	<path class="st0" d="M153,48.7l-2.3,14.5H141L151.5,0h13.1l10.6,63.2h-10L163,48.7H153z M158,14.5l-3.5,24.9h7.1L158,14.5z"/>
	<path class="st0" d="M209.3,63.2h-26V0h9.5v53.7h16.4L209.3,63.2L209.3,63.2z"/>
	<path class="st0" d="M100.1,35.6c3.4-3.1,5.1-6.9,5.1-11.3v-9.2c0-4.6-1.1-8.1-3.3-10.7C99.4,1.5,95.5,0,90.2,0h-15v39.4h9.5h5.5
		c0.3,0,0.6,0,0.9,0l5.8,23.8h10.3L100.1,35.6z M95.9,24.5c0,1.5-0.5,2.8-1.6,3.9c-1.1,1-2.3,1.6-3.9,1.6h-5.8V9.7h5.8
		c3.6,0,5.4,1.8,5.4,5.5L95.9,24.5L95.9,24.5z"/>
	<path class="st0" d="M29.9,59.3c0,1.1-0.3,2-0.8,2.7c-0.4,0.5-0.9,0.9-1.6,1.1c-0.4,0.1-0.8,0.2-1.3,0.2c-0.9,0-1.7-0.2-2.3-0.7
		c-0.5-0.4-0.9-0.9-1.2-1.5c-0.3-0.6-0.5-1.3-0.5-2.1l2.2-0.2c0.1,0.9,0.3,1.5,0.7,1.9c0.3,0.3,0.6,0.4,1,0.4c0.5,0,0.9-0.3,1.2-0.7
		c0.2-0.2,0.2-0.6,0.2-1c0-0.6-0.3-1.2-0.9-1.9c-0.5-0.4-1.2-1.1-2.1-1.9c-0.8-0.7-1.3-1.4-1.6-2c-0.3-0.7-0.5-1.4-0.5-2.1
		c0-1.4,0.5-2.4,1.4-3.1c0.6-0.4,1.3-0.6,2.2-0.6c0.8,0,1.5,0.2,2.1,0.5c0.5,0.3,0.8,0.7,1.1,1.2c0.3,0.5,0.5,1.1,0.5,1.7l-2.2,0.4
		c-0.1-0.6-0.2-1.1-0.5-1.4c-0.2-0.2-0.5-0.4-0.9-0.4c-0.4,0-0.8,0.2-1,0.6c-0.2,0.3-0.3,0.7-0.3,1.1c0,0.7,0.3,1.4,0.9,2.1
		c0.2,0.3,0.6,0.6,1,1c0.5,0.4,0.9,0.8,1.1,0.9c0.6,0.6,1,1.1,1.3,1.7c0.1,0.3,0.3,0.5,0.4,0.7C29.7,58.4,29.9,58.8,29.9,59.3z"/>
	<path class="st0" d="M39.5,47.7c1.1,0,2,0.4,2.7,1.1c0.6,0.7,0.9,1.6,0.9,2.6v2.2c0,1-0.4,1.9-1.1,2.6c-0.7,0.7-1.6,1.1-2.6,1.1
		h-1.3v5.8h-2.3V47.7H39.5z M40.9,51.5c0-0.4-0.1-0.7-0.4-1c-0.2-0.2-0.6-0.4-1-0.4h-1.4v4.9h1.4c0.4,0,0.7-0.1,0.9-0.4
		c0.3-0.3,0.4-0.6,0.4-1V51.5z"/>
	<path class="st0" d="M65.8,63.2c-1,0-1.9-0.4-2.6-1.1c-0.7-0.7-1.1-1.6-1.1-2.6v-8.1c0-1,0.4-1.9,1.1-2.6c0.7-0.7,1.6-1.1,2.6-1.1
		c1,0,1.9,0.4,2.6,1.1c0.7,0.7,1.1,1.6,1.1,2.6v1.8h-2.4v-1.8c0-0.4-0.1-0.7-0.4-1c-0.3-0.3-0.6-0.4-0.9-0.4c-0.4,0-0.7,0.1-0.9,0.4
		c-0.3,0.3-0.4,0.6-0.4,1v8.1c0,0.4,0.1,0.7,0.4,0.9c0.3,0.3,0.6,0.4,0.9,0.4c0.4,0,0.7-0.1,0.9-0.4c0.3-0.3,0.4-0.6,0.4-0.9v-2.1
		h2.4v2.2c0,1-0.4,1.9-1.1,2.6C67.7,62.8,66.8,63.2,65.8,63.2z"/>
	<g>
		<path class="st0" d="M50.9,59.6l-0.6,3.6h-2.4l2.6-15.5h3.2l2.6,15.5h-2.4l-0.5-3.6H50.9z M52.1,51.3l-0.9,6.1H53L52.1,51.3z"/>
		<path class="st0" d="M75.2,63.2V47.7h6.6v2.3h-4.3v4.2h3.1v2.3h-3.1v4.2h4.3v2.3H75.2z"/>
	</g>
</g>
</svg>
