<svg width="106" height="840" viewBox="0 0 106 840" fill="none" xmlns="http://www.w3.org/2000/svg">
<g clip-path="url(#clip0_386_13460)">
<path d="M1.43728 840.289H106.563V766.28H83.5668V812.337H65.4983V769.9H42.5019L42.5019 812.337H24.4335L24.4335 766.078H1.43728L1.43728 840.289Z" fill="white"/>
<path d="M1.43727 755.03H24.4335L24.4335 724.058H106.563V696.505H24.4335L24.4335 665.533H1.43727L1.43727 755.03Z" fill="white"/>
<path d="M103.739 608.001C106.58 601.7 108 594.493 108 586.382C108 577.968 106.648 570.544 103.945 564.108C101.242 557.639 97.5116 552.594 92.7549 548.974C87.9982 545.321 82.5401 543.511 76.3802 543.544C69.9468 543.477 64.6083 545.539 60.3651 549.728C56.0875 553.918 53.4868 560.17 52.5627 568.482H51.7413C51.0569 562.348 48.8327 557.287 45.0683 553.298C41.3043 549.276 36.4793 547.298 30.5932 547.365C24.673 547.332 19.4202 548.974 14.8346 552.293C10.2148 555.577 6.58746 560.153 3.95246 566.019C1.31749 571.851 3.66168e-06 578.572 3.66168e-06 586.181C3.66168e-06 593.957 1.40304 600.845 4.20914 606.845C7.01521 612.845 10.8821 617.571 15.8099 621.024C20.7377 624.443 26.4183 626.169 32.8517 626.203L32.8517 599.454C30.73 599.421 28.8479 598.834 27.2053 597.694C25.5628 596.555 24.2795 594.996 23.3555 593.019C22.4316 591.007 21.9696 588.728 21.9696 586.181C21.9696 583.834 22.4145 581.773 23.3042 579.996C24.1939 578.186 25.4259 576.778 27 575.773C28.5742 574.767 30.3878 574.281 32.4411 574.315C34.5626 574.281 36.445 574.868 38.0874 576.075C39.7302 577.248 41.0134 578.907 41.9374 581.052C42.8611 583.164 43.3233 585.611 43.3233 588.393V598.851H63.0341V588.393C63.0341 585.376 63.4963 582.711 64.4203 580.399C65.344 578.086 66.6276 576.292 68.27 575.019C69.9124 573.711 71.7948 573.074 73.9164 573.108C76.0723 573.074 77.9887 573.611 79.6654 574.717C81.3422 575.823 82.6597 577.365 83.6181 579.343C84.5417 581.32 85.0039 583.6 85.0039 586.181C85.0039 588.862 84.5591 591.242 83.6694 593.32C82.7797 595.398 81.5474 597.041 79.9733 598.248C78.3652 599.421 76.5515 600.024 74.5325 600.057V628.214C81.0686 628.18 86.8516 626.37 91.8822 622.784C96.9125 619.197 100.865 614.27 103.739 608.001Z" fill="white"/>
<path d="M103.739 512.459C106.58 506.158 108 498.951 108 490.839C108 482.426 106.648 475.001 103.945 468.566C101.242 462.096 97.5116 457.052 92.7549 453.432C87.9982 449.778 82.5401 447.968 76.3802 448.002C69.9468 447.935 64.6083 449.996 60.3651 454.186C56.0875 458.376 53.4868 464.627 52.5627 472.94H51.7413C51.0569 466.806 48.8327 461.744 45.0683 457.756C41.3043 453.733 36.4789 451.756 30.5932 451.823C24.673 451.789 19.4202 453.432 14.8346 456.75C10.2148 460.035 6.58746 464.61 3.95246 470.476C1.31749 476.309 0 483.029 0 490.638C0 498.415 1.40304 505.303 4.20914 511.303C7.01521 517.303 10.8821 522.029 15.8099 525.481C20.7377 528.9 26.4183 530.626 32.8517 530.66L32.8517 503.912C30.73 503.878 28.8479 503.292 27.2053 502.152C25.5628 501.012 24.2795 499.454 23.3555 497.476C22.4316 495.465 21.9696 493.186 21.9696 490.638C21.9696 488.292 22.4144 486.23 23.3042 484.454C24.1939 482.644 25.4259 481.236 27 480.23C28.5742 479.225 30.3878 478.739 32.4411 478.772C34.5626 478.739 36.445 479.325 38.0874 480.532C39.7302 481.705 41.0134 483.365 41.9374 485.51C42.8611 487.621 43.3233 490.068 43.3233 492.85V503.308H63.0341V492.85C63.0341 489.834 63.4963 487.169 64.4203 484.856C65.344 482.543 66.6276 480.75 68.27 479.476C69.9124 478.169 71.7948 477.532 73.9164 477.566C76.0723 477.532 77.9887 478.068 79.6654 479.174C81.3422 480.281 82.6597 481.823 83.6181 483.8C84.5417 485.778 85.0039 488.057 85.0039 490.638C85.0039 493.32 84.5591 495.699 83.6694 497.778C82.7797 499.856 81.5474 501.498 79.9733 502.705C78.3652 503.878 76.5515 504.482 74.5325 504.515V532.671C81.0686 532.638 86.8516 530.828 91.8822 527.241C96.9125 523.654 100.865 518.727 103.739 512.459Z" fill="white"/>
</g>
<defs>
<clipPath id="clip0_386_13460">
<rect width="106" height="840" fill="white"/>
</clipPath>
</defs>
</svg>
