<?xml version="1.0" encoding="utf-8"?>
<!-- Generator: Adobe Illustrator 24.1.0, SVG Export Plug-In . SVG Version: 6.00 Build 0)  -->
<svg version="1.1" id="Layer_1" xmlns="http://www.w3.org/2000/svg" xmlns:xlink="http://www.w3.org/1999/xlink" x="0px" y="0px"
	 viewBox="0 0 100 100" style="enable-background:new 0 0 100 100;" xml:space="preserve">
<style type="text/css">
	.st0{fill:#FFFFFF;}
	.st1{fill:none;}
</style>
<g>
	<path class="st0" d="M73,57.2h-2l0,0H27c-7.3,0-13.3-6-13.3-13.4c0-6.4,4.4-11.7,10.4-13C24,30.3,24,29.7,24,29.2
		c0-5,4.1-9.1,9.1-9.1c1.7,0,3.3,0.4,4.7,1.3c3.8-5.1,9.7-8,16.1-8c10.1,0,18.5,7.4,20,17.2c7,0.5,12.5,6.3,12.5,13.3
		C86.3,51.2,80.4,57.2,73,57.2C73.1,57.2,73.1,57.2,73,57.2z M71,53.4h2c5.2-0.1,9.5-4.3,9.5-9.5c0-5.3-4.3-9.6-9.6-9.6
		c-0.2,0-0.5,0-0.7,0c-0.5,0-1-0.1-1.4-0.5c-0.4-0.3-0.6-0.8-0.6-1.3c-0.6-8.6-7.8-15.4-16.4-15.4c-5.8,0-11.1,3-14.1,7.9
		c-0.3,0.5-0.8,0.8-1.4,0.9c-0.6,0.1-1.2-0.1-1.6-0.6c-1-1-2.3-1.6-3.7-1.6c-2.9,0-5.3,2.4-5.3,5.3c0,0.8,0.2,1.6,0.6,2.4
		c0.3,0.6,0.3,1.3-0.1,1.8c-0.3,0.6-0.9,0.9-1.6,0.9c-5.1,0.2-9.2,4.4-9.2,9.5c0,5.3,4.3,9.5,9.5,9.5h2L71,53.4z"/>
	<path class="st0" d="M31.7,83c-0.5,0-1-0.2-1.4-0.6c-0.7-0.7-0.7-2,0-2.7l11.8-11.8c0.7-0.7,2-0.7,2.7,0s0.7,2,0,2.7L33,82.5
		C32.6,82.8,32.1,83,31.7,83z"/>
	<path class="st0" d="M43.5,83c-0.5,0-1-0.2-1.4-0.6L30.3,70.6c-0.7-0.7-0.7-2,0-2.7s2-0.7,2.7,0l11.8,11.8c0.7,0.7,0.7,2,0,2.7
		C44.5,82.8,44,83,43.5,83z"/>
	<path class="st0" d="M47.1,77.1L47.1,77.1H28c-1.1,0-1.9-0.9-1.9-1.9c0-1.1,0.9-1.9,1.9-1.9l0,0h19.1c1.1,0,1.9,0.8,1.9,1.9
		C49,76.2,48.2,77.1,47.1,77.1z"/>
	<path class="st0" d="M37.6,86.6L37.6,86.6c-1.1,0-1.9-0.8-1.9-1.9V65.6c0-1.1,0.9-1.9,1.9-1.9l0,0c1.1,0,1.9,0.9,1.9,1.9v19.1
		C39.5,85.8,38.6,86.6,37.6,86.6z"/>
	<path class="st0" d="M58.2,74.6c-0.7,0-1.3-0.3-1.7-1c-0.5-0.9-0.2-2.1,0.7-2.6l11.6-6.7c0.9-0.5,2.1-0.2,2.6,0.7
		c0.5,0.9,0.2,2.1-0.7,2.6l-11.6,6.7C58.8,74.5,58.5,74.6,58.2,74.6z"/>
	<path class="st0" d="M69.8,74.4c-0.3,0-0.6-0.1-0.9-0.2l-11.8-6.4c-0.9-0.5-1.3-1.7-0.8-2.6s1.7-1.3,2.6-0.8l11.8,6.4
		c0.9,0.5,1.3,1.7,0.8,2.6C71.2,74,70.5,74.4,69.8,74.4z"/>
	<path class="st0" d="M63.9,77.9L63.9,77.9c-1.1,0-1.9-0.9-1.9-2V62.7c0-1.1,0.9-1.9,1.9-1.9l0,0c1.1,0,1.9,0.8,1.9,1.9v13.2
		C65.9,77,65,77.9,63.9,77.9z"/>
</g>
<rect class="st1" width="100" height="100"/>
</svg>
