<svg xmlns="http://www.w3.org/2000/svg" width="300" height="60" viewBox="0 0 300 60">
  <g id="Group_52" data-name="Group 52" transform="translate(-360 111)">
    <path id="Path_35" data-name="Path 35" d="M349.455,165.4a29.646,29.646,0,0,0-2.507-8.914,30.333,30.333,0,0,0-8.229-10.644,29.8,29.8,0,0,0-16.7-6.763,30.672,30.672,0,0,0-7.235.252,29.855,29.855,0,0,0-11.077,4.108c-.72.446-1.735,1.2-2.569,1.834a2.525,2.525,0,0,1-3.01.045,42.971,42.971,0,0,0-5.523-3.5,30.027,30.027,0,0,0-16.383-2.629,30.092,30.092,0,0,0-16.718,7.57,33.385,33.385,0,0,0-4.456,5.1,30.09,30.09,0,0,0-4.908,11.665,20.963,20.963,0,0,0-.446,5.275v.129a26.711,26.711,0,0,0,.112,3.1,28.849,28.849,0,0,0,1,5.264,30.152,30.152,0,0,0,4.353,8.948,29.526,29.526,0,0,0,3.8,4.466,35.927,35.927,0,0,0,2.848,2.375,29.213,29.213,0,0,0,4.494,2.765,29.808,29.808,0,0,0,6.657,2.363,26.339,26.339,0,0,0,4.583.7,33.386,33.386,0,0,0,6.577-.256,30.583,30.583,0,0,0,9.813-3.192,29.431,29.431,0,0,0,4.2-2.707,2.5,2.5,0,0,1,3.05-.009,30.394,30.394,0,0,0,5.93,3.558,29.571,29.571,0,0,0,10.685,2.614q.976.053,1.908.053a27.8,27.8,0,0,0,5.184-.465,29.872,29.872,0,0,0,6.47-1.921,30.729,30.729,0,0,0,12.556-10,30.174,30.174,0,0,0,3.344-5.879,29.844,29.844,0,0,0,2.191-15.31Zm-72.029-3.186a6.82,6.82,0,0,0-4.718,5.615,7.127,7.127,0,0,0,9.221,7.958,2.526,2.526,0,0,1,2.508.666l6.548,6.473a2.523,2.523,0,0,1-.46,3.953,20.863,20.863,0,0,1-31.632-17.169,20.053,20.053,0,0,1,5.236-14.541,21.2,21.2,0,0,1,15.548-7.052c.175,0,.349,0,.521.008a20.538,20.538,0,0,1,12.816,4.7c1.432,1.173,21.126,20.917,21.943,21.62a7.165,7.165,0,1,0,2.391-12.286,2.44,2.44,0,0,1-2.44-.645l-6.545-6.51a2.516,2.516,0,0,1,.459-3.941,20.775,20.775,0,0,1,4.49-1.987,20.5,20.5,0,0,1,4.317-.843,21.2,21.2,0,0,1,14.376,4,20.352,20.352,0,0,1,7.209,9.616,20.927,20.927,0,0,1-29.343,25.6,23,23,0,0,1-5.833-4.445c-3-3.018-17.391-17.344-19.282-19.192A6.979,6.979,0,0,0,277.426,162.218Z" transform="translate(110.331 -249.979)" fill="#f51057"/>
    <g id="Group_51" data-name="Group 51" transform="translate(-231.106 -313.894)">
      <path id="Path_36" data-name="Path 36" d="M721.106,219.778a11.8,11.8,0,0,1,.061-1.4,3.788,3.788,0,0,1,.346-1.077q.568-1.1,3.169-1.1,2.478,0,3.088,1.1a3.26,3.26,0,0,1,.387,1.1,12.532,12.532,0,0,1,.061,1.422v18.812a4.257,4.257,0,0,0,.243,1.849q.245.386,1.077.386a6.532,6.532,0,0,1,1.118.061,2.072,2.072,0,0,1,.69.345q.813.528.813,2.885,0,2.56-.813,3.128-1.057.732-5.038.244-3.13-.406-4.063-2.072-1.138-1.99-1.138-6.338Z" transform="translate(0 0)" fill="#f51057"/>
      <path id="Path_37" data-name="Path 37" d="M744.814,234.723a11.16,11.16,0,0,1,15.561-.02A11.2,11.2,0,0,1,762,248.721a10.954,10.954,0,0,1-4.246,3.86,11.513,11.513,0,0,1-5.18,1.239,11.064,11.064,0,0,1-5.2-1.321,11.525,11.525,0,0,1-4.246-3.9,10.241,10.241,0,0,1-1.727-5.831A10.5,10.5,0,0,1,744.814,234.723Zm5.079,10.95a4.315,4.315,0,0,0,2.641,1,4.43,4.43,0,0,0,2.682-1.016,4.08,4.08,0,0,0,.081-5.972,4.355,4.355,0,0,0-2.722-.976,4.252,4.252,0,0,0-2.722,1.016,3.609,3.609,0,0,0-1.26,2.986A3.5,3.5,0,0,0,749.893,245.673Z" transform="translate(-7.618 -5.762)" fill="#f51057"/>
      <path id="Path_38" data-name="Path 38" d="M783.842,234.723a11.161,11.161,0,0,1,15.562-.02,11.2,11.2,0,0,1,1.625,14.018,10.949,10.949,0,0,1-4.246,3.86,11.513,11.513,0,0,1-5.181,1.239,11.066,11.066,0,0,1-5.2-1.321,11.53,11.53,0,0,1-4.246-3.9,10.244,10.244,0,0,1-1.727-5.831A10.5,10.5,0,0,1,783.842,234.723Zm5.078,10.95a4.316,4.316,0,0,0,2.642,1,4.43,4.43,0,0,0,2.682-1.016,4.081,4.081,0,0,0,.081-5.972,4.36,4.36,0,0,0-2.723-.976,4.254,4.254,0,0,0-2.722,1.016,3.61,3.61,0,0,0-1.259,2.986A3.5,3.5,0,0,0,788.92,245.673Z" transform="translate(-22.267 -5.762)" fill="#f51057"/>
      <path id="Path_39" data-name="Path 39" d="M820.432,259.558V235.829a11.288,11.288,0,0,1,.061-1.382,3.352,3.352,0,0,1,.345-1.016q.568-1.1,2.722-1.1a5.323,5.323,0,0,1,2.905.548,2.192,2.192,0,0,1,.873,1.6,5.613,5.613,0,0,1,4.856-2.113q3.311,0,6.277,3.129a10.425,10.425,0,0,1,.021,14.545,8.6,8.6,0,0,1-6.278,3.129q-3.332,0-4.835-1.869v8.208a11.261,11.261,0,0,1-.061,1.381,3.287,3.287,0,0,1-.365,1.036,1.713,1.713,0,0,1-1.036.833,6.515,6.515,0,0,1-1.991.244,6.713,6.713,0,0,1-2.011-.244,1.737,1.737,0,0,1-1.057-.813,3.115,3.115,0,0,1-.365-1.016A11.279,11.279,0,0,1,820.432,259.558Zm8.045-19.138a3.616,3.616,0,0,0-.935,2.4,3.5,3.5,0,0,0,.955,2.377,3.109,3.109,0,0,0,2.437,1.077,3.394,3.394,0,0,0,2.519-1.056,3.334,3.334,0,0,0,1.036-2.4,3.508,3.508,0,0,0-.974-2.417,3.268,3.268,0,0,0-2.539-1.077A3.116,3.116,0,0,0,828.477,240.42Z" transform="translate(-37.283 -6.055)" fill="#f51057"/>
      <path id="Path_40" data-name="Path 40" d="M858.085,251.594a1.691,1.691,0,0,1-.773-1.544,6.682,6.682,0,0,1,1.544-3.21,1.59,1.59,0,0,1,1.444-.691,5.932,5.932,0,0,1,2.7,1,6.258,6.258,0,0,0,3.089,1q2.478,0,2.478-.975,0-.771-2.721-1.137a13.286,13.286,0,0,1-5.079-1.91,5.425,5.425,0,0,1-1.951-2.3,8.315,8.315,0,0,1-.772-3.718q0-6.419,8.817-6.419a14.32,14.32,0,0,1,5.933,1.381q1.422.65,1.421,1.625a4.793,4.793,0,0,1-.893,2.4q-.895,1.422-1.828,1.422a5.5,5.5,0,0,1-1.808-.609,6.747,6.747,0,0,0-2.865-.61q-2.4,0-2.4.894,0,1.219,2.764,1.585a15.14,15.14,0,0,1,5.2,1.544,4.606,4.606,0,0,1,1.971,1.97,7.072,7.072,0,0,1,.791,3.515,7.548,7.548,0,0,1-.791,3.6,5.146,5.146,0,0,1-2.214,2.214,14.93,14.93,0,0,1-6.521,1.259A13.942,13.942,0,0,1,858.085,251.594Z" transform="translate(-51.126 -5.811)" fill="#f51057"/>
      <path id="Path_41" data-name="Path 41" d="M906.793,232.31q2.4,1.058,2.4,2.56a3.055,3.055,0,0,1-.325,1.382,6.622,6.622,0,0,0-.325.691L897.9,260.752q-.326.772-.548,1.179a2.5,2.5,0,0,1-.711.771,1.97,1.97,0,0,1-1.219.366,6.12,6.12,0,0,1-2.153-.61q-2.4-1.057-2.4-2.519,0-.974,3.9-9.3l-8.085-13.612a4.541,4.541,0,0,1-.813-1.991q0-1.3,2.194-2.6a4.759,4.759,0,0,1,2.153-.812,2.233,2.233,0,0,1,1.26.325,2.453,2.453,0,0,1,.711.67q.223.346,2.235,3.779t3.84,6.4q.2-.649,2.194-5.018t2.133-4.652a4.084,4.084,0,0,1,.467-.691,1.761,1.761,0,0,1,1.484-.691A5.806,5.806,0,0,1,906.793,232.31Z" transform="translate(-61.845 -5.787)" fill="#f51057"/>
      <path id="Path_42" data-name="Path 42" d="M931.168,242.9a3.306,3.306,0,0,0,1.138,2.682,3.7,3.7,0,0,0,2.417.954,4.215,4.215,0,0,0,2.4-.751,3.578,3.578,0,0,1,1.808-.751q1.219,0,2.966,2.153a3.573,3.573,0,0,1,.935,2.113q0,1.544-2.234,2.885a9.652,9.652,0,0,1-5.688,1.625,11.69,11.69,0,0,1-7.273-2.722,9.669,9.669,0,0,1-2.722-3.474,10.818,10.818,0,0,1-1.057-4.795,10.562,10.562,0,0,1,1.057-4.754,9.757,9.757,0,0,1,2.722-3.433,11.355,11.355,0,0,1,7.192-2.682,10.685,10.685,0,0,1,3.006.426,10.112,10.112,0,0,1,2.154.833l.65.407q.732.487,1.138.772a2.319,2.319,0,0,1,1.056,1.848,4.387,4.387,0,0,1-.853,2.336q-1.461,2.236-2.8,2.235a4.7,4.7,0,0,1-2.194-.894,2.933,2.933,0,0,0-2.093-.691,3.91,3.91,0,0,0-2.54.975A3.315,3.315,0,0,0,931.168,242.9Z" transform="translate(-76.103 -5.909)" fill="#f51057"/>
      <path id="Path_43" data-name="Path 43" d="M960.9,234.723a11.161,11.161,0,0,1,15.562-.02,11.2,11.2,0,0,1,1.626,14.018,10.956,10.956,0,0,1-4.246,3.86,11.514,11.514,0,0,1-5.181,1.239,11.061,11.061,0,0,1-5.2-1.321,11.523,11.523,0,0,1-4.246-3.9,10.24,10.24,0,0,1-1.727-5.831A10.5,10.5,0,0,1,960.9,234.723Zm5.079,10.95a4.316,4.316,0,0,0,2.642,1,4.43,4.43,0,0,0,2.682-1.016,4.08,4.08,0,0,0,.081-5.972,4.357,4.357,0,0,0-2.722-.976,4.251,4.251,0,0,0-2.721,1.016,3.609,3.609,0,0,0-1.26,2.986A3.5,3.5,0,0,0,965.976,245.673Z" transform="translate(-88.726 -5.762)" fill="#f51057"/>
    </g>
  </g>
</svg>
