<svg width="197" height="255" viewBox="0 0 197 255" fill="none" xmlns="http://www.w3.org/2000/svg">
<path d="M33.9518 190.64C30.5384 190.64 27.9358 189.68 26.1438 187.76C24.3518 185.797 23.4557 183.003 23.4557 179.376V155.824C23.4557 152.197 24.3518 149.424 26.1438 147.504C27.9358 145.541 30.5384 144.56 33.9518 144.56C37.3651 144.56 39.9678 145.541 41.7598 147.504C43.5518 149.424 44.4478 152.197 44.4478 155.824V159.664H37.7917V155.376C37.7917 152.432 36.5758 150.96 34.1438 150.96C31.7118 150.96 30.4958 152.432 30.4958 155.376V179.888C30.4958 182.789 31.7118 184.24 34.1438 184.24C36.5758 184.24 37.7917 182.789 37.7917 179.888V171.12H34.2718V164.72H44.4478V179.376C44.4478 183.003 43.5518 185.797 41.7598 187.76C39.9678 189.68 37.3651 190.64 33.9518 190.64ZM62.4078 190.64C58.9944 190.64 56.3918 189.68 54.5998 187.76C52.8078 185.797 51.9118 183.003 51.9118 179.376V145.2H58.9518V179.888C58.9518 181.424 59.2504 182.533 59.8478 183.216C60.4878 183.899 61.3838 184.24 62.5358 184.24C63.6878 184.24 64.5624 183.899 65.1598 183.216C65.7998 182.533 66.1198 181.424 66.1198 179.888V145.2H72.9038V179.376C72.9038 183.003 72.0078 185.797 70.2158 187.76C68.4238 189.68 65.8211 190.64 62.4078 190.64ZM81.1178 145.2H88.1578V190H81.1178V145.2ZM96.6302 145.2H107.382C110.881 145.2 113.505 146.139 115.254 148.016C117.004 149.893 117.878 152.645 117.878 156.272V178.928C117.878 182.555 117.004 185.307 115.254 187.184C113.505 189.061 110.881 190 107.382 190H96.6302V145.2ZM107.254 183.6C108.406 183.6 109.281 183.259 109.878 182.576C110.518 181.893 110.838 180.784 110.838 179.248V155.952C110.838 154.416 110.518 153.307 109.878 152.624C109.281 151.941 108.406 151.6 107.254 151.6H103.67V183.6H107.254ZM125.83 145.2H145.03V151.6H132.87V163.44H142.534V169.84H132.87V183.6H145.03V190H125.83V145.2ZM152.28 145.2H163.032C166.531 145.2 169.155 146.139 170.904 148.016C172.654 149.893 173.528 152.645 173.528 156.272V178.928C173.528 182.555 172.654 185.307 170.904 187.184C169.155 189.061 166.531 190 163.032 190H152.28V145.2ZM162.904 183.6C164.056 183.6 164.931 183.259 165.528 182.576C166.168 181.893 166.488 180.784 166.488 179.248V155.952C166.488 154.416 166.168 153.307 165.528 152.624C164.931 151.941 164.056 151.6 162.904 151.6H159.32V183.6H162.904ZM3.0865 201.2H13.5185C17.1452 201.2 19.7905 202.053 21.4545 203.76C23.1185 205.424 23.9505 208.005 23.9505 211.504V214.256C23.9505 218.907 22.4145 221.851 19.3425 223.088V223.216C21.0492 223.728 22.2438 224.773 22.9265 226.352C23.6518 227.931 24.0145 230.043 24.0145 232.688V240.56C24.0145 241.84 24.0572 242.885 24.1425 243.696C24.2278 244.464 24.4412 245.232 24.7825 246H17.6145C17.3585 245.275 17.1878 244.592 17.1025 243.952C17.0172 243.312 16.9745 242.16 16.9745 240.496V232.304C16.9745 230.256 16.6332 228.827 15.9505 228.016C15.3105 227.205 14.1798 226.8 12.5585 226.8H10.1265V246H3.0865V201.2ZM12.6865 220.4C14.0945 220.4 15.1398 220.037 15.8225 219.312C16.5478 218.587 16.9105 217.371 16.9105 215.664V212.208C16.9105 210.587 16.6118 209.413 16.0145 208.688C15.4598 207.963 14.5638 207.6 13.3265 207.6H10.1265V220.4H12.6865ZM42.275 246.64C38.819 246.64 36.1737 245.659 34.339 243.696C32.5043 241.733 31.587 238.96 31.587 235.376V211.824C31.587 208.24 32.5043 205.467 34.339 203.504C36.1737 201.541 38.819 200.56 42.275 200.56C45.731 200.56 48.3763 201.541 50.211 203.504C52.0457 205.467 52.963 208.24 52.963 211.824V235.376C52.963 238.96 52.0457 241.733 50.211 243.696C48.3763 245.659 45.731 246.64 42.275 246.64ZM42.275 240.24C44.707 240.24 45.923 238.768 45.923 235.824V211.376C45.923 208.432 44.707 206.96 42.275 206.96C39.843 206.96 38.627 208.432 38.627 211.376V235.824C38.627 238.768 39.843 240.24 42.275 240.24ZM60.924 201.2H70.972L75.452 233.264H75.58L80.06 201.2H90.108V246H83.452V212.08H83.324L78.204 246H72.316L67.196 212.08H67.068V246H60.924V201.2ZM104.002 201.2H113.538L120.834 246H113.794L112.514 237.104V237.232H104.514L103.234 246H96.7055L104.002 201.2ZM111.682 231.152L108.546 209.008H108.418L105.345 231.152H111.682ZM127.449 201.2H136.281L143.129 228.016H143.257V201.2H149.529V246H142.297L133.849 213.296H133.721V246H127.449V201.2ZM157.961 201.2H165.001V246H157.961V201.2ZM178.914 201.2H188.45L195.746 246H188.706L187.426 237.104V237.232H179.426L178.146 246H171.618L178.914 201.2ZM186.594 231.152L183.458 209.008H183.33L180.258 231.152H186.594Z" fill="white"/>
<path d="M77.5556 72V24C77.5556 22.64 78.0241 21.5 78.9611 20.58C79.8981 19.66 81.0593 19.2 82.4444 19.2C83.8296 19.2 84.9907 19.66 85.9278 20.58C86.8648 21.5 87.3333 22.64 87.3333 24V72C87.3333 73.36 86.8648 74.5 85.9278 75.42C84.9907 76.34 83.8296 76.8 82.4444 76.8C81.0593 76.8 79.8981 76.34 78.9611 75.42C78.0241 74.5 77.5556 73.36 77.5556 72ZM97.1111 91.2V4.8C97.1111 3.44 97.5796 2.3 98.5167 1.38C99.4537 0.46 100.615 0 102 0C103.385 0 104.546 0.46 105.483 1.38C106.42 2.3 106.889 3.44 106.889 4.8V91.2C106.889 92.56 106.42 93.7 105.483 94.62C104.546 95.54 103.385 96 102 96C100.615 96 99.4537 95.54 98.5167 94.62C97.5796 93.7 97.1111 92.56 97.1111 91.2ZM58 52.8V43.2C58 41.84 58.4685 40.7 59.4056 39.78C60.3426 38.86 61.5037 38.4 62.8889 38.4C64.2741 38.4 65.4352 38.86 66.3722 39.78C67.3093 40.7 67.7778 41.84 67.7778 43.2V52.8C67.7778 54.16 67.3093 55.3 66.3722 56.22C65.4352 57.14 64.2741 57.6 62.8889 57.6C61.5037 57.6 60.3426 57.14 59.4056 56.22C58.4685 55.3 58 54.16 58 52.8ZM116.667 72V24C116.667 22.64 117.135 21.5 118.072 20.58C119.009 19.66 120.17 19.2 121.556 19.2C122.941 19.2 124.102 19.66 125.039 20.58C125.976 21.5 126.444 22.64 126.444 24V72C126.444 73.36 125.976 74.5 125.039 75.42C124.102 76.34 122.941 76.8 121.556 76.8C120.17 76.8 119.009 76.34 118.072 75.42C117.135 74.5 116.667 73.36 116.667 72ZM136.222 52.8V43.2C136.222 41.84 136.691 40.7 137.628 39.78C138.565 38.86 139.726 38.4 141.111 38.4C142.496 38.4 143.657 38.86 144.594 39.78C145.531 40.7 146 41.84 146 43.2V52.8C146 54.16 145.531 55.3 144.594 56.22C143.657 57.14 142.496 57.6 141.111 57.6C139.726 57.6 138.565 57.14 137.628 56.22C136.691 55.3 136.222 54.16 136.222 52.8Z" fill="#FFCC00"/>
</svg>
